<svg width="470" height="176" viewBox="0 0 470 176" fill="none" xmlns="http://www.w3.org/2000/svg"><g filter="url(#filter0_di)"><path d="M110.51 95c3.52 0 6.453 1.173 8.8 3.52 2.347 2.347 3.52 5.28 3.52 8.8 0 3.373-1.173 6.233-3.52 8.58-2.347 2.2-5.28 3.3-8.8 3.3h-9.24v28.38c0 3.813-1.32 7.04-3.96 9.68-2.493 2.493-5.647 3.74-9.46 3.74-3.667 0-6.747-1.247-9.24-3.74-2.493-2.64-3.74-5.867-3.74-9.68V119.2h-57.2c-3.227 0-6.233-1.247-9.02-3.74-2.787-2.64-4.18-5.72-4.18-9.24 0-3.227 1.1-6.16 3.3-8.8l69.52-85.14C80.077 8.76 83.743 7 88.29 7c3.667 0 6.747 1.32 9.24 3.96 2.493 2.493 3.74 5.647 3.74 9.46V95h9.24zm-35.64 0V51L39.23 95h35.64zm155.102 68.2c-12.32 0-22.954-3.3-31.9-9.9-8.8-6.6-15.474-15.84-20.02-27.72-4.547-12.027-6.82-25.887-6.82-41.58 0-15.693 2.273-29.48 6.82-41.36 4.546-12.027 11.22-21.34 20.02-27.94 8.946-6.6 19.58-9.9 31.9-9.9s22.88 3.3 31.68 9.9c8.946 6.6 15.693 15.913 20.24 27.94 4.546 11.88 6.82 25.667 6.82 41.36 0 15.693-2.274 29.553-6.82 41.58-4.547 11.88-11.294 21.12-20.24 27.72-8.8 6.6-19.36 9.9-31.68 9.9zm0-26.4c9.386 0 16.72-4.473 22-13.42 5.426-8.947 8.14-22.073 8.14-39.38 0-17.307-2.714-30.433-8.14-39.38-5.28-8.947-12.614-13.42-22-13.42-9.387 0-16.794 4.473-22.22 13.42-5.28 8.947-7.92 22.073-7.92 39.38 0 17.307 2.64 30.433 7.92 39.38 5.426 8.947 12.833 13.42 22.22 13.42zM445.408 95c3.52 0 6.454 1.173 8.8 3.52 2.347 2.347 3.52 5.28 3.52 8.8 0 3.373-1.173 6.233-3.52 8.58-2.346 2.2-5.28 3.3-8.8 3.3h-9.24v28.38c0 3.813-1.32 7.04-3.96 9.68-2.493 2.493-5.646 3.74-9.46 3.74-3.666 0-6.746-1.247-9.24-3.74-2.493-2.64-3.74-5.867-3.74-9.68V119.2h-57.2c-3.226 0-6.233-1.247-9.02-3.74-2.786-2.64-4.18-5.72-4.18-9.24 0-3.227 1.1-6.16 3.3-8.8l69.52-85.14c2.787-3.52 6.454-5.28 11-5.28 3.667 0 6.747 1.32 9.24 3.96 2.494 2.493 3.74 5.647 3.74 9.46V95h9.24zm-35.64 0V51l-35.64 44h35.64z" fill="#fff"/></g><defs><filter id="filter0_di" x=".47" y=".8" width="469.258" height="174.4" filterUnits="userSpaceOnUse" color-interpolation-filters="sRGB"><feFlood flood-opacity="0" result="BackgroundImageFix"/><feColorMatrix in="SourceAlpha" values="0 0 0 0 0 0 0 0 0 0 0 0 0 0 0 0 0 0 127 0"/><feOffset dx="4" dy="4"/><feGaussianBlur stdDeviation="4"/><feColorMatrix values="0 0 0 0 0 0 0 0 0 0 0 0 0 0 0 0 0 0 0.1 0"/><feBlend in2="BackgroundImageFix" result="effect1_dropShadow"/><feBlend in="SourceGraphic" in2="effect1_dropShadow" result="shape"/><feColorMatrix in="SourceAlpha" values="0 0 0 0 0 0 0 0 0 0 0 0 0 0 0 0 0 0 127 0" result="hardAlpha"/><feOffset dx="-3" dy="-3"/><feGaussianBlur stdDeviation="3"/><feComposite in2="hardAlpha" operator="arithmetic" k2="-1" k3="1"/><feColorMatrix values="0 0 0 0 0 0 0 0 0 0 0 0 0 0 0 0 0 0 0.1 0"/><feBlend in2="shape" result="effect2_innerShadow"/></filter></defs></svg>