<svg width="20" height="18" viewBox="0 0 20 18" fill="none" xmlns="http://www.w3.org/2000/svg">
<path d="M12.0675 9.58899C11.4028 8.84608 10.479 8.43063 9.29621 8.34266C10.3519 8.05673 11.1144 7.63884 11.5983 7.07433C12.0821 6.50981 12.3167 5.76934 12.3167 4.82359C12.3288 4.13074 12.1622 3.44647 11.8329 2.83678C11.4997 2.26008 11.0122 1.78781 10.4252 1.47314C9.89005 1.17988 9.25222 0.967275 8.50442 0.842641C7.75662 0.718007 6.44429 0.666687 4.56746 0.666687H0V17.3236H4.70676C6.59825 17.3236 7.96189 17.2601 8.79767 17.133C9.63345 17.001 10.3299 16.7811 10.8945 16.4805C11.5736 16.1287 12.1326 15.5825 12.5 14.9116C12.8739 14.2371 13.0645 13.4526 13.0645 12.5582C13.0645 11.3192 12.7346 10.3295 12.0675 9.58899ZM4.22288 4.35438H5.19796C6.32699 4.35438 7.08457 4.48146 7.47069 4.73561C7.85925 4.99221 8.04987 5.43209 8.04987 6.05526C8.04987 6.67843 7.83726 7.08166 7.4267 7.33092C7.01614 7.58019 6.24635 7.69749 5.12464 7.69749H4.22288V4.35438ZM8.09386 13.9072C7.64664 14.1784 6.88418 14.3104 5.81379 14.3104H4.22288V10.6814H5.87978C6.97949 10.6814 7.74195 10.8207 8.14518 11.0993C8.5484 11.3779 8.76102 11.8617 8.76102 12.5655C8.76102 13.2694 8.54107 13.6433 8.08653 13.9145L8.09386 13.9072Z" fill="url(#paint0_linear)"/>
<path d="M17.8891 13.108C17.4714 13.108 17.0631 13.2319 16.7159 13.4639C16.3686 13.696 16.0979 14.0258 15.9381 14.4116C15.7783 14.7975 15.7364 15.2221 15.8179 15.6318C15.8994 16.0414 16.1005 16.4177 16.3959 16.713C16.6912 17.0083 17.0675 17.2095 17.4771 17.2909C17.8868 17.3724 18.3114 17.3306 18.6972 17.1708C19.0831 17.0109 19.4129 16.7403 19.645 16.393C19.877 16.0457 20.0008 15.6374 20.0008 15.2198C20.0008 14.6597 19.7784 14.1226 19.3823 13.7265C18.9863 13.3305 18.4492 13.108 17.8891 13.108Z" fill="url(#paint1_linear)"/>
<path d="M19.7214 0.666687H16.0557V11.7752H19.7214V0.666687Z" fill="url(#paint2_linear)"/>
<defs>
<linearGradient id="paint0_linear" x1="0" y1="0.666687" x2="13.539" y2="1.06174" gradientUnits="userSpaceOnUse">
<stop stop-color="#C8BDE7"/>
<stop offset="1" stop-color="#EBB0CC"/>
</linearGradient>
<linearGradient id="paint1_linear" x1="15.7773" y1="13.108" x2="20.1519" y2="13.2708" gradientUnits="userSpaceOnUse">
<stop stop-color="#C8BDE7"/>
<stop offset="1" stop-color="#EBB0CC"/>
</linearGradient>
<linearGradient id="paint2_linear" x1="16.0557" y1="0.666687" x2="19.8572" y2="0.713355" gradientUnits="userSpaceOnUse">
<stop stop-color="#C8BDE7"/>
<stop offset="1" stop-color="#EBB0CC"/>
</linearGradient>
</defs>
</svg>
