<svg width="20" height="20" viewBox="0 0 20 20" fill="none" xmlns="http://www.w3.org/2000/svg">
<path d="M16.1375 8.21919C16.4283 8.21919 16.6625 8.45669 16.6625 8.74502C16.6625 9.03252 16.4283 9.27002 16.1375 9.27002H14.675V10.2075H16.1375C16.4283 10.2075 16.6625 10.4434 16.6625 10.7325C16.6625 11.0192 16.4283 11.2567 16.1375 11.2567H14.1492C13.8617 11.2567 13.6267 11.0192 13.6267 10.7325V6.75668C13.6267 6.46918 13.8617 6.23169 14.1517 6.23169H16.14C16.4283 6.23169 16.6625 6.46918 16.6625 6.75668C16.6625 7.04752 16.4283 7.28169 16.1375 7.28169H14.675V8.21919H16.1375ZM12.925 10.7325C12.925 10.9575 12.78 11.1575 12.565 11.2292C12.5117 11.2467 12.4542 11.255 12.3992 11.255C12.2233 11.255 12.0733 11.18 11.9742 11.0467L9.93833 8.28252V10.7325C9.93833 11.0192 9.70583 11.2567 9.4125 11.2567C9.12417 11.2567 8.89083 11.0192 8.89083 10.7325V6.75668C8.89083 6.53168 9.035 6.33169 9.24917 6.26085C9.29917 6.24168 9.3625 6.23335 9.41083 6.23335C9.57333 6.23335 9.72333 6.32002 9.82333 6.44502L11.875 9.22002V6.75668C11.875 6.46918 12.11 6.23169 12.4 6.23169C12.6875 6.23169 12.925 6.46918 12.925 6.75668V10.7325ZM8.14083 10.7325C8.14083 11.0192 7.90583 11.2567 7.615 11.2567C7.3275 11.2567 7.0925 11.0192 7.0925 10.7325V6.75668C7.0925 6.46918 7.3275 6.23169 7.6175 6.23169C7.90583 6.23169 8.14083 6.46918 8.14083 6.75668V10.7325ZM6.08583 11.2567H4.0975C3.81 11.2567 3.5725 11.0192 3.5725 10.7325V6.75668C3.5725 6.46918 3.81 6.23169 4.0975 6.23169C4.3875 6.23169 4.6225 6.46918 4.6225 6.75668V10.2075H6.08583C6.37583 10.2075 6.61 10.4434 6.61 10.7325C6.61 11.0192 6.375 11.2567 6.08583 11.2567ZM20 8.59502C20 4.11919 15.5125 0.476685 10 0.476685C4.4875 0.476685 0 4.11919 0 8.59502C0 12.6042 3.55833 15.9634 8.3625 16.6017C8.68833 16.67 9.13167 16.8167 9.24417 17.0934C9.34417 17.3442 9.31 17.7317 9.27583 17.9934L9.13917 18.8434C9.10167 19.0942 8.93917 19.8317 10.0133 19.3809C11.0892 18.9317 15.7767 15.9825 17.8767 13.5684C19.3133 11.9942 20 10.3817 20 8.59502Z" fill="url(#paint0_linear)"/>
<defs>
<linearGradient id="paint0_linear" x1="0" y1="0.476685" x2="20.7124" y2="1.28578" gradientUnits="userSpaceOnUse">
<stop stop-color="#C8BDE7"/>
<stop offset="1" stop-color="#EBB0CC"/>
</linearGradient>
</defs>
</svg>
