<svg width="20" height="18" viewBox="0 0 20 18" fill="none" xmlns="http://www.w3.org/2000/svg">
<path d="M15.6775 7.54915L10.9725 12.065C10.7058 12.3191 10.3642 12.4466 10.0217 12.4466C9.68 12.4466 9.3375 12.3191 9.07083 12.065L4.36583 7.54915C3.81833 7.02582 3.80167 6.15665 4.325 5.61082C4.85 5.06331 5.7175 5.04498 6.2625 5.56915L10.0217 9.17081L13.7858 5.56915C14.3358 5.04331 15.2 5.06331 15.7242 5.60998C16.25 6.14748 16.2367 7.02248 15.6867 7.54832L15.6775 7.54915ZM19.9133 1.26081C19.6642 0.545815 18.9758 0.0641479 18.2125 0.0641479H1.81583C1.06583 0.0641479 0.385 0.534148 0.118333 1.23498C0.04 1.44331 0 1.66081 0 1.87998V7.91748L0.07 9.11831C0.36 11.8491 1.77583 14.2366 3.97167 15.9008C4.00917 15.9308 4.05 15.9591 4.09083 15.9883L4.11583 16.0075C5.29167 16.8658 6.60667 17.4475 8.0275 17.7341C8.6825 17.8658 9.35333 17.9341 10.0183 17.9341C10.6342 17.9341 11.2525 17.8783 11.8592 17.7641C11.9325 17.74 12.0058 17.7266 12.0792 17.7141C12.0983 17.7141 12.12 17.7016 12.1408 17.69C13.5017 17.39 14.7642 16.8266 15.8975 16.0025L15.9217 15.9766L16.0342 15.8891C18.2233 14.2266 19.6375 11.8375 19.9392 9.09915L20 7.89832V1.87081C20 1.66165 19.9742 1.45415 19.8992 1.25248L19.9133 1.26081Z" fill="url(#paint0_linear)"/>
<defs>
<linearGradient id="paint0_linear" x1="0" y1="0.0641479" x2="20.7081" y2="0.926357" gradientUnits="userSpaceOnUse">
<stop stop-color="#C8BDE7"/>
<stop offset="1" stop-color="#EBB0CC"/>
</linearGradient>
</defs>
</svg>
