<svg width="71" height="76" viewBox="0 0 71 76" fill="none" xmlns="http://www.w3.org/2000/svg"><g filter="url(#filter0_dii)"><path d="M56.45 3.225c1.44 0 2.61.48 3.51 1.44.9.96 1.35 2.16 1.35 3.6v52.47c0 1.56-.54 2.88-1.62 3.96-1.02 1.02-2.31 1.53-3.87 1.53-.84 0-1.68-.12-2.52-.36-.78-.3-1.35-.69-1.71-1.17l-33.03-41.94v38.43c0 1.44-.48 2.64-1.44 3.6-.9.96-2.1 1.44-3.6 1.44-1.44 0-2.61-.48-3.51-1.44-.9-.96-1.35-2.16-1.35-3.6V8.715c0-1.56.51-2.85 1.53-3.87 1.08-1.08 2.4-1.62 3.96-1.62.9 0 1.77.18 2.61.54.9.36 1.56.84 1.98 1.44l32.76 41.76v-38.7c0-1.44.45-2.64 1.35-3.6.96-.96 2.16-1.44 3.6-1.44z" fill="url(#paint0_linear)"/></g><defs><linearGradient id="paint0_linear" x1="24.5" y1="20.225" x2="46.259" y2="20.919" gradientUnits="userSpaceOnUse"><stop stop-color="#C8BDE7"/><stop offset="1" stop-color="#EBB0CC"/></linearGradient><filter id="filter0_dii" x="5.659" y=".225" width="64.65" height="75" filterUnits="userSpaceOnUse" color-interpolation-filters="sRGB"><feFlood flood-opacity="0" result="BackgroundImageFix"/><feColorMatrix in="SourceAlpha" values="0 0 0 0 0 0 0 0 0 0 0 0 0 0 0 0 0 0 127 0"/><feOffset dx="3" dy="3"/><feGaussianBlur stdDeviation="3"/><feColorMatrix values="0 0 0 0 0 0 0 0 0 0 0 0 0 0 0 0 0 0 0.2 0"/><feBlend in2="BackgroundImageFix" result="effect1_dropShadow"/><feBlend in="SourceGraphic" in2="effect1_dropShadow" result="shape"/><feColorMatrix in="SourceAlpha" values="0 0 0 0 0 0 0 0 0 0 0 0 0 0 0 0 0 0 127 0" result="hardAlpha"/><feOffset dx="2" dy="2"/><feGaussianBlur stdDeviation="2"/><feComposite in2="hardAlpha" operator="arithmetic" k2="-1" k3="1"/><feColorMatrix values="0 0 0 0 1 0 0 0 0 1 0 0 0 0 1 0 0 0 0.4 0"/><feBlend in2="shape" result="effect2_innerShadow"/><feColorMatrix in="SourceAlpha" values="0 0 0 0 0 0 0 0 0 0 0 0 0 0 0 0 0 0 127 0" result="hardAlpha"/><feOffset dx="-3" dy="-3"/><feGaussianBlur stdDeviation="3"/><feComposite in2="hardAlpha" operator="arithmetic" k2="-1" k3="1"/><feColorMatrix values="0 0 0 0 0 0 0 0 0 0 0 0 0 0 0 0 0 0 0.17 0"/><feBlend in2="effect2_innerShadow" result="effect3_innerShadow"/></filter></defs></svg>