<svg xmlns="http://www.w3.org/2000/svg" width="23" height="25" viewBox="0 0 23 25" class="header-logo__text"><g filter="url(#filter0_di)"><path d="M17.65 1c.48 0 .87.16 1.17.48.3.32.45.72.45 1.2v17.49c0 .52-.18.96-.54 1.32-.34.34-.77.51-1.29.51-.28 0-.56-.04-.84-.12-.26-.1-.45-.23-.57-.39L5.02 7.51v12.81c0 .48-.16.88-.48 1.2-.3.32-.7.48-1.2.48-.48 0-.87-.16-1.17-.48-.3-.32-.45-.72-.45-1.2V2.83c0-.52.17-.95.51-1.29.36-.36.8-.54 1.32-.54.3 0 .59.06.87.18.3.12.52.28.66.48L16 15.58V2.68c0-.48.15-.88.45-1.2.32-.32.72-.48 1.2-.48z" fill="#fff"/></g><defs><filter id="filter0_di" x=".72" y="0" width="21.55" height="25" filterUnits="userSpaceOnUse" color-interpolation-filters="sRGB"><feFlood flood-opacity="0" result="BackgroundImageFix"/><feColorMatrix in="SourceAlpha" values="0 0 0 0 0 0 0 0 0 0 0 0 0 0 0 0 0 0 127 0"/><feOffset dx="1" dy="1"/><feGaussianBlur stdDeviation="1"/><feColorMatrix values="0 0 0 0 0 0 0 0 0 0 0 0 0 0 0 0 0 0 0.15 0"/><feBlend in2="BackgroundImageFix" result="effect1_dropShadow"/><feBlend in="SourceGraphic" in2="effect1_dropShadow" result="shape"/><feColorMatrix in="SourceAlpha" values="0 0 0 0 0 0 0 0 0 0 0 0 0 0 0 0 0 0 127 0" result="hardAlpha"/><feOffset dx="-1" dy="-1"/><feGaussianBlur stdDeviation="1"/><feComposite in2="hardAlpha" operator="arithmetic" k2="-1" k3="1"/><feColorMatrix values="0 0 0 0 0 0 0 0 0 0 0 0 0 0 0 0 0 0 0.2 0"/><feBlend in2="shape" result="effect2_innerShadow"/></filter></defs></svg>