<svg width="22" height="22" viewBox="0 0 22 22" fill="none" xmlns="http://www.w3.org/2000/svg">
<mask id="mask0" mask-type="alpha" maskUnits="userSpaceOnUse" x="0" y="0" width="22" height="22">
<path fill-rule="evenodd" clip-rule="evenodd" d="M21.5 1.12896C21.5 0.781274 21.2177 0.498962 20.87 0.498962H1.13C0.782311 0.498962 0.5 0.781274 0.5 1.12896V20.869C0.5 21.2167 0.782311 21.499 1.13 21.499H20.87C21.2177 21.499 21.5 21.2167 21.5 20.869V1.12896Z" fill="black"/>
</mask>
<g mask="url(#mask0)">
<path fill-rule="evenodd" clip-rule="evenodd" d="M21.5 1.12908C21.5 0.781397 21.2177 0.499084 20.87 0.499084H1.13C0.782311 0.499084 0.5 0.781397 0.5 1.12908V20.8691C0.5 21.2168 0.782311 21.4991 1.13 21.4991H20.87C21.2177 21.4991 21.5 21.2168 21.5 20.8691V1.12908Z" fill="#7E4DD2"/>
<path fill-rule="evenodd" clip-rule="evenodd" d="M21.5 1.12908C21.5 0.781397 21.2177 0.499084 20.87 0.499084H9.11L0.5 15.412V20.8691C0.5 21.2168 0.782311 21.4991 1.13 21.4991H20.87C21.2177 21.4991 21.5 21.2168 21.5 20.8691V1.12908Z" fill="#7140C2"/>
<path d="M21.7627 21.7697L14.0423 21.7714L9.58166 14.0456H21.7741C21.7711 16.6189 21.7656 19.1964 21.7627 21.7697ZM13.7243 21.7712H1.54831L7.63977 11.2324L13.7243 21.7712ZM1.23709 21.7712H0.231423L0.228027 16.2492L4.90962 8.13806H9.10962C6.48608 12.6821 3.86064 17.2272 1.23709 21.7712V21.7712ZM11.9097 8.13927C12.3135 8.14431 12.6987 8.36576 12.906 8.71447C13.2277 9.26628 13.5448 9.82072 13.8642 10.3739C14.0582 10.7138 14.0727 11.1506 13.8826 11.5065C13.8781 11.5151 13.8734 11.5236 13.8686 11.5321C13.5517 12.0867 13.23 12.6384 12.9106 13.1915C12.7119 13.5326 12.3356 13.7576 11.9389 13.7708C11.9292 13.7711 11.9099 13.7708 11.9099 13.7708H10.0983C9.70223 13.7691 9.31831 13.5615 9.10855 13.2245C9.10327 13.2162 9.09827 13.2078 9.09323 13.1994C8.77168 12.6476 8.45459 12.0932 8.13518 11.5401C7.93925 11.1972 7.92979 10.7573 8.11651 10.4073C8.12112 10.3988 8.12597 10.3902 8.13057 10.3818C8.44746 9.82717 8.7694 9.2755 9.08857 8.72237C9.28703 8.38205 9.66377 8.15309 10.0602 8.1399C10.0701 8.13956 10.0798 8.13941 10.0894 8.13927C10.6964 8.1367 11.303 8.1367 11.9097 8.13927ZM21.7713 0.228088V13.7708H12.894L20.713 0.228088H21.7713ZM14.3596 10.6817L8.90103 1.22716L9.47792 0.228088H20.395L14.3596 10.6817ZM12.4171 7.8652L5.06918 7.86404L8.7421 1.50235C9.9664 3.62291 11.1927 5.74469 12.4171 7.8652Z" fill="#58328A"/>
<path fill-rule="evenodd" clip-rule="evenodd" d="M1.08016 21.4991H0.502662L0.499512 16.3214L5.06701 8.41023H8.63701L1.08016 21.4991ZM21.4997 14.3171V21.4991L14.1989 21.4991L10.0524 14.3171H21.4997ZM13.2539 21.4991H2.01886L7.63951 11.7747L13.2539 21.4991ZM21.4997 13.4981H13.3645L20.8695 0.499084H21.4995L21.4997 13.4981ZM11.9019 8.39544C12.2129 8.39674 12.5105 8.57953 12.6713 8.85041C12.673 8.85316 12.6762 8.85868 12.6762 8.85868L13.6201 10.4938C13.6201 10.4938 13.6256 10.503 13.6281 10.5074C13.7824 10.7773 13.7883 11.1174 13.6342 11.3922C13.3177 11.9459 12.9964 12.4969 12.6776 13.0492C12.521 13.3178 12.2244 13.493 11.9094 13.497C11.3082 13.4995 10.1028 13.4981 10.1011 13.4981C9.79012 13.4968 9.48772 13.3309 9.32686 13.06C9.32329 13.0541 9.31636 13.0422 9.31636 13.0422C9.31636 13.0422 8.3722 11.4068 8.3701 11.403C8.21575 11.1331 8.21596 10.7844 8.3701 10.5096L8.37703 10.4975C8.37703 10.4975 9.00892 9.4009 9.32539 8.85261C9.48205 8.584 9.77899 8.3992 10.094 8.39525C10.0992 8.39523 10.1097 8.395 10.1097 8.395L11.8912 8.39544H11.9019ZM9.63451 0.499084H19.9245L14.3595 10.138L9.21451 1.22655L9.63451 0.499084ZM11.9445 7.59183H5.53951L8.74201 2.04494L11.9445 7.59183Z" fill="url(#paint0_radial)"/>
<path fill-rule="evenodd" clip-rule="evenodd" d="M0.576766 22.3689L0.00976562 22.3508L0.0164871 17.1559L5.06636 8.40913H8.63636L0.576766 22.3689ZM13.7257 22.3164L1.58372 22.2498L7.63886 11.7736L13.7257 22.3164ZM21.9459 22.2851L14.6241 22.2355L10.0518 14.316H21.9737L21.9459 22.2851ZM5.21189 8.66113L0.268277 17.2236L0.261976 22.1068L0.433967 22.1123L8.19998 8.66113H5.21189ZM2.01905 22.0003L13.2879 22.0621L7.63886 12.2774L2.01905 22.0003ZM10.4881 14.568L14.7702 21.9846L21.6948 22.0314L21.7206 14.568H10.4881ZM11.8905 8.39434H11.9012L11.905 8.39436L11.9086 8.39441L11.9121 8.39447L11.9159 8.39453L11.9195 8.39464L11.9231 8.39474L11.9266 8.39487L11.9304 8.39499L11.934 8.39516L11.9376 8.39533L11.9413 8.39552L11.9449 8.39571L11.9485 8.39594L11.952 8.39617L11.9558 8.39642L11.9594 8.3967L11.963 8.39699L11.9665 8.39728L11.9703 8.3976L11.9739 8.39793L11.9775 8.39827L11.981 8.39865L11.9846 8.39903L11.9884 8.39943L11.9919 8.39982L11.9955 8.40027L11.9991 8.40071L12.0027 8.40117L12.0062 8.40163L12.0098 8.40213L12.0134 8.40264L12.0169 8.40316L12.0241 8.40425L12.0312 8.40541L12.0384 8.40661L12.0455 8.40789L12.0526 8.40923L12.0598 8.41062L12.0669 8.41209L12.0738 8.4136L12.081 8.41518L12.0881 8.41681L12.0951 8.41851L12.1022 8.42028L12.1091 8.42208L12.1161 8.42397L12.123 8.42591L12.1301 8.42788L12.1371 8.42994L12.144 8.43204L12.1509 8.4342L12.1576 8.43643L12.1646 8.43872L12.1715 8.44105L12.1782 8.44344L12.1851 8.44588L12.1919 8.44838L12.1986 8.45094L12.2055 8.45356L12.2122 8.45623L12.219 8.45896L12.2257 8.46173L12.2322 8.46457L12.2389 8.46744L12.2456 8.47038L12.2521 8.47339L12.2589 8.47643L12.2654 8.47952L12.2719 8.48267L12.2784 8.48588L12.2849 8.48914L12.2914 8.49243L12.2979 8.49579L12.3042 8.49922L12.3107 8.50268L12.317 8.50619L12.3233 8.50974L12.3296 8.51335L12.3359 8.51702L12.3422 8.52074L12.3485 8.5245L12.3546 8.5283L12.3609 8.53217L12.367 8.53607L12.3731 8.54002L12.3792 8.54403L12.3853 8.54808L12.3914 8.55218L12.3972 8.55634L12.4033 8.56052L12.4092 8.56476L12.4151 8.56906L12.421 8.57339L12.4269 8.57776L12.4327 8.58219L12.4384 8.58666L12.4443 8.59118L12.45 8.59573L12.4556 8.60033L12.4613 8.60499L12.467 8.60968L12.4724 8.61442L12.4781 8.61919L12.4836 8.62402L12.489 8.62889L12.4945 8.63379L12.4999 8.63874L12.5052 8.64374L12.5106 8.64878L12.5159 8.65384L12.5211 8.65896L12.5264 8.66413L12.5314 8.66932L12.5367 8.67457L12.5417 8.67986L12.5468 8.68517L12.5518 8.69053L12.5566 8.69592L12.5617 8.70136L12.5665 8.70684L12.5713 8.71237L12.5762 8.71791L12.581 8.72352L12.5858 8.72915L12.5904 8.73482L12.5951 8.74053L12.5997 8.74626L12.6041 8.75204L12.6087 8.75785L12.6131 8.76371L12.6175 8.76959L12.6219 8.77554L12.6264 8.78148L12.6306 8.78748L12.6348 8.79351L12.639 8.79958L12.6432 8.80567L12.6471 8.8118L12.6511 8.81798L12.6551 8.82417L12.6591 8.83041L12.6631 8.83669L12.6669 8.84299L12.6707 8.84931L12.6755 8.85758L13.6194 10.4927L13.6274 10.5063L13.631 10.5126L13.6346 10.519L13.6379 10.5254L13.6413 10.5318L13.6449 10.5382L13.648 10.5447L13.6514 10.5512L13.6545 10.5577L13.6577 10.5642L13.6608 10.5708L13.6638 10.5773L13.6669 10.5839L13.6698 10.5905L13.6726 10.5972L13.6755 10.6038L13.6782 10.6105L13.681 10.6172L13.6837 10.6239L13.6862 10.6307L13.6887 10.6374L13.6913 10.6442L13.6938 10.651L13.6961 10.6578L13.6984 10.6646L13.7007 10.6715L13.703 10.6783L13.7051 10.6852L13.7072 10.6921L13.7093 10.699L13.7112 10.7059L13.7133 10.7128L13.7152 10.7198L13.7169 10.7267L13.7188 10.7337L13.7205 10.7407L13.7221 10.7477L13.7238 10.7547L13.7253 10.7617L13.7268 10.7687L13.7282 10.7757L13.7297 10.7828L13.731 10.7899L13.7322 10.7969L13.7335 10.804L13.7345 10.8111L13.7358 10.8182L13.7368 10.8253L13.7377 10.8324L13.7387 10.8395L13.7396 10.8466L13.7404 10.8538L13.7412 10.8609L13.7419 10.868L13.7425 10.8752L13.7431 10.8823L13.7438 10.8895L13.7442 10.8967L13.7446 10.9038L13.745 10.911L13.7454 10.9182L13.7457 10.9253L13.7459 10.9325L13.7461 10.9397V10.9684L13.7459 10.9756V10.9827L13.7454 10.9899L13.7452 10.9971L13.7448 11.0043L13.7444 11.0114L13.744 11.0186L13.7436 11.0258L13.7429 11.0329L13.7423 11.0401L13.7417 11.0473L13.7408 11.0544L13.74 11.0616L13.7391 11.0687L13.7383 11.0758L13.7373 11.083L13.7362 11.0901L13.7352 11.0972L13.7339 11.1043L13.7328 11.1114L13.7316 11.1185L13.7301 11.1256L13.7289 11.1326L13.7274 11.1397L13.7259 11.1468L13.7242 11.1538L13.7228 11.1608L13.7211 11.1679L13.7194 11.1749L13.7175 11.1819L13.7156 11.1889L13.7137 11.1958L13.7118 11.2028L13.7097 11.2098L13.7079 11.2167L13.7055 11.2236L13.7034 11.2305L13.7011 11.2374L13.6988 11.2443L13.6965 11.2512L13.6942 11.258L13.6917 11.2649L13.6892 11.2717L13.6864 11.2785L13.6839 11.2853L13.6812 11.292L13.6785 11.2988L13.6755 11.3055L13.6728 11.3122L13.6696 11.3189L13.6667 11.3256L13.6638 11.3322L13.6606 11.3389L13.6575 11.3455L13.6541 11.3521L13.6509 11.3586L13.6476 11.3652L13.644 11.3717L13.6407 11.3782L13.6371 11.3847L13.6335 11.3911L13.6039 11.443L13.5741 11.4949L13.5445 11.5468L13.5147 11.5986L13.4848 11.6505L13.455 11.7023L13.4252 11.7541L13.3954 11.8059L13.3656 11.8577L13.3357 11.9095L13.2759 12.0131L13.216 12.1166L13.1562 12.2201L13.0961 12.3236L13.0363 12.4271L12.9164 12.634L12.8565 12.7375L12.7967 12.841L12.7368 12.9445L12.677 13.0481L12.6732 13.0544L12.6694 13.0606L12.6656 13.0668L12.6618 13.073L12.6581 13.0791L12.6541 13.0852L12.6501 13.0913L12.6459 13.0973L12.6419 13.1033L12.6377 13.1093L12.6335 13.1152L12.6293 13.1211L12.6251 13.127L12.6207 13.1328L12.6163 13.1386L12.6119 13.1443L12.6075 13.15L12.6028 13.1557L12.5984 13.1613L12.5938 13.1669L12.5892 13.1724L12.5844 13.1779L12.5797 13.1834L12.5749 13.1888L12.5701 13.1942L12.5652 13.1996L12.5604 13.2049L12.5554 13.2101L12.5503 13.2154L12.5453 13.2206L12.5403 13.2257L12.5352 13.2308L12.53 13.2359L12.5247 13.2409L12.5197 13.2459L12.5142 13.2508L12.509 13.2557L12.5037 13.2606L12.4983 13.2654L12.4928 13.2702L12.4873 13.2749L12.4819 13.2796L12.4764 13.2842L12.4707 13.2888L12.4653 13.2934L12.4596 13.2979L12.4539 13.3024L12.4481 13.3068L12.4424 13.3112L12.4365 13.3155L12.4308 13.3198L12.425 13.324L12.4191 13.3282L12.4132 13.3323L12.4073 13.3364L12.4012 13.3405L12.3951 13.3445L12.3893 13.3485L12.3832 13.3524L12.3771 13.3562L12.3708 13.3601L12.3647 13.3638L12.3586 13.3676L12.3523 13.3712L12.346 13.3749L12.3397 13.3784L12.3334 13.382L12.3271 13.3855L12.3208 13.3889L12.3143 13.3923L12.308 13.3956L12.3015 13.3989L12.295 13.4021L12.2885 13.4053L12.282 13.4084L12.2754 13.4115L12.2689 13.4145L12.2622 13.4175L12.2557 13.4204L12.249 13.4233L12.2423 13.4261L12.2355 13.4289L12.2288 13.4316L12.2221 13.4343L12.2154 13.4369L12.2087 13.4394L12.2019 13.4419L12.195 13.4444L12.1881 13.4468L12.1814 13.4491L12.1744 13.4514L12.1675 13.4536L12.1606 13.4558L12.1536 13.4579L12.1467 13.46L12.1398 13.462L12.1326 13.464L12.1257 13.4659L12.1186 13.4677L12.1116 13.4695L12.1045 13.4713L12.0974 13.4729L12.0904 13.4746L12.0833 13.4761L12.0762 13.4776L12.069 13.4791L12.0619 13.4805L12.0547 13.4818L12.0474 13.4831L12.0402 13.4843L12.0331 13.4854L12.0258 13.4865L12.0186 13.4876L12.0113 13.4885L12.0041 13.4895L11.9968 13.4903L11.9894 13.4911L11.9823 13.4919L11.9749 13.4925L11.9676 13.4932L11.9602 13.4937L11.9529 13.4942L11.9455 13.4946L11.9382 13.495L11.9308 13.4953L11.9235 13.4956L11.9161 13.4958L11.9088 13.4959L11.8506 13.4961L11.7893 13.4963L11.7252 13.4965L11.6585 13.4966L11.5896 13.4968L11.5188 13.4969L11.4464 13.497L11.3729 13.4971L11.2233 13.4973L11.0728 13.4973L10.9241 13.4974H10.7798L10.6425 13.4974L10.5148 13.4973L10.3995 13.4973L10.2991 13.4972L10.154 13.4971L10.1005 13.497L10.0931 13.4969L10.086 13.4968L10.0786 13.4966L10.0713 13.4964L10.0641 13.4961L10.0568 13.4957L10.0497 13.4953L10.0423 13.4948L10.0352 13.4943L10.0278 13.4937L10.0207 13.4931L10.0133 13.4923L10.0062 13.4916L9.99905 13.4908L9.9917 13.4899L9.98455 13.4889L9.97742 13.4879L9.97028 13.4869L9.96293 13.4858L9.95578 13.4846L9.94865 13.4833L9.94151 13.4821L9.93458 13.4807L9.92743 13.4793L9.9203 13.4779L9.91316 13.4763L9.90601 13.4748L9.89909 13.4732L9.89195 13.4715L9.88501 13.4697L9.87788 13.4679L9.87095 13.4661L9.86401 13.4642L9.85709 13.4623L9.85016 13.4602L9.84301 13.4582L9.83609 13.4561L9.82937 13.4539L9.82244 13.4517L9.81551 13.4494L9.80878 13.447L9.80186 13.4447L9.79493 13.4422L9.78821 13.4397L9.78149 13.4372L9.77477 13.4346L9.76805 13.4319L9.76133 13.4292L9.75461 13.4265L9.74789 13.4237L9.74137 13.4208L9.73466 13.4179L9.72815 13.415L9.72143 13.4119L9.71492 13.4089L9.70841 13.4058L9.7019 13.4026L9.69539 13.3994L9.68888 13.3961L9.68258 13.3928L9.67607 13.3894L9.66976 13.386L9.66347 13.3826L9.65717 13.3791L9.65087 13.3755L9.64457 13.3719L9.63826 13.3682L9.63197 13.3645L9.62588 13.3607L9.61978 13.3569L9.61349 13.3531L9.6074 13.3492L9.60151 13.3452L9.59543 13.3412L9.58934 13.3372L9.58346 13.3331L9.57758 13.3289L9.57149 13.3247L9.56582 13.3205L9.55993 13.3162L9.55405 13.3119L9.54839 13.3075L9.54251 13.3031L9.53684 13.2986L9.53117 13.2941L9.52549 13.2895L9.52003 13.2849L9.51437 13.2803L9.50891 13.2756L9.50345 13.2708L9.49799 13.266L9.49253 13.2612L9.48707 13.2563L9.48182 13.2514L9.47657 13.2465L9.47132 13.2415L9.46607 13.2364L9.46082 13.2313L9.45578 13.2262L9.45074 13.221L9.4457 13.2158L9.44066 13.2105L9.43562 13.2052L9.43078 13.1998L9.42575 13.1944L9.42092 13.189L9.41609 13.1835L9.41147 13.178L9.40664 13.1724L9.40201 13.1668L9.3974 13.1611L9.39278 13.1554L9.38837 13.1497L9.38375 13.1439L9.37934 13.1381L9.37493 13.1323L9.37072 13.1264L9.36632 13.1204L9.36212 13.1145L9.35791 13.1084L9.35372 13.1024L9.35162 13.0994L9.34972 13.0963L9.34763 13.0932L9.34553 13.0902L9.34364 13.0871L9.34153 13.084L9.33965 13.0809L9.33755 13.0778L9.33566 13.0747L9.33377 13.0715L9.33188 13.0684L9.32999 13.0652L9.32789 13.0621L9.32621 13.0589L9.31571 13.0411L8.36945 11.4019L8.36755 11.3988L8.36588 11.3956L8.3642 11.3924L8.3623 11.3892L8.36063 11.386L8.35895 11.3828L8.35538 11.3764L8.35201 11.37L8.34887 11.3635L8.34551 11.357L8.34236 11.3504L8.3392 11.3439L8.33605 11.3373L8.33312 11.3307L8.33018 11.3241L8.32724 11.3174L8.3243 11.3107L8.32157 11.304L8.31884 11.2973L8.31611 11.2906L8.31359 11.2838L8.31086 11.277L8.30834 11.2702L8.30603 11.2634L8.30351 11.2566L8.3012 11.2497L8.29889 11.2428L8.29678 11.2359L8.29447 11.229L8.29238 11.222L8.29028 11.2151L8.28839 11.2081L8.2865 11.2011L8.28461 11.1941L8.28272 11.1871L8.28083 11.1801L8.27915 11.173L8.27747 11.166L8.276 11.1589L8.27432 11.1518L8.27285 11.1447L8.27138 11.1376L8.27012 11.1305L8.26865 11.1233L8.26739 11.1162L8.26634 11.109L8.26508 11.1019L8.26403 11.0947L8.26297 11.0875L8.26193 11.0803L8.26109 11.0731L8.26025 11.0659L8.25941 11.0587L8.25857 11.0514L8.25794 11.0442L8.2571 11.037L8.25668 11.0297L8.25605 11.0225L8.25563 11.0152L8.25521 11.0079L8.25478 11.0007L8.25458 10.9934L8.25437 10.9861L8.25416 10.9789L8.25395 10.9716V10.9643L8.25374 10.9571L8.25395 10.9498V10.9425L8.25416 10.9352L8.25437 10.9279L8.25458 10.9206L8.25478 10.9134L8.25521 10.9061L8.25563 10.8988L8.25605 10.8916L8.25668 10.8843L8.2573 10.877L8.25794 10.8698L8.25857 10.8625L8.25941 10.8553L8.26025 10.848L8.26109 10.8408L8.26193 10.8335L8.26297 10.8263L8.26403 10.8191L8.26508 10.8119L8.26634 10.8047L8.2676 10.7975L8.26886 10.7903L8.27012 10.7831L8.27159 10.776L8.27285 10.7688L8.27453 10.7616L8.276 10.7545L8.27768 10.7474L8.27936 10.7403L8.28103 10.7332L8.28272 10.7261L8.28461 10.719L8.2865 10.7119L8.28839 10.7049L8.29049 10.6978L8.29259 10.6908L8.29469 10.6838L8.29678 10.6768L8.2991 10.6699L8.30141 10.6629L8.30372 10.656L8.30603 10.649L8.30855 10.6421L8.31107 10.6353L8.31359 10.6284L8.31632 10.6215L8.31905 10.6147L8.32178 10.6079L8.32451 10.6011L8.32724 10.5943L8.33018 10.5876L8.33312 10.5809L8.33626 10.5742L8.3392 10.5675L8.34236 10.5608L8.34551 10.5542L8.34887 10.5476L8.35223 10.541L8.35559 10.5345L8.35895 10.5279L8.3623 10.5214L8.36588 10.5149L8.36945 10.5085L8.37638 10.4964L8.48012 10.3165L8.5931 10.1205L8.73191 9.87955L8.88563 9.61289L9.04313 9.33983L9.19328 9.07962L9.26195 8.96033L9.32474 8.85151L9.32852 8.84523L9.3323 8.83898L9.33608 8.83276L9.33986 8.82659L9.34385 8.82043L9.34784 8.8143L9.35183 8.80821L9.35582 8.80216L9.3598 8.79614L9.36401 8.79013L9.36821 8.78419L9.37241 8.77824L9.37682 8.77236L9.38101 8.76651L9.38543 8.76069L9.38984 8.75489L9.39445 8.74916L9.39887 8.74343L9.40349 8.73776L9.40811 8.73211L9.41272 8.7265L9.41735 8.72093L9.42218 8.71539L9.4268 8.70989L9.43184 8.70443L9.43667 8.69901L9.44149 8.69363L9.44653 8.68828L9.45137 8.68297L9.45641 8.6777L9.46166 8.67247L9.4667 8.66728L9.47174 8.66214L9.47699 8.65701L9.48224 8.65195L9.48749 8.64691L9.49295 8.64193L9.4982 8.63698L9.50366 8.63206L9.50891 8.62721L9.51458 8.62238L9.52003 8.61759L9.52549 8.61285L9.53117 8.60816L9.53662 8.6035L9.5423 8.59888L9.54797 8.59433L9.55364 8.58979L9.55951 8.58532L9.56518 8.58089L9.57107 8.5765L9.57695 8.57215L9.58283 8.56785L9.58871 8.56358L9.59459 8.55938L9.60068 8.5552L9.60676 8.55109L9.61265 8.54701L9.61874 8.543L9.62483 8.53901L9.63113 8.53508L9.63722 8.5312L9.64351 8.52738L9.64961 8.52358L9.65591 8.51984L9.6622 8.51614L9.66851 8.51251L9.6748 8.50892L9.68132 8.50537L9.68762 8.50188L9.69413 8.49844L9.70043 8.49506L9.70693 8.49172L9.71345 8.48842L9.71995 8.48519L9.72647 8.482L9.73318 8.47887L9.7397 8.47578L9.74642 8.47276L9.75293 8.46978L9.75965 8.46686L9.76637 8.46398L9.77309 8.46117L9.7798 8.45839L9.78653 8.45568L9.79346 8.45302L9.80018 8.45041L9.80711 8.44787L9.81383 8.44539L9.82076 8.44296L9.82769 8.44056L9.83462 8.43823L9.84155 8.43596L9.84847 8.43376L9.85541 8.4316L9.86234 8.42952L9.86926 8.42746L9.87641 8.42549L9.88334 8.42355L9.89048 8.42169L9.89762 8.41988L9.90455 8.41814L9.91168 8.41644L9.91883 8.41482L9.92597 8.41324L9.93311 8.41173L9.94024 8.41028L9.94739 8.40888L9.95474 8.40755L9.96187 8.40627L9.96901 8.40507L9.97637 8.40392L9.97993 8.40337L9.98351 8.40285L9.98708 8.40232L9.99086 8.40182L9.99443 8.40134L9.99799 8.40085L10.0018 8.40039L10.0053 8.39995L10.0089 8.39953L10.0127 8.39911L10.0163 8.39873L10.0198 8.39835L10.0236 8.39798L10.0272 8.39764L10.0308 8.3973L10.0345 8.39699L10.0381 8.3967L10.0419 8.39642L10.0455 8.39615L10.0492 8.3959L10.0528 8.39567L10.0566 8.39544L10.0602 8.39525L10.0639 8.39506L10.0675 8.39489L10.0713 8.39474L10.0749 8.3946L10.0786 8.39447L10.0822 8.39436L10.086 8.39428L10.0896 8.39422L10.0933 8.39415L10.0982 8.39411L10.1032 8.39403L10.1091 8.3939L11.8905 8.39434ZM21.9323 13.497H13.3639L21.3015 -0.251293L21.9548 -0.291382L21.9323 13.497ZM10.108 8.64596L10.1015 8.64609L10.0965 8.64613L10.094 8.64618L10.0914 8.64622L10.0887 8.64628L10.0862 8.64636L10.0837 8.64645L10.0812 8.64653L10.0786 8.64664L10.0761 8.64676L10.0734 8.64689L10.0709 8.64704L10.0683 8.64718L10.0658 8.64735L10.0631 8.64752L10.0606 8.64771L10.0581 8.6479L10.0555 8.64811L10.053 8.64834L10.0505 8.64857L10.0478 8.6488L10.0452 8.64907L10.0427 8.64933L10.0402 8.6496L10.0377 8.64989L10.0352 8.65019L10.0326 8.6505L10.0301 8.65082L10.0274 8.65115L10.0249 8.65149L10.0224 8.65185L10.0198 8.6522L10.0173 8.65258L10.015 8.65294L10.0095 8.65378L10.0045 8.65464L9.99947 8.65554L9.99443 8.65646L9.98939 8.65745L9.98414 8.65848L9.9791 8.65955L9.97405 8.66067L9.96901 8.66182L9.96397 8.66304L9.95893 8.66428L9.9539 8.66556L9.94886 8.6669L9.94382 8.66827L9.93899 8.66969L9.93395 8.67114L9.92891 8.67266L9.92387 8.67419L9.91883 8.67579L9.91399 8.6774L9.90895 8.67908L9.90413 8.68078L9.89909 8.68255L9.89405 8.68433L9.88922 8.68618L9.88439 8.68805L9.87935 8.68998L9.87451 8.69193L9.86969 8.69393L9.86486 8.69597L9.86003 8.69804L9.85499 8.70019L9.85037 8.70233L9.84553 8.70453L9.8407 8.70676L9.83588 8.70905L9.83105 8.71138L9.82643 8.71373L9.8216 8.71613L9.81676 8.71856L9.81215 8.72104L9.80753 8.72354L9.80291 8.7261L9.79808 8.72868L9.79346 8.73131L9.78884 8.73398L9.78422 8.73666L9.7798 8.73942L9.77518 8.74219L9.77057 8.74498L9.76616 8.74784L9.76153 8.75073L9.75712 8.75363L9.75272 8.75657L9.7483 8.75957L9.7439 8.7626L9.73949 8.76567L9.73508 8.76873L9.73067 8.77186L9.72647 8.77503L9.72205 8.77822L9.71786 8.78144L9.71366 8.78469L9.70945 8.78799L9.70526 8.79131L9.70105 8.79467L9.69686 8.79807L9.69266 8.80147L9.68867 8.80491L9.68447 8.8084L9.68048 8.81193L9.67649 8.81548L9.67249 8.81903L9.66851 8.82262L9.66473 8.82625L9.66074 8.82993L9.65695 8.8336L9.65297 8.83732L9.64919 8.84108L9.64541 8.84484L9.64184 8.84866L9.63805 8.85248L9.63428 8.8563L9.6307 8.86021L9.62714 8.86411L9.62357 8.86806L9.62 8.87201L9.61643 8.87598L9.61286 8.88001L9.6095 8.88404L9.60614 8.8881L9.60257 8.89221L9.59941 8.89631L9.59605 8.9004L9.5927 8.90458L9.58955 8.90876L9.58619 8.91294L9.58303 8.91716L9.57989 8.92144L9.57695 8.92571L9.5738 8.92995L9.57086 8.93425L9.56771 8.9386L9.56476 8.94295L9.56183 8.94732L9.5591 8.9517L9.55616 8.95611L9.55343 8.96052L9.5507 8.96498L9.54797 8.96945L9.54524 8.97392L9.54251 8.9784L9.48035 9.08629L9.41147 9.20553L9.26132 9.46572L9.10403 9.73876L8.9503 10.0054L8.81149 10.2463L8.69851 10.4423L8.59499 10.6218L8.58911 10.6322L8.5868 10.6363L8.58428 10.641L8.58176 10.6456L8.57945 10.6502L8.57693 10.6549L8.57462 10.6596L8.5723 10.6644L8.56999 10.6691L8.56769 10.6739L8.56559 10.6787L8.56328 10.6835L8.56118 10.6883L8.55908 10.6932L8.55719 10.698L8.55509 10.7029L8.5532 10.7078L8.5511 10.7127L8.5492 10.7177L8.54753 10.7226L8.54564 10.7275L8.54395 10.7326L8.54207 10.7376L8.54039 10.7426L8.5387 10.7476L8.53724 10.7526L8.53555 10.7577L8.53409 10.7628L8.53262 10.7679L8.53115 10.773L8.52968 10.7781L8.5282 10.7833L8.52695 10.7884L8.52569 10.7936L8.52443 10.7987L8.52317 10.8039L8.52212 10.8091L8.52086 10.8143L8.5198 10.8195L8.51876 10.8247L8.5177 10.8299L8.51687 10.8352L8.51582 10.8404L8.51497 10.8457L8.51414 10.8509L8.5133 10.8562L8.51245 10.8615L8.51183 10.8668L8.5112 10.8721L8.51057 10.8774L8.50994 10.8827L8.50931 10.8879L8.50889 10.8933L8.50826 10.8986L8.50784 10.9039L8.50741 10.9092L8.50721 10.9145L8.50678 10.9198L8.50658 10.9252L8.50637 10.9305L8.50616 10.9358L8.50595 10.9412V10.9518L8.50574 10.9571L8.50595 10.9624V10.9731L8.50616 10.9784L8.50637 10.9837L8.50658 10.989L8.50678 10.9943L8.50721 10.9996L8.50741 11.0049L8.50784 11.0102L8.50826 11.0155L8.50868 11.0208L8.50931 11.026L8.50994 11.0313L8.51036 11.0365L8.51099 11.0418L8.51183 11.0471L8.51245 11.0523L8.5133 11.0575L8.51393 11.0627L8.51476 11.0679L8.51582 11.0731L8.51666 11.0782L8.5177 11.0835L8.51855 11.0886L8.5196 11.0937L8.52065 11.0989L8.52191 11.104L8.52295 11.1091L8.52422 11.1142L8.52547 11.1193L8.52674 11.1244L8.528 11.1294L8.52947 11.1344L8.53072 11.1395L8.5322 11.1445L8.53367 11.1495L8.53535 11.1544L8.53682 11.1594L8.5385 11.1643L8.53997 11.1692L8.54165 11.1741L8.54353 11.179L8.54522 11.1839L8.5469 11.1888L8.54878 11.1936L8.55068 11.1984L8.55257 11.2032L8.55445 11.2079L8.55655 11.2127L8.55845 11.2174L8.56055 11.2221L8.56264 11.2268L8.56474 11.2315L8.56705 11.2361L8.56916 11.2407L8.57147 11.2453L8.57378 11.2499L8.57609 11.2544L8.57839 11.259L8.58092 11.2637L8.58197 11.2657L8.58323 11.2679L8.58449 11.2702L8.58574 11.2724L8.58701 11.2746L8.58805 11.2766L9.53368 12.9146L9.54314 12.9309L9.54397 12.9324L9.54545 12.9346L9.54671 12.9369L9.54818 12.939L9.54943 12.9412L9.55091 12.9435L9.55238 12.9457L9.55364 12.9479L9.55511 12.95L9.55637 12.9522L9.55784 12.9543L9.5593 12.9565L9.56078 12.9587L9.56203 12.9606L9.56518 12.9651L9.56813 12.9693L9.57107 12.9736L9.57422 12.9778L9.57716 12.9819L9.5803 12.9861L9.58346 12.9902L9.58661 12.9943L9.58997 12.9984L9.59312 13.0024L9.59647 13.0064L9.59984 13.0104L9.60299 13.0144L9.60655 13.0183L9.60991 13.0222L9.61328 13.0261L9.61685 13.0299L9.62041 13.0337L9.62399 13.0376L9.62755 13.0413L9.63113 13.0451L9.6347 13.0488L9.63847 13.0525L9.64205 13.0561L9.64583 13.0597L9.64961 13.0633L9.65339 13.0669L9.65738 13.0704L9.66116 13.0739L9.66514 13.0774L9.66893 13.0809L9.67292 13.0843L9.67691 13.0877L9.68089 13.091L9.68489 13.0944L9.68909 13.0976L9.69308 13.1009L9.69728 13.1041L9.70126 13.1073L9.70547 13.1105L9.70967 13.1136L9.71408 13.1167L9.71828 13.1198L9.72248 13.1229L9.72689 13.1258L9.73109 13.1288L9.73549 13.1318L9.73991 13.1347L9.74432 13.1375L9.74872 13.1404L9.75314 13.1432L9.75755 13.146L9.76217 13.1487L9.76658 13.1514L9.7712 13.154L9.77582 13.1567L9.78043 13.1593L9.78485 13.1618L9.78947 13.1643L9.7943 13.1668L9.79891 13.1693L9.80353 13.1717L9.80837 13.1741L9.81299 13.1764L9.81782 13.1787L9.82244 13.181L9.82726 13.1832L9.8321 13.1854L9.83693 13.1876L9.84176 13.1897L9.84659 13.1918L9.85141 13.1938L9.85625 13.1958L9.86108 13.1978L9.86612 13.1997L9.87095 13.2016L9.87599 13.2035L9.88082 13.2053L9.88586 13.2071L9.89089 13.2088L9.89573 13.2105L9.90076 13.2122L9.9058 13.2138L9.91085 13.2154L9.91589 13.2169L9.92093 13.2184L9.92597 13.2199L9.93101 13.2213L9.93605 13.2227L9.9413 13.224L9.94634 13.2253L9.95138 13.2266L9.95662 13.2278L9.96167 13.229L9.96671 13.2301L9.97196 13.2312L9.97699 13.2323L9.98224 13.2333L9.98728 13.2342L9.99253 13.2352L9.99758 13.2361L10.0028 13.2369L10.0081 13.2377L10.0131 13.2385L10.0184 13.2392L10.0236 13.2399L10.0287 13.2405L10.0339 13.2411L10.0392 13.2417L10.0444 13.2422L10.0494 13.2427L10.0547 13.2431L10.0599 13.2435L10.0652 13.2438L10.0702 13.2441L10.0755 13.2444L10.0807 13.2446L10.086 13.2448L10.0912 13.2449L10.0963 13.245L10.1017 13.245L10.1542 13.2451L10.2993 13.2452L10.3997 13.2453L10.5148 13.2453L10.6425 13.2454L10.7798 13.2454H10.9241L11.0728 13.2453L11.2231 13.2453L11.3727 13.2451L11.4462 13.245L11.5184 13.2449L11.5892 13.2448L11.658 13.2446L11.7246 13.2445L11.7887 13.2443L11.8498 13.2441L11.9061 13.2439L11.9109 13.2438L11.9161 13.2437L11.9214 13.2435L11.9266 13.2433L11.9319 13.243L11.9369 13.2427L11.9422 13.2424L11.9474 13.242L11.9527 13.2415L11.9579 13.241L11.963 13.2405L11.9682 13.2399L11.9735 13.2393L11.9787 13.2387L11.9838 13.238L11.989 13.2372L11.9943 13.2364L11.9993 13.2356L12.0045 13.2347L12.0096 13.2338L12.0148 13.2329L12.0199 13.2319L12.0251 13.2308L12.0302 13.2298L12.0352 13.2286L12.0405 13.2275L12.0455 13.2263L12.0505 13.225L12.0558 13.2237L12.0608 13.2224L12.0659 13.221L12.0709 13.2196L12.0759 13.2182L12.081 13.2167L12.086 13.2151L12.0909 13.2136L12.0959 13.212L12.1009 13.2103L12.1058 13.2086L12.1108 13.2069L12.1156 13.2051L12.1207 13.2033L12.1255 13.2014L12.1305 13.1995L12.1354 13.1976L12.1402 13.1956L12.145 13.1936L12.1499 13.1916L12.1547 13.1895L12.1595 13.1874L12.1644 13.1852L12.1692 13.183L12.1738 13.1808L12.1786 13.1785L12.1833 13.1762L12.1881 13.1738L12.1927 13.1715L12.1973 13.169L12.2022 13.1666L12.2068 13.1641L12.2114 13.1616L12.2158 13.159L12.2204 13.1564L12.225 13.1537L12.2295 13.1511L12.2341 13.1484L12.2385 13.1456L12.2429 13.1428L12.2475 13.14L12.2519 13.1372L12.2563 13.1343L12.2605 13.1314L12.2649 13.1284L12.2694 13.1255L12.2736 13.1225L12.2778 13.1194L12.2822 13.1163L12.2864 13.1132L12.2906 13.11L12.2948 13.1068L12.2988 13.1037L12.303 13.1004L12.3072 13.0971L12.3111 13.0938L12.3151 13.0905L12.3191 13.0871L12.3231 13.0837L12.3271 13.0803L12.3311 13.0769L12.3351 13.0734L12.3389 13.0699L12.3426 13.0663L12.3464 13.0627L12.3502 13.0591L12.354 13.0555L12.3578 13.0518L12.3613 13.0482L12.3651 13.0445L12.3687 13.0407L12.3723 13.0369L12.3758 13.0331L12.3794 13.0293L12.383 13.0255L12.3863 13.0216L12.3899 13.0177L12.3933 13.0138L12.3966 13.0098L12.4 13.0058L12.4033 13.0018L12.4065 12.9978L12.4096 12.9937L12.413 12.9896L12.4161 12.9856L12.4191 12.9814L12.4222 12.9773L12.4254 12.9731L12.4283 12.9689L12.4313 12.9647L12.4344 12.9604L12.4374 12.9561L12.4401 12.9519L12.443 12.9475L12.4458 12.9432L12.4485 12.9388L12.4512 12.9345L12.4539 12.9301L12.4567 12.9256L12.4592 12.9211L12.5186 12.8184L12.5785 12.7148L12.6383 12.6113L12.6984 12.5078L12.8183 12.3008L12.8781 12.1973L12.938 12.0939L12.9978 11.9904L13.0577 11.887L13.1173 11.7835L13.1472 11.7318L13.177 11.6801L13.2068 11.6284L13.2366 11.5766L13.2664 11.5249L13.296 11.4731L13.3259 11.4214L13.3555 11.3696L13.3851 11.3178L13.4141 11.2674L13.4164 11.2633L13.4189 11.2587L13.4212 11.2541L13.4237 11.2494L13.426 11.2448L13.4283 11.2401L13.4307 11.2354L13.433 11.2308L13.4353 11.226L13.4374 11.2213L13.4395 11.2166L13.4416 11.2118L13.4437 11.207L13.4456 11.2023L13.4477 11.1974L13.4496 11.1926L13.4514 11.1878L13.4533 11.1829L13.455 11.1781L13.4569 11.1732L13.4586 11.1683L13.4603 11.1634L13.4619 11.1585L13.4634 11.1536L13.4651 11.1487L13.4666 11.1437L13.468 11.1387L13.4695 11.1337L13.471 11.1287L13.4722 11.1238L13.4735 11.1188L13.4748 11.1137L13.476 11.1087L13.4773 11.1037L13.4785 11.0986L13.4796 11.0936L13.4806 11.0885L13.4817 11.0834L13.4827 11.0783L13.4836 11.0732L13.4844 11.0681L13.4853 11.063L13.4861 11.0579L13.4869 11.0528L13.4878 11.0477L13.4884 11.0425L13.489 11.0373L13.4897 11.0322L13.4903 11.0271L13.4909 11.0219L13.4913 11.0168L13.4918 11.0116L13.4922 11.0064L13.4926 11.0012L13.493 10.9961L13.4932 10.9909L13.4934 10.9857L13.4937 10.9805L13.4939 10.9753L13.4941 10.9701V10.9442L13.4939 10.939V10.9338L13.4937 10.9286L13.4934 10.9234L13.493 10.9182L13.4928 10.913L13.4924 10.9078L13.492 10.9027L13.4916 10.8975L13.4911 10.8923L13.4905 10.8871L13.4901 10.882L13.4895 10.8768L13.4888 10.8716L13.488 10.8665L13.4874 10.8613L13.4865 10.8562L13.4857 10.851L13.485 10.8459L13.484 10.8408L13.4832 10.8357L13.4821 10.8306L13.4811 10.8254L13.48 10.8203L13.479 10.8153L13.4779 10.8102L13.4766 10.8051L13.4756 10.8L13.4743 10.795L13.4731 10.79L13.4716 10.785L13.4703 10.7799L13.4689 10.7749L13.4674 10.7699L13.4659 10.765L13.4645 10.76L13.463 10.755L13.4613 10.7501L13.4596 10.7451L13.458 10.7402L13.4563 10.7353L13.4544 10.7304L13.4527 10.7255L13.4508 10.7207L13.4489 10.7158L13.447 10.711L13.4451 10.7061L13.443 10.7014L13.4412 10.6966L13.4391 10.6918L13.437 10.687L13.4349 10.6823L13.4325 10.6776L13.4304 10.6729L13.4281 10.6682L13.4258 10.6635L13.4233 10.6589L13.421 10.6543L13.4187 10.6496L13.4162 10.645L13.4136 10.6405L13.4111 10.6359L13.4086 10.6314L13.4013 10.6187L12.4575 8.98402L12.4537 8.97756L12.4512 8.97342L12.4485 8.96886L12.4458 8.96432L12.4428 8.95979L12.4399 8.95527L12.4369 8.95078L12.434 8.94631L12.4311 8.94188L12.4279 8.93744L12.4248 8.93303L12.4218 8.92867L12.4185 8.92432L12.4153 8.91997L12.4122 8.91567L12.4088 8.91138L12.4056 8.90712L12.4023 8.9029L12.3989 8.8987L12.3956 8.8945L12.392 8.89036L12.3886 8.8862L12.3851 8.88211L12.3815 8.87804L12.3779 8.87396L12.3744 8.86993L12.3708 8.86596L12.367 8.86199L12.3634 8.85802L12.3597 8.85412L12.3559 8.85023L12.3521 8.84637L12.3483 8.84255L12.3445 8.83875L12.3405 8.83496L12.3368 8.83121L12.3328 8.82753L12.3288 8.82383L12.3248 8.82018L12.3208 8.81657L12.3168 8.81298L12.3128 8.80943L12.3086 8.80592L12.3046 8.80241L12.3004 8.79897L12.2962 8.79555L12.292 8.79215L12.2878 8.78879L12.2836 8.78547L12.2794 8.78217L12.275 8.7789L12.2708 8.7757L12.2664 8.77251L12.262 8.76934L12.2578 8.76625L12.2534 8.76315L12.249 8.7601L12.2446 8.7571L12.2402 8.75412L12.2355 8.75117L12.2311 8.74828L12.2265 8.74542L12.2221 8.74259L12.2175 8.73979L12.2129 8.73704L12.2085 8.73433L12.2038 8.73165L12.1992 8.72902L12.1944 8.72642L12.1898 8.72385L12.1851 8.72131L12.1805 8.71883L12.1759 8.7164L12.1711 8.71398L12.1665 8.71163L12.1616 8.70928L12.1568 8.70699L12.1522 8.70477L12.1473 8.70254L12.1425 8.70038L12.1377 8.69826L12.1329 8.69616L12.1282 8.69414L12.1234 8.69212L12.1184 8.69015L12.1135 8.68824L12.1087 8.68635L12.1039 8.68452L12.099 8.68274L12.094 8.68097L12.0892 8.67925L12.0843 8.67759L12.0793 8.67595L12.0745 8.67438L12.0696 8.67282L12.0646 8.67133L12.0598 8.66988L12.0547 8.66846L12.0499 8.66709L12.0449 8.66577L12.0398 8.66447L12.035 8.66323L12.03 8.66203L12.0249 8.66088L12.0201 8.65976L12.015 8.65869L12.01 8.65768L12.005 8.6567L12.0001 8.65575L11.9951 8.65487L11.9901 8.65401L11.985 8.65321L11.9798 8.65241L11.9777 8.65208L11.9751 8.65174L11.9726 8.65138L11.9701 8.65107L11.9676 8.65073L11.9651 8.65044L11.9625 8.65014L11.9602 8.64985L11.9577 8.64958L11.9552 8.6493L11.9527 8.64905L11.9502 8.64882L11.9476 8.64859L11.9451 8.64836L11.9426 8.64815L11.9401 8.64796L11.9376 8.64777L11.9352 8.6476L11.9327 8.64744L11.9302 8.64729L11.9277 8.64714L11.9252 8.64702L11.9226 8.64691L11.9201 8.64678L11.9178 8.6467L11.9151 8.64662L11.9128 8.64653L11.9103 8.64647L11.9077 8.64643L11.9052 8.64639L11.9027 8.64636L11.9004 8.64634H11.8905L10.1118 8.6459L10.108 8.64596ZM21.452 -0.00804985L13.8005 13.245H21.6807L21.7023 -0.0234009L21.452 -0.00804985ZM14.3589 10.1369L9.21386 1.22545L10.0339 -0.194719L20.3502 -0.240226L14.3589 10.1369ZM10.1796 0.0566301L9.50492 1.22545L14.3589 9.63286L19.9125 0.0137061L10.1796 0.0566301ZM11.9439 7.59074H5.53886L8.74136 2.04384L11.9439 7.59074ZM5.97545 7.33874H11.5075L8.74136 2.54784L5.97545 7.33874Z" fill="url(#paint1_linear)"/>
</g>
<defs>
<radialGradient id="paint0_radial" cx="0" cy="0" r="1" gradientUnits="userSpaceOnUse" gradientTransform="translate(16.5507 -3.44768) scale(24.9467)">
<stop stop-color="#F9A6FF"/>
<stop offset="1" stop-color="#EA73FF"/>
</radialGradient>
<linearGradient id="paint1_linear" x1="15.0416" y1="0.498008" x2="15.0416" y2="21.498" gradientUnits="userSpaceOnUse">
<stop stop-color="#F7B3FF"/>
<stop offset="1" stop-color="#EE8AFF"/>
</linearGradient>
</defs>
</svg>
