<svg width="22" height="22" viewBox="0 0 22 22" fill="none" xmlns="http://www.w3.org/2000/svg">
<mask id="mask0" mask-type="alpha" maskUnits="userSpaceOnUse" x="0" y="0" width="22" height="22">
<path fill-rule="evenodd" clip-rule="evenodd" d="M21.5 1.13C21.5 0.782312 21.2177 0.5 20.87 0.5H1.13C0.782311 0.5 0.5 0.782312 0.5 1.13V20.87C0.5 21.2177 0.782311 21.5 1.13 21.5H20.87C21.2177 21.5 21.5 21.2177 21.5 20.87V1.13Z" fill="#144E8C"/>
</mask>
<g mask="url(#mask0)">
<path fill-rule="evenodd" clip-rule="evenodd" d="M21.5 1.13006C21.5 0.782373 21.2177 0.500061 20.87 0.500061H1.13C0.782311 0.500061 0.5 0.782373 0.5 1.13006V20.8701C0.5 21.2178 0.782311 21.5001 1.13 21.5001H20.87C21.2177 21.5001 21.5 21.2178 21.5 20.8701V1.13006Z" fill="#1B72BE"/>
<path fill-rule="evenodd" clip-rule="evenodd" d="M21.5 1.13006C21.5 0.782373 21.2177 0.500061 20.87 0.500061H9.11L0.5 15.413V20.8701C0.5 21.2178 0.782311 21.5001 1.13 21.5001H20.87C21.2177 21.5001 21.5 21.2178 21.5 20.8701V1.13006Z" fill="#0568AA"/>
<path fill-rule="evenodd" clip-rule="evenodd" d="M10.2094 21.5001H8.7448L4.96189 13.8948L12.3337 0.500061H13.52L5.80252 13.8672L10.2093 21.5001H10.2094ZM14.1767 21.5001H10.5244L6.22073 14.0459H21.5015L21.5 15.4377L14.1767 21.5001ZM10.5465 0.500061H9.32L0.5 15.7767V17.9012L10.5465 0.500061ZM12.6771 13.7712H8.52336C8.03851 13.7712 7.58767 13.5175 7.34522 13.0977C7.22612 12.8914 7.16342 12.6574 7.16342 12.4192C7.16342 12.181 7.22612 11.947 7.34522 11.7407L9.425 8.13844L12.6771 13.7712ZM21.5 13.7712H12.9921L9.58248 7.86558L13.835 0.500061L15.3758 0.501031L13.1378 8.11438L14.1767 10.2483L21.5 13.1282V13.7712Z" fill="#074F7F"/>
<path fill-rule="evenodd" clip-rule="evenodd" d="M21.4999 21.5H10.8393L6.69329 14.3188H21.4999V21.5ZM9.89433 21.5H0.5V16.3224L9.63496 0.500061H13.205L5.48748 13.8672L9.89433 21.5ZM12.2054 13.4999H8.59594C8.193 13.4999 7.82069 13.2885 7.61922 12.9394C7.52023 12.768 7.46812 12.5735 7.46812 12.3756C7.46812 12.1776 7.52023 11.9832 7.61922 11.8117C8.42101 10.4229 9.42497 8.68408 9.42497 8.68408L12.2054 13.4999ZM21.4999 13.4999H13.1508L9.89746 7.86562L14.1499 0.500061H21.4999V13.4999Z" fill="url(#paint0_radial)"/>
<path fill-rule="evenodd" clip-rule="evenodd" d="M21.9869 21.8855H11.062L6.69296 14.3181H21.9793L21.9869 21.8855ZM5.48715 13.8665L10.117 21.8855H-0.144828L-0.179199 17.4974L9.88825 0.0601196H13.4582L5.48715 13.8665ZM7.12945 14.5702L11.2075 21.6336H21.7346L21.7276 14.5702H7.12945ZM10.0337 0.312161L0.0733331 17.5641L0.105202 21.6336H9.68051L5.19617 13.8665L13.0218 0.312161H10.0337ZM12.2051 13.4992H8.58618L8.58146 13.499H8.57205L8.56733 13.4988H8.56263L8.55794 13.4986L8.55324 13.4984L8.54855 13.4982L8.54385 13.498L8.53917 13.4978L8.53448 13.4976L8.5298 13.4974L8.52513 13.497L8.52045 13.4968L8.51579 13.4964L8.51112 13.4962L8.50646 13.4958L8.50181 13.4954L8.49715 13.4949L8.4925 13.4945L8.48786 13.4941L8.48321 13.4937L8.47857 13.4933L8.47394 13.4927L8.4693 13.4923L8.46469 13.4917L8.46005 13.4913L8.45544 13.4906L8.45083 13.49L8.44623 13.4894L8.44162 13.4888L8.43702 13.4882L8.43243 13.4876L8.42784 13.4869L8.42324 13.4861L8.41867 13.4855L8.4141 13.4847L8.40952 13.4841L8.40495 13.4833L8.40038 13.4824L8.39582 13.4816L8.39127 13.4808L8.38674 13.48L8.38219 13.4792L8.37765 13.4783L8.37312 13.4773L8.36859 13.4765L8.36408 13.4755L8.35955 13.4746L8.35503 13.4736L8.35054 13.4726L8.34603 13.4716L8.34154 13.4707L8.33705 13.4695L8.33256 13.4685L8.32809 13.4675L8.32362 13.4664L8.31915 13.4652L8.3147 13.4642L8.31025 13.4632L8.3058 13.4619L8.30134 13.4607L8.29692 13.4595L8.29249 13.4582L8.28806 13.457L8.28363 13.4558L8.27922 13.4545L8.27481 13.4533L8.27042 13.4521L8.26603 13.4506L8.26164 13.4494L8.25725 13.448L8.25288 13.4465L8.24852 13.4453L8.24415 13.4439L8.2398 13.4424L8.23545 13.441L8.23111 13.4396L8.22678 13.4379L8.22245 13.4365L8.21813 13.4351L8.21382 13.4336L8.20951 13.432L8.2052 13.4303L8.20092 13.4289L8.19663 13.4273L8.19237 13.4256L8.18808 13.424L8.18382 13.4223L8.17957 13.4207L8.17533 13.4191L8.17108 13.4174L8.16686 13.4156L8.16263 13.4139L8.15841 13.4121L8.1542 13.4105L8.15 13.4086L8.14579 13.4068L8.14161 13.4049L8.13743 13.4033L8.13326 13.4012L8.1291 13.3994L8.12494 13.3975L8.1208 13.3957L8.11665 13.3938L8.11253 13.3918L8.10841 13.3899L8.10429 13.3879L8.10018 13.386L8.09608 13.384L8.092 13.3819L8.08792 13.3799L8.08384 13.3778L8.07978 13.3758L8.07572 13.3737L8.07168 13.3717L8.06764 13.3696L8.0636 13.3674L8.05958 13.3653L8.05558 13.3631L8.05158 13.361L8.04758 13.3588L8.0436 13.3565L8.03963 13.3543L8.03565 13.352L8.03169 13.35L8.02775 13.3477L8.02381 13.3452L8.01988 13.343L8.01596 13.3407L8.01206 13.3383L8.00815 13.336L8.00427 13.3338L8.00037 13.3313L7.9965 13.3288L7.99264 13.3264L7.98879 13.3241L7.98495 13.3217L7.98112 13.3192L7.9773 13.3167L7.97349 13.3143L7.96967 13.3116L7.96588 13.3091L7.96211 13.3067L7.95833 13.304L7.95456 13.3016L7.95081 13.2989L7.94707 13.2962L7.94334 13.2938L7.93961 13.2911L7.9359 13.2884L7.93221 13.2858L7.92851 13.2831L7.92482 13.2804L7.92117 13.2778L7.9175 13.2749L7.91385 13.2722L7.91022 13.2696L7.90659 13.2667L7.90298 13.264L7.89937 13.2612L7.89578 13.2583L7.8922 13.2554L7.88863 13.2527L7.88506 13.2499L7.88151 13.247L7.87798 13.2439L7.87446 13.2411L7.87093 13.2382L7.86744 13.2353L7.86394 13.2322L7.86047 13.2294L7.85698 13.2265L7.85354 13.2234L7.85009 13.2203L7.84665 13.2175L7.84322 13.2144L7.83982 13.2113L7.83641 13.2082L7.83303 13.2052L7.82967 13.2021L7.8263 13.199L7.82294 13.1959L7.8196 13.1927L7.81628 13.1896L7.81297 13.1863L7.80965 13.1832L7.80637 13.1799L7.80309 13.1769L7.79983 13.1736L7.79657 13.1703L7.79333 13.167L7.79011 13.1637L7.78689 13.1605L7.78369 13.1572L7.78049 13.1539L7.77731 13.1506L7.77415 13.1473L7.77099 13.1439L7.76786 13.1406L7.76474 13.1373L7.76162 13.1338L7.75853 13.1303L7.75543 13.127L7.75237 13.1236L7.7493 13.1201L7.74626 13.1166L7.74323 13.1131L7.74019 13.1096L7.7372 13.1061L7.7342 13.1026L7.73121 13.0991L7.72826 13.0957L7.7253 13.092L7.72235 13.0885L7.71944 13.0848L7.71653 13.0813L7.71361 13.0776L7.71074 13.0739L7.70787 13.0704L7.705 13.0667L7.70217 13.063L7.69934 13.0594L7.69653 13.0557L7.69372 13.052L7.69093 13.0483L7.68816 13.0446L7.68542 13.0409L7.68267 13.037L7.67994 13.0333L7.67721 13.0294L7.67453 13.0257L7.67184 13.0218L7.66915 13.0179L7.66651 13.0142L7.66386 13.0103L7.66124 13.0065L7.65863 13.0026L7.65603 12.9987L7.65344 12.9948L7.65088 12.9909L7.64832 12.987L7.64579 12.9831L7.64327 12.979L7.64075 12.9751L7.63827 12.9712L7.63579 12.9671L7.63333 12.9632L7.63089 12.9591L7.62845 12.955L7.62603 12.9511L7.62363 12.947L7.62125 12.9429L7.61889 12.9388L7.61653 12.9347L7.61419 12.9306L7.61188 12.9265L7.60958 12.9224L7.6073 12.9183L7.60505 12.9142L7.60281 12.9101L7.60058 12.906L7.59838 12.9017L7.59619 12.8976L7.59403 12.8935L7.59188 12.8891L7.58975 12.885L7.58763 12.8809L7.58554 12.8766L7.58347 12.8725L7.5814 12.8682L7.57937 12.8641L7.57736 12.8598L7.57535 12.8555L7.57336 12.8514L7.57141 12.8471L7.56947 12.8428L7.56754 12.8387L7.56563 12.8344L7.56372 12.8301L7.56186 12.826L7.56001 12.8217L7.55817 12.8174L7.55636 12.8131L7.55456 12.8088L7.55277 12.8045L7.55101 12.8001L7.54926 12.7958L7.54754 12.7915L7.54584 12.7872L7.54416 12.7829L7.54248 12.7786L7.54084 12.7743L7.5392 12.77L7.53758 12.7655L7.536 12.7612L7.53442 12.7569L7.53286 12.7526L7.53132 12.7483L7.52978 12.7437L7.52829 12.7394L7.52681 12.7351L7.52533 12.7306L7.5239 12.7263L7.52246 12.7218L7.52105 12.7175L7.51965 12.7132L7.51828 12.7087L7.51692 12.7044L7.51559 12.6999L7.51428 12.6953L7.51297 12.691L7.51169 12.6865L7.51042 12.6822L7.50917 12.6777L7.50796 12.6734L7.50675 12.6689L7.50556 12.6644L7.50439 12.6601L7.50322 12.6556L7.5021 12.6511L7.50099 12.6465L7.49988 12.6422L7.4988 12.6377L7.49775 12.6332L7.4967 12.6287L7.49568 12.6244L7.49467 12.6199L7.49369 12.6154L7.49272 12.6109L7.49176 12.6063L7.49084 12.6018L7.48992 12.5973L7.48903 12.5928L7.48815 12.5883L7.48729 12.5838L7.48645 12.5795L7.48563 12.575L7.48483 12.5705L7.48405 12.5659L7.48329 12.5612L7.48253 12.5569L7.48181 12.5522L7.4811 12.5477L7.4804 12.5432L7.47972 12.5387L7.47909 12.5342L7.47843 12.5296L7.47782 12.5251L7.47722 12.5206L7.47665 12.5161L7.47607 12.5116L7.47554 12.5071L7.47501 12.5024L7.47449 12.4979L7.47402 12.4933L7.47355 12.4888L7.4731 12.4843L7.47267 12.4798L7.47224 12.4751L7.47185 12.4706L7.47148 12.4661L7.47111 12.4616L7.47076 12.457L7.47045 12.4523L7.47015 12.4478L7.46986 12.4433L7.46959 12.4388L7.46935 12.4343L7.4691 12.4296L7.4689 12.4251L7.46871 12.4205L7.46853 12.416L7.46836 12.4113L7.46824 12.4068L7.46812 12.4023L7.46801 12.3978L7.46793 12.3931L7.46787 12.3886L7.46781 12.384L7.46779 12.3795V12.3703L7.46781 12.3658L7.46787 12.3613L7.46793 12.3566L7.46801 12.352L7.46812 12.3475L7.46824 12.343L7.46836 12.3383L7.46853 12.3338L7.46871 12.3293L7.4689 12.3248L7.4691 12.3201L7.46935 12.3155L7.46959 12.311L7.46986 12.3065L7.47015 12.3018L7.47045 12.2973L7.47076 12.2928L7.47111 12.2883L7.47148 12.2838L7.47185 12.2792L7.47224 12.2745L7.47267 12.27L7.4731 12.2655L7.47355 12.261L7.47402 12.2565L7.47449 12.2518L7.47501 12.2473L7.47554 12.2427L7.47607 12.2382L7.47665 12.2337L7.47722 12.2292L7.47782 12.2247L7.47843 12.2202L7.47909 12.2155L7.47972 12.211L7.4804 12.2064L7.4811 12.2019L7.48181 12.1974L7.48253 12.1929L7.48329 12.1884L7.48405 12.1839L7.48483 12.1794L7.48563 12.1749L7.48645 12.1704L7.48729 12.1658L7.48815 12.1613L7.48903 12.1568L7.48992 12.1523L7.49084 12.148L7.49176 12.1435L7.49272 12.139L7.49369 12.1345L7.49467 12.1299L7.49568 12.1254L7.4967 12.1209L7.49775 12.1166L7.4988 12.1121L7.49988 12.1076L7.50099 12.1031L7.5021 12.0988L7.50322 12.0943L7.50439 12.0898L7.50556 12.0852L7.50675 12.0809L7.50796 12.0764L7.50917 12.0719L7.51042 12.0676L7.51169 12.0631L7.51297 12.0588L7.51428 12.0543L7.51559 12.05L7.51692 12.0455L7.51828 12.0412L7.51965 12.0366L7.52105 12.0323L7.52246 12.0278L7.5239 12.0235L7.52533 12.019L7.52681 12.0147L7.52829 12.0104L7.52978 12.0061L7.53132 12.0016L7.53286 11.9973L7.53442 11.993L7.536 11.9887L7.53758 11.9841L7.5392 11.9798L7.54084 11.9755L7.54248 11.9712L7.54416 11.9669L7.54584 11.9626L7.54754 11.9583L7.54926 11.954L7.55101 11.9497L7.55277 11.9454L7.55456 11.9411L7.55636 11.9368L7.55817 11.9325L7.56001 11.9282L7.56186 11.9238L7.56372 11.9195L7.56563 11.9154L7.56754 11.9111L7.56947 11.9068L7.57141 11.9027L7.57336 11.8984L7.57535 11.8941L7.57736 11.89L7.57937 11.8857L7.5814 11.8814L7.58347 11.8773L7.58554 11.8732L7.58763 11.8689L7.58975 11.8648L7.59188 11.8605L7.59403 11.8564L7.59619 11.8523L7.59838 11.8482L7.60058 11.8439L7.60281 11.8398L7.60505 11.8357L7.6073 11.8316L7.60958 11.8275L7.61188 11.8234L7.61419 11.8191L7.61653 11.8152L7.61889 11.8111L9.42464 8.68342L12.2051 13.4992ZM21.9741 13.4992H13.1501L9.89713 7.86495L14.4032 0.0601196H21.8829L21.9741 13.4992ZM7.83725 11.9368L7.83529 11.9403L7.83348 11.9433L7.83168 11.9466L7.82989 11.9497L7.82813 11.953L7.82637 11.9562L7.82462 11.9593L7.82288 11.9626L7.8212 11.9657L7.8195 11.969L7.81779 11.9722L7.81613 11.9755L7.81447 11.9788L7.81283 11.9821L7.81121 11.9852L7.80961 11.9884L7.80801 11.9917L7.80641 11.995L7.80485 11.9983L7.80329 12.0016L7.80176 12.0049L7.80024 12.0081L7.79872 12.0114L7.79722 12.0147L7.79575 12.0182L7.79427 12.0215L7.79281 12.0247L7.79138 12.028L7.78994 12.0313L7.78855 12.0346L7.78715 12.0379L7.78576 12.0414L7.78441 12.0446L7.78305 12.0479L7.7817 12.0514L7.78039 12.0547L7.77907 12.058L7.77778 12.0615L7.77649 12.0647L7.77522 12.0682L7.77397 12.0715L7.77274 12.0748L7.77151 12.0783L7.7703 12.0818L7.76911 12.085L7.76794 12.0883L7.76675 12.0918L7.7656 12.0953L7.76447 12.0986L7.76334 12.1021L7.76224 12.1053L7.76115 12.1088L7.76006 12.1123L7.759 12.1156L7.75793 12.1191L7.75691 12.1226L7.75588 12.1258L7.75488 12.1293L7.75387 12.1328L7.75289 12.1363L7.75192 12.1398L7.75098 12.1431L7.75004 12.1466L7.74911 12.15L7.74821 12.1535L7.74731 12.157L7.74643 12.1603L7.74556 12.1638L7.7447 12.1673L7.74386 12.1708L7.74304 12.1742L7.74224 12.1777L7.74144 12.1812L7.74066 12.1847L7.7399 12.1882L7.73915 12.1917L7.73841 12.1952L7.73769 12.1987L7.73697 12.2021L7.73628 12.2056L7.7356 12.2091L7.73494 12.2126L7.73429 12.2161L7.73365 12.2196L7.73301 12.2231L7.73242 12.2265L7.73182 12.23L7.73123 12.2335L7.73068 12.237L7.73012 12.2407L7.72959 12.2442L7.72906 12.2477L7.72856 12.2512L7.72805 12.2546L7.72758 12.2581L7.72711 12.2616L7.72666 12.2651L7.72623 12.2688L7.7258 12.2723L7.72539 12.2758L7.725 12.2792L7.72463 12.2829L7.72426 12.2864L7.72391 12.2899L7.72356 12.2934L7.72325 12.2971L7.72294 12.3006L7.72264 12.3041L7.72237 12.3075L7.7221 12.311L7.72186 12.3147L7.72161 12.3182L7.72139 12.3217L7.72118 12.3252L7.721 12.3289L7.72081 12.3324L7.72065 12.3358L7.7205 12.3395L7.72036 12.343L7.72024 12.3465L7.72014 12.35L7.72003 12.3537L7.71995 12.3572L7.71989 12.3607L7.71985 12.3641L7.71981 12.3678L7.71979 12.3713V12.3785L7.71981 12.382L7.71985 12.3855L7.71989 12.389L7.71995 12.3927L7.72003 12.3961L7.72014 12.3996L7.72024 12.4033L7.72036 12.4068L7.7205 12.4103L7.72065 12.4138L7.72081 12.4175L7.721 12.421L7.72118 12.4244L7.72139 12.4281L7.72161 12.4316L7.72186 12.4351L7.7221 12.4386L7.72237 12.4423L7.72264 12.4458L7.72294 12.4493L7.72325 12.4527L7.72356 12.4564L7.72391 12.4599L7.72426 12.4634L7.72463 12.4669L7.725 12.4704L7.72539 12.4741L7.7258 12.4776L7.72623 12.481L7.72666 12.4845L7.72711 12.488L7.72758 12.4915L7.72805 12.4952L7.72856 12.4987L7.72906 12.5022L7.72959 12.5057L7.73012 12.5091L7.73068 12.5126L7.73123 12.5161L7.73182 12.5198L7.73242 12.5233L7.73301 12.5268L7.73365 12.5303L7.73429 12.5337L7.73494 12.5372L7.7356 12.5407L7.73628 12.5442L7.73697 12.5477L7.73769 12.5512L7.73841 12.5547L7.73915 12.5582L7.7399 12.5616L7.74066 12.5651L7.74144 12.5686L7.74224 12.5721L7.74304 12.5756L7.74386 12.5791L7.7447 12.5826L7.74556 12.5858L7.74643 12.5893L7.74731 12.5928L7.74821 12.5963L7.74911 12.5998L7.75004 12.6033L7.75098 12.6068L7.75192 12.61L7.75289 12.6135L7.75387 12.617L7.75488 12.6205L7.75588 12.6238L7.75691 12.6273L7.75795 12.6307L7.759 12.634L7.76006 12.6375L7.76115 12.641L7.76224 12.6443L7.76334 12.6478L7.76447 12.6513L7.7656 12.6545L7.76675 12.658L7.76792 12.6613L7.76911 12.6648L7.7703 12.6681L7.77151 12.6716L7.77274 12.6748L7.77399 12.6783L7.77522 12.6816L7.77649 12.6849L7.77778 12.6884L7.77907 12.6917L7.78039 12.6951L7.78172 12.6984L7.78305 12.7017L7.78439 12.7052L7.78576 12.7085L7.78715 12.7118L7.78855 12.715L7.78996 12.7185L7.79138 12.7218L7.79281 12.7251L7.79427 12.7284L7.79575 12.7316L7.79722 12.7349L7.79872 12.7382L7.80022 12.7415L7.80176 12.745L7.80329 12.7483L7.80485 12.7513L7.80641 12.7548L7.80799 12.7579L7.80959 12.7612L7.81121 12.7645L7.81283 12.7677L7.81447 12.771L7.81613 12.7743L7.81779 12.7776L7.8195 12.7807L7.82118 12.7839L7.8229 12.7872L7.82462 12.7905L7.82637 12.7936L7.82813 12.7969L7.82989 12.7999L7.83168 12.8032L7.83348 12.8065L7.83529 12.8096L7.83711 12.8129L7.83896 12.8159L7.8408 12.8192L7.84267 12.8223L7.84453 12.8254L7.84642 12.8284L7.84833 12.8317L7.85024 12.8348L7.85214 12.8379L7.85407 12.841L7.85602 12.844L7.85797 12.8471L7.85994 12.8502L7.86193 12.8533L7.86392 12.8561L7.8659 12.8592L7.86793 12.8623L7.86994 12.8654L7.87197 12.8682L7.87403 12.8713L7.8761 12.8742L7.87815 12.8773L7.88022 12.8801L7.88231 12.883L7.88442 12.8861L7.88654 12.8889L7.88867 12.8918L7.89078 12.8947L7.89293 12.8976L7.89511 12.9004L7.89726 12.9033L7.89943 12.9062L7.90163 12.909L7.90382 12.9119L7.90606 12.9148L7.90825 12.9174L7.91049 12.9203L7.91274 12.9232L7.91498 12.9259L7.91728 12.9287L7.91953 12.9314L7.92181 12.9343L7.92413 12.9369L7.92642 12.9398L7.92872 12.9425L7.93106 12.9451L7.9334 12.9478L7.93573 12.9505L7.93811 12.9531L7.94047 12.9558L7.94285 12.9585L7.94523 12.9611L7.94763 12.9638L7.95005 12.9665L7.95247 12.9691L7.95489 12.9716L7.95733 12.9743L7.95979 12.9769L7.96225 12.9794L7.96471 12.982L7.96719 12.9845L7.96967 12.987L7.97215 12.9896L7.97468 12.9921L7.9772 12.9946L7.97972 12.997L7.98224 12.9995L7.98483 13.0021L7.98737 13.0044L7.98991 13.0069L7.99252 13.0093L7.99508 13.0118L7.99767 13.0142L8.00027 13.0167L8.0029 13.019L8.00552 13.0214L8.00815 13.0237L8.01079 13.0261L8.01344 13.0284L8.01608 13.0309L8.01879 13.0331L8.02143 13.0354L8.02412 13.0378L8.02685 13.0401L8.02952 13.0423L8.03222 13.0446L8.03497 13.0469L8.03768 13.0491L8.04045 13.0514L8.04319 13.0536L8.04594 13.0559L8.04869 13.0579L8.05148 13.0602L8.05427 13.0624L8.05704 13.0645L8.05985 13.0665L8.06266 13.0688L8.06549 13.0708L8.06832 13.0731L8.07115 13.0752L8.07398 13.0772L8.07683 13.0793L8.07968 13.0815L8.08257 13.0836L8.08544 13.0856L8.08833 13.0877L8.09122 13.0895L8.09409 13.0916L8.09703 13.0936L8.09996 13.0957L8.10287 13.0975L8.10578 13.0996L8.10874 13.1016L8.11169 13.1035L8.11466 13.1053L8.11762 13.1073L8.12057 13.1092L8.12354 13.111L8.12656 13.1131L8.12955 13.1149L8.13257 13.1168L8.13556 13.1186L8.13858 13.1205L8.14161 13.1221L8.14465 13.124L8.14768 13.1258L8.15072 13.1277L8.15377 13.1293L8.15683 13.1311L8.15992 13.1328L8.163 13.1346L8.16606 13.1363L8.16915 13.1381L8.17229 13.1398L8.17539 13.1414L8.17848 13.143L8.18158 13.1447L8.18472 13.1465L8.1879 13.1482L8.19101 13.1496L8.19413 13.1512L8.19731 13.1529L8.20047 13.1545L8.20365 13.1559L8.20682 13.1576L8.21 13.1592L8.21318 13.1607L8.21636 13.1623L8.21958 13.1637L8.22278 13.1652L8.226 13.1666L8.22924 13.1683L8.23244 13.1697L8.23566 13.1711L8.23894 13.1726L8.24214 13.174L8.2454 13.1754L8.2487 13.1767L8.25194 13.1781L8.2552 13.1795L8.25848 13.1808L8.26174 13.1822L8.26505 13.1834L8.26835 13.1849L8.27167 13.1861L8.27495 13.1875L8.27825 13.1888L8.2816 13.19L8.28494 13.1912L8.28826 13.1925L8.29156 13.1937L8.29491 13.1949L8.29827 13.1961L8.30165 13.1974L8.30497 13.1984L8.30832 13.1996L8.31168 13.2007L8.31511 13.2019L8.31847 13.2029L8.32183 13.2041L8.32526 13.2052L8.32864 13.2062L8.33202 13.2074L8.33543 13.2085L8.33885 13.2095L8.34228 13.2105L8.34568 13.2115L8.34911 13.2123L8.35255 13.2134L8.35598 13.2144L8.35942 13.2154L8.36285 13.2162L8.36633 13.2173L8.36978 13.2181L8.37322 13.2191L8.37671 13.2199L8.38016 13.2208L8.38366 13.2218L8.38713 13.2226L8.39057 13.2234L8.3941 13.2242L8.39759 13.2251L8.40107 13.2257L8.40458 13.2265L8.40809 13.2273L8.41162 13.2281L8.41512 13.2288L8.41865 13.2296L8.42216 13.2302L8.42568 13.231L8.42923 13.2316L8.43278 13.2322L8.43629 13.2329L8.43981 13.2335L8.44338 13.2341L8.44695 13.2347L8.45052 13.2353L8.45407 13.2359L8.45761 13.2365L8.46118 13.2372L8.46475 13.2376L8.46834 13.2382L8.47195 13.2386L8.47552 13.2392L8.47906 13.2396L8.48265 13.24L8.48628 13.2404L8.48989 13.2409L8.49344 13.2415L8.49705 13.2419L8.5007 13.2421L8.50433 13.2425L8.50792 13.2429L8.51153 13.2433L8.51516 13.2435L8.51877 13.2439L8.52238 13.2441L8.52603 13.2445L8.52968 13.2448L8.53333 13.245L8.53696 13.2454L8.54059 13.2456L8.54426 13.2458L8.54793 13.246L8.55156 13.2462L8.55517 13.2464H8.55886L8.56251 13.2466L8.56618 13.2468H8.56987L8.57354 13.247H8.58087L8.58458 13.2472H11.7686L9.42464 9.18729L7.83725 11.9368ZM14.5487 0.312161L10.1881 7.86495L13.2956 13.2472H21.7205L21.6327 0.312161H14.5487Z" fill="url(#paint1_linear)"/>
</g>
<defs>
<radialGradient id="paint0_radial" cx="0" cy="0" r="1" gradientUnits="userSpaceOnUse" gradientTransform="translate(16.551 -3.44665) scale(24.9466)">
<stop stop-color="#6BE1FB"/>
<stop offset="1" stop-color="#38BDFA"/>
</radialGradient>
<linearGradient id="paint1_linear" x1="17.062" y1="21.5" x2="17.0617" y2="0.500089" gradientUnits="userSpaceOnUse">
<stop stop-color="#4AC5FA"/>
<stop offset="1" stop-color="#97E8FC"/>
</linearGradient>
</defs>
</svg>
