<svg width="22" height="13" viewBox="0 0 22 13" fill="none" xmlns="http://www.w3.org/2000/svg">
<g clip-path="url(#clip0)">
<path d="M6.47 4.49094C6.47 4.74121 6.49763 4.94412 6.54598 5.09293C6.60125 5.24174 6.67032 5.40407 6.76703 5.57993C6.80157 5.63404 6.81539 5.68816 6.81539 5.7355C6.81539 5.80314 6.77394 5.87078 6.68414 5.93842L6.24894 6.22251C6.18677 6.26309 6.1246 6.28338 6.06934 6.28338C6.00026 6.28338 5.93118 6.24956 5.8621 6.18869C5.76539 6.08723 5.6825 5.979 5.61342 5.87078C5.54434 5.7558 5.47526 5.62728 5.39927 5.47171C4.86046 6.09399 4.18348 6.40513 3.36835 6.40513C2.78809 6.40513 2.32526 6.2428 1.98677 5.91813C1.64828 5.59346 1.47559 5.16057 1.47559 4.61946C1.47559 4.04452 1.68282 3.57781 2.1042 3.22609C2.52559 2.87436 3.08513 2.6985 3.79664 2.6985C4.03151 2.6985 4.27328 2.71879 4.52888 2.75261C4.78447 2.78643 5.04697 2.84054 5.32328 2.90142V2.40765C5.32328 1.89359 5.21276 1.5351 4.99861 1.32542C4.77756 1.11574 4.40453 1.01428 3.87263 1.01428C3.63085 1.01428 3.38217 1.04134 3.12657 1.10221C2.87098 1.16309 2.6223 1.23749 2.38052 1.33219C2.26999 1.37953 2.1871 1.40659 2.13874 1.42012C2.09039 1.43365 2.05585 1.44041 2.02822 1.44041C1.93151 1.44041 1.88315 1.37277 1.88315 1.23073V0.899296C1.88315 0.791073 1.89697 0.709906 1.93151 0.662558C1.96605 0.615211 2.02822 0.567863 2.12493 0.520516C2.3667 0.398765 2.65684 0.297306 2.99532 0.216139C3.33381 0.128208 3.69302 0.0876245 4.07295 0.0876245C4.89499 0.0876245 5.49598 0.27025 5.88282 0.635503C6.26276 1.00075 6.45618 1.5554 6.45618 2.29943V4.49094H6.47ZM3.66539 5.51906C3.89335 5.51906 4.12822 5.47847 4.3769 5.39731C4.62559 5.31614 4.84664 5.16733 5.03315 4.96442C5.14368 4.8359 5.22657 4.69386 5.26802 4.53152C5.30947 4.36919 5.3371 4.17304 5.3371 3.94306V3.65898C5.13677 3.61163 4.92263 3.57105 4.70157 3.54399C4.48052 3.51694 4.26638 3.50341 4.05223 3.50341C3.5894 3.50341 3.25092 3.59134 3.02295 3.77396C2.79499 3.95659 2.68447 4.21362 2.68447 4.55182C2.68447 4.86972 2.76736 5.10646 2.94006 5.26879C3.10585 5.43789 3.34763 5.51906 3.66539 5.51906ZM9.21243 6.24956C9.08809 6.24956 9.00519 6.22927 8.94993 6.18192C8.89467 6.14134 8.84631 6.04664 8.80486 5.91813L7.18151 0.689614C7.14006 0.554335 7.11934 0.466404 7.11934 0.419057C7.11934 0.310834 7.1746 0.249959 7.28513 0.249959H7.9621C8.09335 0.249959 8.18315 0.270251 8.23151 0.317598C8.28677 0.358182 8.32822 0.452877 8.36967 0.581391L9.53019 5.05911L10.6078 0.581391C10.6424 0.446113 10.6838 0.358182 10.7391 0.317598C10.7943 0.277014 10.891 0.249959 11.0154 0.249959H11.568C11.6993 0.249959 11.7891 0.270251 11.8443 0.317598C11.8996 0.358182 11.948 0.452877 11.9756 0.581391L13.067 5.11322L14.2621 0.581391C14.3035 0.446113 14.3519 0.358182 14.4003 0.317598C14.4555 0.277014 14.5453 0.249959 14.6697 0.249959H15.3121C15.4226 0.249959 15.4848 0.30407 15.4848 0.419057C15.4848 0.452877 15.4779 0.486696 15.471 0.52728C15.4641 0.567863 15.4503 0.621975 15.4226 0.696378L13.7578 5.92489C13.7164 6.06017 13.668 6.1481 13.6128 6.18869C13.5575 6.22927 13.4677 6.25633 13.3503 6.25633H12.7562C12.6249 6.25633 12.5351 6.23603 12.4799 6.18869C12.4246 6.14134 12.3762 6.05341 12.3486 5.91813L11.2779 1.5554L10.2141 5.91137C10.1795 6.04664 10.1381 6.13457 10.0828 6.18192C10.0276 6.22927 9.93085 6.24956 9.80651 6.24956H9.21243ZM18.0891 6.43219C17.7299 6.43219 17.3707 6.3916 17.0253 6.31044C16.6799 6.22927 16.4105 6.14134 16.2309 6.03988C16.1203 5.979 16.0443 5.91137 16.0167 5.85049C15.9891 5.78961 15.9753 5.72197 15.9753 5.6611V5.31614C15.9753 5.1741 16.0305 5.10646 16.1341 5.10646C16.1756 5.10646 16.217 5.11322 16.2585 5.12675C16.2999 5.14028 16.3621 5.16733 16.4312 5.19439C16.6661 5.29585 16.9216 5.37702 17.1911 5.43113C17.4674 5.48524 17.7368 5.51229 18.0131 5.51229C18.4483 5.51229 18.7868 5.43789 19.0216 5.28908C19.2565 5.14028 19.3809 4.92383 19.3809 4.64651C19.3809 4.45712 19.3187 4.30155 19.1943 4.17304C19.07 4.04452 18.8351 3.92953 18.4966 3.82131L17.495 3.51694C16.9907 3.36136 16.6177 3.13139 16.3897 2.82701C16.1618 2.5294 16.0443 2.19797 16.0443 1.84625C16.0443 1.56216 16.1065 1.3119 16.2309 1.09545C16.3552 0.879004 16.521 0.689614 16.7282 0.540808C16.9355 0.385237 17.1703 0.270251 17.4466 0.189083C17.723 0.107916 18.0131 0.0740967 18.317 0.0740967C18.469 0.0740967 18.6279 0.0808606 18.7799 0.101152C18.9387 0.121444 19.0838 0.1485 19.2289 0.175556C19.367 0.209375 19.4983 0.243195 19.6226 0.283778C19.747 0.324362 19.8437 0.364946 19.9128 0.405529C20.0095 0.45964 20.0786 0.513752 20.12 0.574627C20.1614 0.628739 20.1822 0.703142 20.1822 0.797837V1.11574C20.1822 1.25778 20.1269 1.33219 20.0233 1.33219C19.968 1.33219 19.8782 1.30513 19.7608 1.25102C19.367 1.07516 18.9249 0.987227 18.4345 0.987227C18.0407 0.987227 17.7299 1.0481 17.5157 1.17662C17.3016 1.30513 17.1911 1.50129 17.1911 1.77861C17.1911 1.968 17.2601 2.13033 17.3983 2.25885C17.5364 2.38736 17.792 2.51587 18.1582 2.63086L19.1391 2.93524C19.6364 3.09081 19.9957 3.30725 20.2098 3.58457C20.4239 3.8619 20.5276 4.1798 20.5276 4.53152C20.5276 4.82237 20.4654 5.08617 20.348 5.31614C20.2236 5.54611 20.0578 5.74903 19.8437 5.91137C19.6295 6.08046 19.3739 6.20221 19.0769 6.29014C18.7661 6.38484 18.4414 6.43219 18.0891 6.43219Z" fill="#252F3E"/>
<path fill-rule="evenodd" clip-rule="evenodd" d="M19.3931 9.71967C17.1204 11.3633 13.8184 12.2359 10.9793 12.2359C7.00034 12.2359 3.41514 10.7951 0.707249 8.40071C0.493104 8.21132 0.686525 7.95429 0.942117 8.1031C3.87106 9.76702 7.48389 10.7748 11.2211 10.7748C13.7424 10.7748 16.5125 10.2608 19.0615 9.20562C19.4415 9.03652 19.7661 9.44912 19.3931 9.71967Z" fill="#FF9900"/>
<path fill-rule="evenodd" clip-rule="evenodd" d="M20.3397 8.66454C20.0495 8.29929 18.4193 8.48868 17.6801 8.57661C17.4591 8.60366 17.4245 8.41427 17.6248 8.27223C18.9235 7.37939 21.0581 7.63642 21.3068 7.93403C21.5554 8.23841 21.2377 10.3285 20.0219 11.3295C19.8354 11.4851 19.6558 11.4039 19.7387 11.201C20.015 10.5314 20.6298 9.02303 20.3397 8.66454Z" fill="#FF9900"/>
</g>
<defs>
<clipPath id="clip0">
<rect width="21" height="12.3103" fill="white" transform="translate(0.500488)"/>
</clipPath>
</defs>
</svg>
