<svg width="22" height="22" viewBox="0 0 22 22" fill="none" xmlns="http://www.w3.org/2000/svg">
<circle cx="11" cy="11" r="10.5" fill="black"/>
<path fill-rule="evenodd" clip-rule="evenodd" d="M10.5996 3.90249C10.8421 3.74084 11.1579 3.74084 11.4004 3.90249L17.8973 8.23374C18.0981 8.36762 18.2188 8.59301 18.2188 8.83437V13.1656C18.2188 13.407 18.0981 13.6324 17.8973 13.7663L11.4004 18.0975C11.1579 18.2592 10.8421 18.2592 10.5996 18.0975L4.1027 13.7663C3.90188 13.6324 3.78125 13.407 3.78125 13.1656V8.83437C3.78125 8.59301 3.90188 8.36762 4.1027 8.23374L10.5996 3.90249ZM5.225 10.1832L6.45018 11L5.225 11.8168V10.1832ZM5.8045 13.1656L10.2781 16.148V13.552L7.75156 11.8676L5.8045 13.1656ZM9.05294 11L11 12.298L12.9471 11L11 9.70196L9.05294 11ZM11.7219 8.44804L14.2484 10.1324L16.1955 8.83437L11.7219 5.85196V8.44804ZM10.2781 5.85196V8.44804L7.75156 10.1324L5.8045 8.83437L10.2781 5.85196ZM16.775 10.1832L15.5498 11L16.775 11.8168V10.1832ZM16.1955 13.1656L14.2484 11.8676L11.7219 13.552V16.148L16.1955 13.1656Z" fill="white"/>
</svg>
