<svg width="19" height="22" viewBox="0 0 19 22" fill="none" xmlns="http://www.w3.org/2000/svg">
<path d="M18.5165 0.5L16.8296 19.3978L9.24679 21.5L1.68489 19.4008L-0.000244141 0.5H18.5165Z" fill="#264DE4"/>
<path d="M15.3856 18.1945L16.8271 2.04547H9.2583V19.8932L15.3856 18.1945Z" fill="#2965F1"/>
<path d="M3.86279 9.05542L4.07056 11.3735H9.25802V9.05542H3.86279Z" fill="#EBEBEB"/>
<path d="M9.25826 4.36365H9.25024H3.44556L3.65628 6.68178H9.25826V4.36365Z" fill="#EBEBEB"/>
<path d="M9.25845 17.4876V15.0759L9.24829 15.0786L6.66661 14.3814L6.50157 12.5327H5.24707H4.17456L4.49933 16.1724L9.24778 17.4906L9.25845 17.4876Z" fill="#EBEBEB"/>
<path d="M12.1047 11.3736L11.8357 14.38L9.25024 15.0778V17.4895L14.0025 16.1725L14.0373 15.7808L14.5821 9.67802L14.6386 9.05554L15.0571 4.36365H9.25024V6.68177H12.5167L12.3058 9.05554H9.25024V11.3736H12.1047Z" fill="white"/>
</svg>
