<svg width="22" height="16" viewBox="0 0 22 16" fill="none" xmlns="http://www.w3.org/2000/svg">
<g clip-path="url(#clip0)">
<path d="M21.0444 6.172C20.9863 6.12436 20.4599 5.72627 19.3303 5.72627C19.038 5.72627 18.7356 5.75519 18.4433 5.80453C18.2297 4.32103 16.9924 3.6031 16.9428 3.56567L16.6403 3.39044L16.4455 3.67115C16.2028 4.04883 16.0166 4.47584 15.9106 4.91136C15.7055 5.75519 15.832 6.54968 16.261 7.22848C15.7448 7.51939 14.9074 7.58745 14.7314 7.59765H0.900607C0.540012 7.59765 0.247776 7.88857 0.247776 8.24753C0.228977 9.45032 0.432346 10.6514 0.851047 11.7862C1.32785 13.0264 2.03879 13.9485 2.95481 14.5099C3.98703 15.1393 5.67209 15.4983 7.57077 15.4983C8.42697 15.4983 9.28488 15.42 10.1325 15.2652C11.3117 15.0526 12.4414 14.6443 13.4821 14.0539C14.3401 13.5589 15.1091 12.9294 15.7619 12.1928C16.8625 10.961 17.5153 9.58472 17.9921 8.36322C18.0605 8.36322 18.1186 8.36322 18.187 8.36322C19.385 8.36322 20.125 7.88857 20.5334 7.48027C20.8068 7.22848 21.0102 6.91715 21.1572 6.56839L21.2443 6.3166L21.0444 6.172ZM12.4841 7.19956H14.3349C14.4221 7.19956 14.5007 7.13151 14.5007 7.03454V5.38602C14.5007 5.29925 14.4323 5.22099 14.3349 5.22099H12.4841C12.3969 5.22099 12.3183 5.28904 12.3183 5.38602V7.03454C12.3286 7.13151 12.3969 7.19956 12.4841 7.19956ZM9.90353 2.47856H11.7544C11.8415 2.47856 11.9201 2.41051 11.9201 2.31354V0.665022C11.9201 0.578258 11.8415 0.5 11.7544 0.5H9.90353C9.81637 0.5 9.73776 0.56805 9.73776 0.665022V2.31354C9.73776 2.40031 9.81466 2.47856 9.90353 2.47856ZM9.90353 4.84331H11.7544C11.8415 4.84331 11.9201 4.76506 11.9201 4.67829V3.02977C11.9201 2.94301 11.8415 2.86475 11.7544 2.86475H9.90353C9.81637 2.86475 9.73776 2.9328 9.73776 3.02977V4.67829C9.73776 4.76676 9.81466 4.84331 9.90353 4.84331ZM7.34177 4.84331H9.19259C9.27975 4.84331 9.35837 4.76506 9.35837 4.67829V3.02977C9.35837 2.94301 9.29001 2.86475 9.19259 2.86475H7.34177C7.25461 2.86475 7.17599 2.9328 7.17599 3.02977V4.67829C7.17599 4.76676 7.24435 4.84331 7.34177 4.84331ZM4.74069 4.84331H6.59152C6.67868 4.84331 6.75729 4.76506 6.75729 4.67829V3.02977C6.75729 2.94301 6.68893 2.86475 6.59152 2.86475H4.74069C4.65353 2.86475 4.57492 2.9328 4.57492 3.02977V4.67829C4.58518 4.76676 4.65353 4.84331 4.74069 4.84331ZM9.90353 7.19956H11.7544C11.8415 7.19956 11.9201 7.13151 11.9201 7.03454V5.38602C11.9201 5.29925 11.8518 5.22099 11.7544 5.22099H9.90353C9.81637 5.22099 9.73776 5.28904 9.73776 5.38602V7.03454C9.73776 7.13151 9.81466 7.19956 9.90353 7.19956ZM7.34177 7.19956H9.19259C9.27975 7.19956 9.35837 7.13151 9.35837 7.03454V5.38602C9.35837 5.29925 9.29001 5.22099 9.19259 5.22099H7.34177C7.25461 5.22099 7.17599 5.28904 7.17599 5.38602V7.03454C7.17599 7.13151 7.24435 7.19956 7.34177 7.19956ZM4.74069 7.19956H6.59152C6.67868 7.19956 6.75729 7.13151 6.75729 7.03454V5.38602C6.75729 5.29925 6.68893 5.22099 6.59152 5.22099H4.74069C4.65353 5.22099 4.57492 5.28904 4.57492 5.38602V7.03454C4.58518 7.13151 4.65353 7.19956 4.74069 7.19956ZM2.18918 7.19956H4.04001C4.12717 7.19956 4.20578 7.13151 4.20578 7.03454V5.38602C4.20578 5.29925 4.13742 5.22099 4.04001 5.22099H2.18918C2.10202 5.22099 2.02341 5.28904 2.02341 5.38602V7.03454C2.03366 7.13151 2.10202 7.19956 2.18918 7.19956Z" fill="#0091E2"/>
</g>
<defs>
<clipPath id="clip0">
<rect width="21" height="15" fill="white" transform="translate(0.249512 0.5)"/>
</clipPath>
</defs>
</svg>
