<svg width="15" height="22" viewBox="0 0 15 22" fill="none" xmlns="http://www.w3.org/2000/svg">
<path fill-rule="evenodd" clip-rule="evenodd" d="M7.25 10.7499C7.25 8.81694 8.817 7.24994 10.75 7.24994C12.683 7.24994 14.25 8.81694 14.25 10.7499C14.25 12.6829 12.683 14.2499 10.75 14.2499C8.817 14.2499 7.25 12.6829 7.25 10.7499Z" fill="#1ABCFE"/>
<path fill-rule="evenodd" clip-rule="evenodd" d="M0.25 17.75C0.25 15.817 1.817 14.25 3.75 14.25H7.25V17.75C7.25 19.683 5.683 21.25 3.75 21.25C1.817 21.25 0.25 19.683 0.25 17.75Z" fill="#0ACF83"/>
<path fill-rule="evenodd" clip-rule="evenodd" d="M7.25 0.249878V7.24988H10.75C12.683 7.24988 14.25 5.68287 14.25 3.74988C14.25 1.81688 12.683 0.249878 10.75 0.249878H7.25Z" fill="#FF7262"/>
<path fill-rule="evenodd" clip-rule="evenodd" d="M0.250488 3.74988C0.250488 5.68287 1.81749 7.24988 3.75049 7.24988H7.25049V0.249878H3.75049C1.81749 0.249878 0.250488 1.81688 0.250488 3.74988Z" fill="#F24E1E"/>
<path fill-rule="evenodd" clip-rule="evenodd" d="M0.25 10.7499C0.25 12.6829 1.817 14.2499 3.75 14.2499H7.25V7.24994H3.75C1.817 7.24994 0.25 8.81694 0.25 10.7499Z" fill="#A259FF"/>
</svg>
