<svg width="22" height="22" viewBox="0 0 22 22" fill="none" xmlns="http://www.w3.org/2000/svg">
<g clip-path="url(#clip0)">
<path d="M21.1039 10.0644L11.9352 0.896113C11.4073 0.367962 10.5509 0.367962 10.0225 0.896113L8.11882 2.80029L10.5338 5.21525C11.0951 5.02556 11.7386 5.15286 12.1859 5.60034C12.6359 6.05056 12.762 6.6996 12.5675 7.26295L14.8954 9.59061C15.4588 9.39635 16.1083 9.52205 16.558 9.97249C17.1865 10.601 17.1865 11.6193 16.558 12.2483C15.9291 12.877 14.9107 12.877 14.2816 12.2483C13.809 11.7752 13.6919 11.0804 13.9317 10.4981L11.7606 8.32725V14.04C11.9137 14.1159 12.0584 14.2169 12.1859 14.3444C12.8144 14.9729 12.8144 15.9913 12.1859 16.6204C11.5574 17.2487 10.5384 17.2487 9.91033 16.6204C9.28185 15.991 9.28185 14.9727 9.91033 14.3444C10.0657 14.1892 10.2456 14.0718 10.4376 13.9932V8.22715C10.2456 8.14853 10.0662 8.03221 9.91033 7.87589C9.43429 7.40007 9.31979 6.7012 9.56387 6.1166L7.18319 3.73547L0.896113 10.0219C0.367962 10.5505 0.367962 11.4068 0.896113 11.9349L10.0653 21.1034C10.5932 21.6316 11.4493 21.6316 11.9779 21.1034L21.1039 11.9775C21.632 11.4493 21.632 10.5925 21.1039 10.0644Z" fill="#F05133"/>
</g>
<defs>
<clipPath id="clip0">
<rect width="21" height="21" fill="white" transform="translate(0.5 0.5)"/>
</clipPath>
</defs>
</svg>
