<svg width="22" height="22" viewBox="0 0 22 22" fill="none" xmlns="http://www.w3.org/2000/svg">
<g clip-path="url(#clip0)">
<path d="M20.0914 5.98707C19.1524 4.37832 17.8788 3.10467 16.2702 2.16584C14.6614 1.22695 12.905 0.757629 10.9998 0.757629C9.09491 0.757629 7.33796 1.2271 5.72944 2.16584C4.12069 3.10463 2.84714 4.37832 1.90821 5.98707C0.969418 7.59578 0.5 9.35249 0.5 11.2572C0.5 13.5451 1.16752 15.6025 2.50289 17.4299C3.83812 19.2574 5.56304 20.5219 7.67751 21.2237C7.92364 21.2693 8.10584 21.2372 8.22431 21.1281C8.34283 21.0188 8.40201 20.882 8.40201 20.7181C8.40201 20.6907 8.39967 20.4448 8.39512 19.9798C8.39042 19.5149 8.38822 19.1093 8.38822 18.7633L8.07376 18.8177C7.87326 18.8544 7.62033 18.87 7.31497 18.8656C7.00975 18.8613 6.69289 18.8293 6.36483 18.7698C6.03663 18.7109 5.73136 18.5742 5.44879 18.36C5.16636 18.1458 4.96587 17.8654 4.84735 17.5193L4.71064 17.2047C4.61951 16.9953 4.47605 16.7626 4.28006 16.5075C4.08406 16.2523 3.88587 16.0792 3.68537 15.9881L3.58965 15.9196C3.52586 15.874 3.46668 15.8191 3.41195 15.7554C3.35726 15.6916 3.31632 15.6278 3.28898 15.564C3.26159 15.5 3.28428 15.4476 3.35731 15.4065C3.43033 15.3653 3.5623 15.3454 3.7538 15.3454L4.02713 15.3862C4.20943 15.4228 4.43492 15.5319 4.70389 15.7143C4.97272 15.8965 5.19371 16.1335 5.36691 16.425C5.57664 16.7988 5.82933 17.0836 6.12569 17.2796C6.42182 17.4756 6.72038 17.5734 7.0211 17.5734C7.32182 17.5734 7.58155 17.5506 7.80038 17.5053C8.01898 17.4597 8.22407 17.3912 8.41556 17.3001C8.49759 16.6892 8.72093 16.2199 9.08538 15.8918C8.56592 15.8372 8.0989 15.755 7.68407 15.6457C7.26948 15.5362 6.84105 15.3585 6.39907 15.1122C5.95685 14.8662 5.59 14.5608 5.29843 14.1964C5.00681 13.8318 4.76748 13.3531 4.58078 12.7608C4.39398 12.1683 4.30055 11.4848 4.30055 10.7101C4.30055 9.60705 4.66065 8.66841 5.3807 7.89362C5.04339 7.06435 5.07524 6.1347 5.47632 5.10479C5.74065 5.02267 6.13264 5.0843 6.6521 5.28929C7.17165 5.49438 7.55205 5.67007 7.79368 5.81574C8.03531 5.96136 8.22891 6.08476 8.37477 6.18484C9.22257 5.94795 10.0975 5.82948 10.9997 5.82948C11.902 5.82948 12.7771 5.94795 13.6249 6.18484L14.1445 5.85687C14.4997 5.63804 14.9192 5.4375 15.402 5.2552C15.8851 5.07299 16.2545 5.02281 16.5098 5.10493C16.9198 6.1349 16.9563 7.06449 16.6189 7.89377C17.3389 8.66855 17.6992 9.60743 17.6992 10.7102C17.6992 11.4849 17.6054 12.1706 17.4189 12.7677C17.2321 13.3648 16.9907 13.843 16.6946 14.2032C16.3982 14.5634 16.029 14.8664 15.587 15.1124C15.1449 15.3585 14.7163 15.5361 14.3018 15.6456C13.887 15.7551 13.4199 15.8373 12.9005 15.892C13.3743 16.302 13.6112 16.9492 13.6112 17.8332V20.7177C13.6112 20.8816 13.6682 21.0184 13.7822 21.1277C13.8962 21.2368 14.0761 21.269 14.3222 21.2232C16.437 20.5216 18.1619 19.257 19.4971 17.4295C20.8321 15.6021 21.4999 13.5447 21.4999 11.2568C21.4994 9.35235 21.0297 7.59578 20.0914 5.98707Z" fill="black"/>
</g>
<defs>
<clipPath id="clip0">
<rect width="21" height="21" fill="white" transform="translate(0.5 0.5)"/>
</clipPath>
</defs>
</svg>
