<svg width="22" height="22" viewBox="0 0 22 22" fill="none" xmlns="http://www.w3.org/2000/svg">
<g clip-path="url(#clip0)">
<path d="M1.90642 5.55638C0.0492369 8.22732 0.278924 11.7015 1.69905 14.547C1.73186 14.6153 1.76796 14.6822 1.80274 14.7491L1.86836 14.8771C1.88149 14.902 1.89592 14.9263 1.90971 14.9506C1.93399 14.9965 1.95892 15.0385 1.98386 15.0832L2.11971 15.3155L2.19714 15.4428L2.35464 15.6889L2.42158 15.7926C2.49574 15.9028 2.57121 16.0131 2.6493 16.1207L2.69392 16.1811C2.76157 16.274 2.83071 16.3659 2.9013 16.4567L2.98005 16.5564L3.17167 16.7927L3.24517 16.8806C3.33246 16.9837 3.42236 17.086 3.51227 17.1858C3.52146 17.1956 3.52539 17.1989 3.52802 17.2028C3.61717 17.2995 3.70775 17.3949 3.79971 17.489L3.88699 17.5769L4.10355 17.7895L4.19214 17.8748C4.2896 17.9668 4.38871 18.0569 4.48942 18.1452L4.81492 18.4208L4.92649 18.5101L5.15158 18.686L5.27167 18.7778L5.52433 18.959L5.64246 19.0423C5.72317 19.0981 5.80521 19.1513 5.88789 19.2044L5.99421 19.2753C6.12088 19.3557 6.24886 19.434 6.37811 19.5102L6.48442 19.5758L6.77317 19.7373C6.82568 19.7655 6.87949 19.7924 6.93264 19.8193L7.13871 19.9263L7.18661 19.9493L7.27192 19.9899L7.59874 20.1409L7.66764 20.1717C7.7938 20.2267 7.92091 20.2794 8.04892 20.3299L8.1408 20.3666L8.50042 20.4998L8.54636 20.5156C8.67915 20.5613 8.8126 20.6051 8.94667 20.6468L9.0438 20.6757C9.17505 20.7171 9.3168 20.7676 9.45724 20.7925C18.4439 22.4312 21.0532 15.3916 21.0532 15.3916C18.8613 18.2476 14.9697 19.001 11.2751 18.1623C11.1353 18.1308 10.9994 18.0875 10.8636 18.0468L10.7612 18.0159C10.6284 17.9751 10.4962 17.932 10.3648 17.8867L10.3104 17.867C10.1934 17.8255 10.077 17.7824 9.96124 17.7377L9.8628 17.6983C9.73595 17.6484 9.61014 17.5959 9.48546 17.5408L9.40999 17.508L9.09171 17.3597L8.99983 17.3157C8.91714 17.2763 8.83577 17.2324 8.75374 17.1845L8.58967 17.0992C8.48992 17.0467 8.3928 16.9902 8.29436 16.9338L8.19461 16.878C8.06542 16.8017 7.93743 16.7234 7.81071 16.6431C7.77592 16.6208 7.7418 16.5971 7.70702 16.5742L7.43402 16.3924C7.40383 16.3727 7.36839 16.3504 7.34608 16.3307L7.08752 16.1437L6.97267 16.057L6.73971 15.8746L6.63602 15.7913L6.34596 15.5465C6.33541 15.5372 6.32446 15.5285 6.31314 15.5202L6.00799 15.2426L5.92267 15.1599L5.7048 14.9434L5.61949 14.8581C5.52761 14.7642 5.43836 14.6697 5.35699 14.5733C5.35239 14.5687 5.3478 14.5641 5.34386 14.5588C5.25094 14.4568 5.15993 14.3531 5.07086 14.2478L5.00524 14.1624L4.80836 13.9196L4.74274 13.8297L4.51567 13.5278C2.45636 10.7375 1.72005 6.88004 3.35674 3.71691L1.90642 5.55638ZM7.67486 3.30675C6.33086 5.24072 6.40371 7.83488 7.45174 9.8745C7.62735 10.2183 7.82599 10.5498 8.0463 10.8668C8.24777 11.1555 8.47089 11.4987 8.73799 11.7304C8.83511 11.8373 8.93617 11.9404 9.03986 12.0434L9.11861 12.1222C9.21891 12.22 9.32154 12.3154 9.42639 12.4083C9.43099 12.4116 9.43427 12.4162 9.43952 12.4194C9.55896 12.5244 9.67971 12.6163 9.80242 12.72L9.8838 12.7837C10.0069 12.8786 10.1325 12.9703 10.2605 13.0586L10.2716 13.0665C10.3281 13.1059 10.3858 13.142 10.4436 13.18C10.4711 13.1978 10.4974 13.2168 10.525 13.2338C10.6167 13.2927 10.7097 13.3496 10.8039 13.4045L10.8432 13.4274L11.09 13.5587C11.1189 13.5751 11.1556 13.5889 11.1779 13.6046L11.3505 13.6939C11.3591 13.6985 11.3682 13.7018 11.3768 13.7057C11.4951 13.7646 11.6151 13.8204 11.7364 13.873L11.8151 13.9058C11.9129 13.9473 12.0113 13.9872 12.1105 14.0253L12.2365 14.0712C12.3263 14.1039 12.4167 14.1352 12.5075 14.1651L12.6302 14.2044C12.7595 14.2438 12.8927 14.2963 13.022 14.318C19.9605 15.4677 21.5624 10.118 21.5624 10.118C20.1187 12.1983 17.3231 13.1892 14.3384 12.4148C14.2065 12.3801 14.0754 12.3423 13.9453 12.3013C13.906 12.2895 13.8666 12.2764 13.8272 12.2633L13.5516 12.1688L13.4203 12.1228C13.3213 12.0846 13.2228 12.0448 13.125 12.0034L13.045 11.9706C12.9229 11.9175 12.8021 11.8615 12.6827 11.8026L12.5009 11.7107L12.3959 11.6569C12.3187 11.615 12.2421 11.5719 12.1662 11.5276L12.1111 11.4968C12.0172 11.4418 11.9245 11.3849 11.8329 11.3261C11.8046 11.3084 11.7771 11.2887 11.7489 11.2703L11.5684 11.1509C11.4413 11.0628 11.3166 10.9713 11.1943 10.8766L11.109 10.811C9.79652 9.77935 8.76752 8.36972 8.27533 6.77241C7.75952 5.11538 7.87042 3.25491 8.76424 1.74554L7.67486 3.30675ZM12.5259 1.62544C11.7344 2.79685 11.6557 4.23929 12.2056 5.52685C12.7851 6.89382 13.9729 7.96547 15.3596 8.47997L15.5315 8.5456L15.6076 8.56922L15.855 8.63485C19.6862 9.3751 20.7244 6.66872 21.002 6.27038C20.0918 7.58091 18.5621 7.89525 16.6852 7.43982C16.5369 7.40372 16.3741 7.34991 16.2311 7.29938C16.0474 7.2343 15.8674 7.1596 15.6916 7.0756C15.358 6.91517 15.0413 6.72193 14.746 6.49875C13.0666 5.22497 12.0232 2.78766 13.1191 0.808411" fill="#0868AC"/>
</g>
<defs>
<clipPath id="clip0">
<rect width="21" height="21" fill="white" transform="translate(0.5 0.5)"/>
</clipPath>
</defs>
</svg>
