<svg width="22" height="22" viewBox="0 0 22 22" fill="none" xmlns="http://www.w3.org/2000/svg">
<g clip-path="url(#clip0)">
<rect x="0.499512" y="0.5" width="21" height="21" fill="#FFCA28"/>
<path d="M13.3482 18.18L14.9147 17.1704C15.0374 17.5461 15.8149 18.4383 16.7968 18.4383C17.7788 18.4383 18.2347 17.9159 18.2347 17.5695C18.2347 16.6257 17.232 16.293 16.7504 16.1331C16.6719 16.1071 16.6072 16.0856 16.563 16.0669C16.5404 16.0572 16.5061 16.0445 16.4621 16.0281C15.9264 15.8288 13.9502 15.0934 13.9502 12.9617C13.9502 10.6138 16.2766 10.3438 16.8027 10.3438C17.1469 10.3438 18.8017 10.3848 19.6259 11.8934L18.1061 12.9265C17.773 12.2691 17.2194 12.0519 16.8787 12.0519C16.037 12.0519 15.8616 12.6529 15.8616 12.9265C15.8616 13.6942 16.7761 14.0382 17.5483 14.3288C17.7503 14.4048 17.9425 14.4771 18.1061 14.5524C18.9478 14.9398 20.187 15.5738 20.187 17.5695C20.187 18.5691 19.3262 20.1875 17.1592 20.1875C14.2484 20.1875 13.4768 18.4852 13.3482 18.18Z" fill="#3E3E3E"/>
<path d="M5.74951 18.3805L7.38222 17.3714C7.51016 17.7469 8.00728 18.4392 8.7286 18.4392C9.44992 18.4392 9.8191 17.7175 9.8191 17.3714V10.5658H11.8271V17.3714C11.8596 18.3101 11.3251 20.1875 8.9662 20.1875C6.79737 20.1875 5.89572 18.932 5.74951 18.3805Z" fill="#3E3E3E"/>
</g>
<defs>
<clipPath id="clip0">
<rect width="21" height="21" fill="white" transform="translate(0.499512 0.5)"/>
</clipPath>
</defs>
</svg>
