<svg width="22" height="22" viewBox="0 0 22 22" fill="none" xmlns="http://www.w3.org/2000/svg">
<g clip-path="url(#clip0)">
<path d="M1.8503 11.0151V6.00334C1.84539 5.91512 1.86677 5.82742 1.91175 5.75136C1.95673 5.67531 2.02328 5.61432 2.10296 5.57612L10.7477 0.58337C10.9033 0.486245 11.0778 0.466557 11.2334 0.563682L19.9169 5.57546C19.9913 5.61829 20.0524 5.68086 20.0936 5.75625C20.1347 5.83164 20.1541 5.91692 20.1498 6.00268V16.0072C20.1541 16.093 20.1347 16.1783 20.0936 16.2537C20.0524 16.329 19.9913 16.3916 19.9169 16.4344L12.4573 20.746C12.0664 20.9799 11.6713 21.2066 11.2721 21.4259C11.0975 21.523 10.9223 21.523 10.7471 21.4259L2.08327 16.4331C1.92774 16.336 1.8503 16.2192 1.8503 16.0249V11.0132V11.0151Z" fill="#009438"/>
<path d="M7.96928 9.14936V14.99C7.96928 15.6502 7.44428 16.2329 6.74537 16.2139C6.31881 16.1942 5.98806 16.0196 5.761 15.6508C5.64419 15.4763 5.60547 15.282 5.60547 15.0681V6.95486C5.60547 6.41017 5.93556 6.02298 6.36278 5.84776C6.79 5.67255 7.21722 5.71192 7.64509 5.84776C8.05328 5.96458 8.36369 6.21658 8.62947 6.52764L13.7968 12.7246C13.8165 12.7443 13.8362 12.7837 13.8742 12.8217V6.91549C13.8742 6.29402 14.3008 5.80839 14.9045 5.74998C15.6618 5.65286 16.1672 6.19623 16.2446 6.76061V15.0294C16.2446 15.4887 16.0307 15.8261 15.6422 16.04C15.3508 16.1955 15.0397 16.2342 14.7103 16.2146C14.2338 16.1828 13.7819 15.9911 13.428 15.6705C13.2337 15.496 13.0979 15.282 12.9227 15.0878L8.00734 9.2012C8.00734 9.18152 7.98766 9.16183 7.96797 9.14214L7.96928 9.14936Z" fill="#FEFEFE"/>
</g>
<defs>
<clipPath id="clip0">
<rect width="21" height="21" fill="white" transform="translate(0.5 0.5)"/>
</clipPath>
</defs>
</svg>
