<svg width="22" height="21" viewBox="0 0 22 21" fill="none" xmlns="http://www.w3.org/2000/svg">
<g clip-path="url(#clip0)">
<path d="M4.21875 0.249939H17.7812C19.8375 0.249939 21.5 1.89417 21.5 3.92782V16.8221C21.5 18.8557 19.8375 20.4999 17.7812 20.4999H4.21875C2.1625 20.4999 0.5 18.8557 0.5 16.8221V3.92782C0.5 1.89417 2.1625 0.249939 4.21875 0.249939Z" fill="#001E36"/>
<path d="M5.2251 14.4509V5.5461C5.2251 5.48553 5.25135 5.45091 5.3126 5.45091C5.46135 5.45091 5.60135 5.45091 5.8026 5.44226C6.0126 5.4336 6.23135 5.4336 6.4676 5.42495C6.70385 5.41629 6.9576 5.41629 7.22885 5.40764C7.5001 5.39899 7.7626 5.39899 8.0251 5.39899C8.7426 5.39899 9.3376 5.48553 9.8276 5.66726C10.2651 5.81437 10.6676 6.05668 11.0001 6.37687C11.2801 6.65379 11.4989 6.99129 11.6389 7.36341C11.7701 7.72687 11.8401 8.09899 11.8401 8.48841C11.8401 9.23264 11.6651 9.84706 11.3151 10.3317C10.9651 10.8163 10.4751 11.1798 9.90635 11.3874C9.31135 11.6038 8.6551 11.6817 7.9376 11.6817C7.7276 11.6817 7.5876 11.6817 7.5001 11.673C7.4126 11.6644 7.2901 11.6644 7.12385 11.6644V14.4423C7.1326 14.5028 7.08885 14.5548 7.0276 14.5634C7.01885 14.5634 7.0101 14.5634 6.9926 14.5634H5.3301C5.2601 14.5634 5.2251 14.5288 5.2251 14.4509ZM7.1326 7.1211V10.0288C7.2551 10.0374 7.36885 10.0461 7.47385 10.0461H7.9376C8.27885 10.0461 8.6201 9.99418 8.94385 9.89033C9.22385 9.81245 9.46885 9.64803 9.66135 9.43168C9.8451 9.21533 9.9326 8.9211 9.9326 8.54033C9.94135 8.27206 9.87135 8.00379 9.73135 7.77014C9.5826 7.54514 9.3726 7.37206 9.11885 7.27687C8.7951 7.14706 8.4451 7.09514 8.08635 7.10379C7.85885 7.10379 7.6576 7.10379 7.49135 7.11245C7.31635 7.10379 7.19385 7.11245 7.1326 7.1211Z" fill="#31A8FF"/>
<path d="M17.3003 9.50094C17.0378 9.36247 16.7578 9.26728 16.4603 9.20671C16.1365 9.13747 15.8128 9.0942 15.4803 9.0942C15.3053 9.08555 15.1215 9.11151 14.9553 9.15478C14.8415 9.18074 14.7453 9.24132 14.684 9.32786C14.6403 9.39709 14.614 9.48363 14.614 9.56151C14.614 9.6394 14.649 9.71728 14.7015 9.78651C14.7803 9.88171 14.8853 9.95959 14.999 10.0202C15.2003 10.124 15.4103 10.2192 15.6203 10.3057C16.0928 10.4615 16.5478 10.6779 16.9678 10.9375C17.2565 11.1192 17.4928 11.3615 17.659 11.6557C17.799 11.9327 17.869 12.2356 17.8603 12.5471C17.869 12.9538 17.7465 13.3606 17.519 13.6981C17.274 14.0442 16.9328 14.3125 16.539 14.4682C16.1103 14.65 15.5853 14.7452 14.9553 14.7452C14.5528 14.7452 14.159 14.7106 13.7653 14.6327C13.459 14.5807 13.1528 14.4856 12.8728 14.3557C12.8115 14.3211 12.7678 14.2606 12.7765 14.1913V12.6856C12.7765 12.6596 12.7853 12.625 12.8115 12.6077C12.8378 12.5904 12.864 12.599 12.8903 12.6163C13.2315 12.8154 13.5903 12.9538 13.9753 13.0404C14.3078 13.1269 14.6578 13.1702 15.0078 13.1702C15.3403 13.1702 15.5765 13.1269 15.734 13.049C15.874 12.9884 15.9703 12.8413 15.9703 12.6856C15.9703 12.5644 15.9003 12.4519 15.7603 12.3394C15.6203 12.2269 15.3315 12.0971 14.9028 11.9327C14.4565 11.7769 14.0453 11.5692 13.6603 11.3096C13.389 11.1192 13.1615 10.8682 12.9953 10.574C12.8553 10.2971 12.7853 9.99421 12.794 9.69132C12.794 9.31921 12.899 8.9644 13.0915 8.6442C13.3103 8.29805 13.634 8.02113 14.0103 7.84805C14.4215 7.64036 14.9378 7.54517 15.559 7.54517C15.9178 7.54517 16.2853 7.57113 16.644 7.62305C16.9065 7.65767 17.1603 7.7269 17.3965 7.82209C17.4315 7.83074 17.4665 7.86536 17.484 7.89997C17.4928 7.93459 17.5015 7.9692 17.5015 8.00382V9.4144C17.5015 9.44901 17.484 9.48363 17.4578 9.50094C17.379 9.51824 17.3353 9.51824 17.3003 9.50094Z" fill="#31A8FF"/>
</g>
<defs>
<clipPath id="clip0">
<rect width="21" height="20.25" fill="white" transform="translate(0.5 0.249939)"/>
</clipPath>
</defs>
</svg>
