<svg width="22" height="12" viewBox="0 0 22 12" fill="none" xmlns="http://www.w3.org/2000/svg">
<path d="M0.5 6.23593C0.5 9.26573 5.2011 11.7219 11 11.7219C16.7989 11.7219 21.5 9.26573 21.5 6.23593C21.5 3.20616 16.7989 0.749931 11 0.749931C5.2011 0.749931 0.5 3.20616 0.5 6.23593Z" fill="url(#paint0_radial)"/>
<path d="M11 11.3146C16.5724 11.3146 21.0898 9.04082 21.0898 6.23594C21.0898 3.4311 16.5724 1.15725 11 1.15725C5.4276 1.15725 0.910156 3.4311 0.910156 6.23594C0.910156 9.04082 5.4276 11.3146 11 11.3146Z" fill="#777BB3"/>
<path d="M6.20369 6.86639C6.66189 6.86639 7.00395 6.78246 7.22038 6.61702C7.4345 6.45328 7.58238 6.16958 7.65989 5.77386C7.73217 5.40397 7.70463 5.1457 7.57809 5.00633C7.4487 4.86397 7.16896 4.79177 6.74665 4.79177H6.01441L5.60847 6.86639H6.20369ZM3.80873 9.42194C3.77474 9.42194 3.74245 9.40685 3.72085 9.38075C3.6992 9.35468 3.69043 9.32036 3.69692 9.2872L4.77274 3.78943C4.78315 3.73628 4.83005 3.69789 4.88459 3.69789H7.20325C7.93196 3.69789 8.47436 3.89441 8.81528 4.28206C9.15803 4.67175 9.26387 5.21647 9.12985 5.90105C9.07531 6.17995 8.98151 6.43898 8.85105 6.67088C8.72045 6.90305 8.54784 7.11787 8.33794 7.30949C8.08668 7.54305 7.80231 7.71242 7.49348 7.81207C7.18954 7.91041 6.79921 7.96028 6.33335 7.96028H5.39447L5.12635 9.33035C5.11594 9.38354 5.06908 9.42194 5.01454 9.42194H3.80873Z" fill="black"/>
<path d="M6.10899 4.9042H6.74731C7.25701 4.9042 7.43406 5.01528 7.49421 5.08148C7.59402 5.1914 7.61285 5.42315 7.54871 5.75166C7.47663 6.11943 7.34303 6.38019 7.15154 6.52662C6.9555 6.67652 6.6368 6.75249 6.20435 6.75249H5.74733L6.10899 4.9042ZM7.20391 3.58399H4.88521C4.77613 3.58399 4.68237 3.66079 4.66156 3.76712L3.58573 9.26489C3.57275 9.33124 3.59029 9.39985 3.63355 9.45202C3.67684 9.50419 3.74133 9.53436 3.80938 9.53436H5.01516C5.12427 9.53436 5.21804 9.45756 5.23885 9.35123L5.48905 8.0727H6.334C6.81184 8.0727 7.21409 8.02095 7.52949 7.91892C7.85386 7.81424 8.15229 7.63677 8.41642 7.39144C8.63486 7.19182 8.8148 6.96776 8.95114 6.72541C9.08752 6.48298 9.1855 6.21264 9.24235 5.92189C9.38343 5.20128 9.26882 4.62424 8.90173 4.2069C8.53821 3.79356 7.96696 3.58399 7.20391 3.58399ZM5.47089 6.97881H6.20435C6.6905 6.97881 7.05261 6.88787 7.29054 6.70594C7.52851 6.52398 7.689 6.2203 7.7724 5.79474C7.85219 5.38615 7.81584 5.09782 7.66336 4.92985C7.5107 4.76188 7.2054 4.67788 6.74731 4.67788H5.92115L5.47089 6.97881ZM7.20391 3.81031C7.90144 3.81031 8.4103 3.99212 8.73015 4.35578C9.04996 4.71944 9.14627 5.22705 9.01866 5.87874C8.96614 6.14719 8.87731 6.39264 8.75225 6.615C8.62704 6.83751 8.46355 7.04098 8.26151 7.22547C8.02073 7.44926 7.75326 7.60874 7.45893 7.70372C7.16461 7.79897 6.78973 7.84638 6.334 7.84638H5.30117L5.01516 9.30804H3.80938L4.88521 3.81031H7.20391Z" fill="white"/>
<path d="M11.8953 7.95953C11.8613 7.95953 11.829 7.94445 11.8074 7.91834C11.7857 7.89228 11.777 7.85799 11.7834 7.8248L12.2593 5.39226C12.3046 5.16092 12.2934 4.99487 12.2279 4.92471C12.1878 4.88182 12.0674 4.80989 11.7112 4.80989H10.849L10.2507 7.86795C10.2403 7.92113 10.1934 7.95953 10.1388 7.95953H8.94255C8.90852 7.95953 8.87628 7.94445 8.85463 7.91834C8.83299 7.89228 8.82421 7.85795 8.83071 7.8248L9.90653 2.32703C9.91694 2.27388 9.96384 2.23549 10.0184 2.23549H11.2147C11.2487 2.23549 11.2809 2.25057 11.3026 2.27664C11.3242 2.30274 11.333 2.33703 11.3265 2.37022L11.0669 3.69714H11.9944C12.7009 3.69714 13.1801 3.82087 13.4591 4.0754C13.7436 4.33507 13.8323 4.75026 13.7229 5.30957L13.2224 7.86795C13.212 7.92113 13.1651 7.95953 13.1106 7.95953H11.8953Z" fill="black"/>
<path d="M11.2148 2.12226H10.0185C9.90943 2.12226 9.81567 2.19906 9.79486 2.30539L8.71903 7.80316C8.70605 7.86951 8.72359 7.93812 8.76689 7.99029C8.81018 8.04246 8.87467 8.07263 8.94272 8.07263H10.139C10.2481 8.07263 10.3419 7.99583 10.3627 7.8895L10.9431 4.92299H11.7113C12.0669 4.92299 12.1416 4.99843 12.1446 5.00167C12.1661 5.02472 12.1945 5.13147 12.1477 5.37062L11.6718 7.80316C11.6588 7.86951 11.6763 7.93812 11.7196 7.99029C11.7629 8.04246 11.8274 8.07263 11.8955 8.07263H13.1107C13.2198 8.07263 13.3136 7.99583 13.3344 7.8895L13.8349 5.33112C13.9524 4.73058 13.8519 4.28009 13.5364 3.99205C13.2353 3.71741 12.731 3.58392 11.9945 3.58392H11.2052L11.4385 2.39177C11.4515 2.32542 11.434 2.25677 11.3907 2.20464C11.3474 2.15247 11.2829 2.12226 11.2148 2.12226ZM11.2148 2.34858L10.9288 3.81024H11.9945C12.6651 3.81024 13.1276 3.9265 13.3822 4.1587C13.6368 4.39106 13.713 4.76754 13.6113 5.28797L13.1107 7.84631H11.8955L12.3714 5.41381C12.4255 5.13709 12.4056 4.94834 12.3116 4.8477C12.2175 4.74706 12.0174 4.69667 11.7113 4.69667H10.7552L10.139 7.84631H8.94272L10.0185 2.34858H11.2148Z" fill="white"/>
<path d="M15.6158 6.86565C16.074 6.86565 16.4161 6.78173 16.6325 6.61629C16.8466 6.45258 16.9945 6.16889 17.072 5.77312C17.1443 5.40324 17.1168 5.14497 16.9902 5.00559C16.8608 4.86324 16.5811 4.79104 16.1588 4.79104H15.4265L15.0206 6.86565H15.6158ZM13.2209 9.4212C13.1869 9.4212 13.1546 9.40612 13.133 9.38001C13.1113 9.35395 13.1025 9.31962 13.109 9.28647L14.1848 3.7887C14.1953 3.73555 14.2422 3.69715 14.2967 3.69715H16.6154C17.3441 3.69715 17.8865 3.89367 18.2274 4.28133C18.5702 4.67098 18.676 5.21569 18.542 5.90032C18.4874 6.17922 18.3936 6.43825 18.2632 6.67015C18.1326 6.90232 17.96 7.11714 17.7501 7.30875C17.4988 7.54232 17.2144 7.71168 16.9056 7.81134C16.6017 7.90968 16.2113 7.95954 15.7455 7.95954H14.8065L14.5385 9.32962C14.5281 9.3828 14.4812 9.4212 14.4266 9.4212H13.2209Z" fill="black"/>
<path d="M15.5206 4.90414H16.1589C16.6686 4.90414 16.8456 5.01522 16.9058 5.08142C17.0056 5.19134 17.0245 5.42309 16.9603 5.75156C16.8882 6.11937 16.7546 6.38013 16.5631 6.52656C16.3671 6.67646 16.0484 6.75243 15.6159 6.75243H15.1589L15.5206 4.90414ZM16.6155 3.58393H14.2968C14.1878 3.58393 14.094 3.66073 14.0732 3.76706L12.9974 9.26483C12.9844 9.33118 13.0019 9.39979 13.0452 9.45196C13.0885 9.50413 13.1529 9.5343 13.221 9.5343H14.4268C14.5359 9.5343 14.6297 9.4575 14.6505 9.35117L14.9006 8.07264H15.7456C16.2234 8.07264 16.6257 8.02089 16.9411 7.91886C17.2654 7.81418 17.5639 7.63667 17.8281 7.3913C18.0465 7.19172 18.2264 6.9677 18.3627 6.72535C18.4991 6.48292 18.5971 6.21258 18.6539 5.92183C18.795 5.20118 18.6804 4.62414 18.3133 4.2068C17.9498 3.7935 17.3786 3.58393 16.6155 3.58393ZM14.8825 6.97875H15.6159C16.1021 6.97875 16.4642 6.88781 16.7021 6.70588C16.9401 6.52392 17.1006 6.22024 17.184 5.79468C17.2638 5.38609 17.2275 5.09776 17.0749 4.92979C16.9223 4.76182 16.617 4.67782 16.1589 4.67782H15.3327L14.8825 6.97875ZM16.6155 3.81025C17.313 3.81025 17.8219 3.99206 18.1417 4.35572C18.4616 4.71938 18.5578 5.22698 18.4302 5.87868C18.3777 6.14713 18.2889 6.39258 18.1638 6.61494C18.0386 6.83745 17.8751 7.04092 17.6731 7.22541C17.4323 7.4492 17.1648 7.60868 16.8705 7.70366C16.5762 7.7989 16.2013 7.84632 15.7456 7.84632H14.7128L14.4268 9.30798H13.221L14.2968 3.81025H16.6155Z" fill="white"/>
<defs>
<radialGradient id="paint0_radial" cx="0" cy="0" r="1" gradientUnits="userSpaceOnUse" gradientTransform="translate(6.80424 2.67864) scale(13.788 13.6946)">
<stop stop-color="#AEB2D5"/>
<stop offset="0.3" stop-color="#AEB2D5"/>
<stop offset="0.75" stop-color="#484C89"/>
<stop offset="1" stop-color="#484C89"/>
</radialGradient>
</defs>
</svg>
