<svg width="22" height="17" viewBox="0 0 22 17" fill="none" xmlns="http://www.w3.org/2000/svg">
<g clip-path="url(#clip0)">
<path d="M18.5714 9.54691C17.8372 9.55105 17.2014 9.72738 16.6682 9.98992C16.4714 9.60027 16.2745 9.2598 16.2417 9.00555C16.2048 8.71023 16.1597 8.52972 16.2048 8.17703C16.2499 7.82425 16.455 7.32386 16.455 7.28285C16.4508 7.24593 16.4098 7.06546 15.9874 7.06136C15.565 7.05726 15.1999 7.14339 15.1589 7.25414C15.1178 7.36488 15.0358 7.61918 14.9825 7.88168C14.9087 8.26722 14.1376 9.63304 13.6987 10.3508C13.5551 10.0719 13.4321 9.82582 13.4074 9.6289C13.3706 9.33363 13.3254 9.15312 13.3706 8.80043C13.4157 8.44765 13.6208 7.9473 13.6208 7.90629C13.6167 7.86937 13.5757 7.6889 13.1532 7.6848C12.7307 7.6807 12.3657 7.76683 12.3247 7.87757C12.2837 7.98832 12.2386 8.25082 12.1484 8.50511C12.0622 8.75941 11.0368 11.0399 10.7702 11.6346C10.6348 11.9381 10.5159 12.1801 10.4298 12.3442C10.3436 12.5082 10.4257 12.3565 10.4174 12.3729C10.3436 12.5123 10.3026 12.5903 10.3026 12.5903V12.5944C10.2452 12.697 10.1837 12.7954 10.1549 12.7954C10.1344 12.7954 10.0934 12.5205 10.1631 12.1432C10.3149 11.3516 10.684 10.1171 10.6799 10.072C10.6799 10.0514 10.7496 9.83402 10.442 9.72332C10.1426 9.61258 10.036 9.79715 10.0114 9.79715C9.98674 9.79715 9.96624 9.86277 9.96624 9.86277C9.96624 9.86277 10.2985 8.47238 9.33049 8.47238C8.72346 8.47238 7.88674 9.13274 7.47248 9.73567C7.20998 9.87922 6.65217 10.1827 6.06154 10.5068C5.83596 10.6298 5.60217 10.7611 5.38068 10.88L5.33561 10.8307C4.16256 9.57972 1.99283 8.69379 2.08307 7.01214C2.11588 6.40101 2.32916 4.7891 6.2503 2.83675C9.46182 1.23714 12.0335 1.67601 12.4805 2.65218C13.1163 4.04671 11.1065 6.6389 7.76788 7.01214C6.49639 7.1557 5.8278 6.66351 5.65967 6.47894C5.4833 6.28617 5.4587 6.27796 5.39307 6.31488C5.28643 6.3723 5.35206 6.54457 5.39307 6.6471C5.49151 6.9055 5.90167 7.36488 6.59893 7.59457C7.21002 7.79554 8.70304 7.90629 10.5077 7.20902C12.5298 6.42562 14.1089 4.25179 13.6454 2.4348C13.1737 0.584992 10.1058 -0.0220395 7.20596 1.00745C5.47916 1.62269 3.60885 2.58245 2.26353 3.84163C0.663924 5.3346 0.409627 6.6389 0.516268 7.18031C0.889551 9.11215 3.55143 10.3713 4.61783 11.3024C4.56451 11.3311 4.51529 11.3598 4.47018 11.3844C3.93697 11.6469 1.9067 12.7092 1.3981 13.833C0.823885 15.1045 1.48834 16.0192 1.93131 16.1422C3.30123 16.5237 4.70397 15.8387 5.46276 14.7108C6.2174 13.5829 6.12721 12.1186 5.77858 11.45L5.76623 11.4254L6.18459 11.1793C6.45534 11.0194 6.72194 10.8717 6.95569 10.7445C6.82448 11.1014 6.7301 11.5238 6.68092 12.1391C6.6235 12.861 6.91881 13.7961 7.30846 14.1652C7.48073 14.3252 7.68581 14.3293 7.81295 14.3293C8.26413 14.3293 8.4692 13.956 8.69479 13.509C8.9737 12.9635 9.21979 12.3318 9.21979 12.3318C9.21979 12.3318 8.91217 14.0422 9.75299 14.0422C10.0606 14.0422 10.3682 13.6443 10.5077 13.4393V13.4434C10.5077 13.4434 10.5159 13.4311 10.5323 13.4023C10.5495 13.3769 10.5659 13.3509 10.5815 13.3245V13.3163C10.7046 13.103 10.9794 12.6149 11.3895 11.8069C11.9186 10.7651 12.4272 9.46078 12.4272 9.46078C12.4272 9.46078 12.4764 9.7807 12.6282 10.3057C12.7184 10.6175 12.9153 10.9579 13.067 11.2901C12.944 11.4623 12.8701 11.5608 12.8701 11.5608L12.8742 11.5649C12.7758 11.6962 12.6651 11.8357 12.5503 11.9751C12.1319 12.4755 11.6315 13.0456 11.5659 13.2097C11.488 13.4024 11.5044 13.546 11.6561 13.6609C11.7669 13.7429 11.9637 13.7593 12.1729 13.7429C12.5503 13.7182 12.8128 13.624 12.944 13.5665C13.1491 13.4927 13.3829 13.3819 13.6085 13.2179C14.0186 12.9144 14.2688 12.4837 14.2442 11.9095C14.2319 11.5937 14.1294 11.282 14.0022 10.9866C14.0391 10.9333 14.0761 10.88 14.113 10.8226C14.761 9.87508 15.2614 8.83332 15.2614 8.83332C15.2614 8.83332 15.3106 9.15324 15.4624 9.67824C15.5403 9.94485 15.6962 10.2361 15.8356 10.5232C15.2286 11.0195 14.8471 11.5937 14.7159 11.9711C14.4739 12.6683 14.6626 12.9841 15.0194 13.058C15.1793 13.0908 15.4091 13.017 15.5813 12.9431C15.7946 12.8734 16.053 12.7544 16.2909 12.5781C16.701 12.2746 17.0948 11.8521 17.0743 11.282C17.062 11.0195 16.9923 10.7611 16.8979 10.515C17.4147 10.3017 18.0832 10.1787 18.9323 10.2812C20.7575 10.4945 21.1184 11.6347 21.0487 12.1105C20.979 12.5863 20.5976 12.8488 20.4704 12.9308C20.3432 13.0088 20.3022 13.0375 20.3145 13.0949C20.3309 13.1811 20.3884 13.1769 20.4991 13.1606C20.6509 13.1359 21.4589 12.7709 21.4917 11.8932C21.5409 10.7651 20.4704 9.53465 18.5714 9.54691ZM4.49479 14.2924C3.89186 14.9528 3.04283 15.203 2.68189 14.9897C2.29225 14.7641 2.44396 13.792 3.18639 13.0907C3.63756 12.6641 4.22408 12.2704 4.60963 12.0284C4.69576 11.975 4.82701 11.8972 4.98287 11.8028C5.00748 11.7864 5.02389 11.7782 5.02389 11.7782C5.0526 11.7618 5.08541 11.7413 5.11822 11.7207C5.39303 12.7215 5.13053 13.5993 4.49479 14.2924ZM8.90397 11.2942C8.69479 11.8069 8.25182 13.1235 7.98522 13.0496C7.75549 12.9881 7.61608 11.9914 7.94006 11.0071C8.10412 10.5107 8.45276 9.92015 8.65784 9.69042C8.9901 9.32128 9.351 9.19824 9.44128 9.35C9.54792 9.54691 9.03522 10.9743 8.90397 11.2942ZM12.5421 13.0332C12.4518 13.0784 12.3698 13.1112 12.3329 13.0866C12.3042 13.0702 12.3698 13.0087 12.3698 13.0087C12.3698 13.0087 12.825 12.5206 13.0055 12.295C13.108 12.1638 13.2311 12.012 13.3623 11.8397V11.8889C13.3624 12.4795 12.7964 12.8733 12.5421 13.0332ZM15.3475 12.3934C15.2819 12.3442 15.2901 12.1924 15.5116 11.7166C15.5977 11.528 15.7946 11.2121 16.135 10.9127C16.176 11.0358 16.2007 11.1547 16.1965 11.2655C16.1925 12.0037 15.6675 12.2786 15.3475 12.3934Z" fill="#CF649A"/>
</g>
<defs>
<clipPath id="clip0">
<rect width="21" height="15.75" fill="white" transform="translate(0.499512 0.5)"/>
</clipPath>
</defs>
</svg>
