<svg width="22" height="22" viewBox="0 0 22 22" fill="none" xmlns="http://www.w3.org/2000/svg">
<g clip-path="url(#clip0)">
<path d="M21.1303 9.44794V18.7144C21.1303 20.0706 18.4992 21.1703 15.2534 21.1703C12.0076 21.1703 9.37663 20.0706 9.37663 18.7144V17.8699C5.5952 18.6635 0.869629 17.5483 0.869629 15.6733V3.28345C0.869629 1.92726 3.50063 0.827515 6.74644 0.827515C9.99225 0.827515 12.6233 1.92726 12.6233 3.28345V7.25133C16.4121 6.4566 21.1303 7.57767 21.1303 9.44794Z" fill="#8AB2FF"/>
<path d="M15.2539 6.99249C18.4997 6.99249 21.1307 8.09224 21.1307 9.44842C21.1307 10.805 18.4997 11.9048 15.2539 11.9048C11.0736 11.9048 8.16738 10.1062 9.85711 8.47484C11.0374 7.33429 13.6048 6.99249 15.2539 6.99249Z" fill="#A6C4FF"/>
<path d="M12.6233 3.28345V3.29331C12.6105 4.64539 9.98445 5.73979 6.74644 5.73979C3.50844 5.73979 0.882369 4.64539 0.869629 3.29331C0.869629 3.29002 0.869629 3.28674 0.869629 3.28345C0.869629 1.92726 3.50063 0.827515 6.74644 0.827515C9.99225 0.827515 12.6233 1.92726 12.6233 3.28345Z" fill="#A6C4FF"/>
<path d="M12.6239 3.29382V7.25184C11.4153 7.50491 9.37728 8.21592 9.37728 9.44845V17.8704C7.14964 18.3379 4.17194 18.1908 2.28564 17.2724C5.65043 14.3694 7.52917 10.1633 7.42231 5.72387C10.3426 5.58459 12.612 4.55056 12.6239 3.29382Z" fill="#7DA7FA"/>
<path d="M21.1304 9.44849V18.715C21.1304 20.6278 16.1777 21.7651 12.3398 20.8483C14.9677 18.5056 16.5797 15.3881 16.4364 11.8551C19.115 11.6262 21.1304 10.6358 21.1304 9.44849Z" fill="#7DA7FA"/>
<path d="M2.76909 1.80512C3.00572 1.80512 3.18067 1.57741 3.09613 1.35298C3.03215 1.18308 2.84257 1.09727 2.67259 1.16114C2.29118 1.30695 2.41817 1.80512 2.76909 1.80512Z" fill="#2C2C3D"/>
<path d="M13.2926 12.0969C13.5083 12.1283 13.6579 11.9874 13.6822 11.8219C13.7086 11.6422 13.5844 11.4751 13.4047 11.4487C13.1875 11.4175 13.0396 11.5592 13.0153 11.7236C12.9888 11.9033 13.1129 12.0704 13.2926 12.0969Z" fill="#2C2C3D"/>
<path d="M21.4586 9.40748C21.4354 8.62656 20.7552 7.91798 19.5364 7.40858C15.7707 5.83483 9.12486 6.86919 9.04961 9.40748C9.04788 9.4335 9.0485 10.4901 9.0485 14.5054C5.31122 15.1934 1.19905 14.0214 1.19905 12.5793V10.7658C2.74798 12.1551 6.08301 12.4105 8.16887 12.1992C8.34953 12.1809 8.48116 12.0196 8.46287 11.839C8.44455 11.6583 8.28299 11.5263 8.10266 11.545C4.56305 11.9033 1.19909 10.7797 1.19909 9.48495V7.6714C2.74699 9.05997 6.08186 9.31621 8.16891 9.10485C8.34957 9.0866 8.4812 8.92529 8.46292 8.74463C8.44459 8.56397 8.28304 8.43201 8.1027 8.45067C4.56305 8.80887 1.19913 7.68508 1.19913 6.39058V4.56499C3.42299 6.55977 10.0536 6.57572 12.2952 4.56499V5.9047C12.2952 6.08626 12.4424 6.23347 12.624 6.23347C12.8056 6.23347 12.9528 6.08626 12.9528 5.9047C12.9528 5.77343 12.9528 3.31401 12.9526 3.2905C12.9633 1.02961 7.74204 -0.0904775 3.83277 0.813072C3.65585 0.853963 3.54558 1.03056 3.58647 1.20748C3.62737 1.3844 3.80392 1.49454 3.98084 1.45377C9.22193 0.242035 15.16 2.8852 10.7758 4.71758C8.55966 5.64373 4.93411 5.64361 2.71831 4.71758C1.43346 4.18057 0.625505 3.33188 1.70281 2.43577C1.84242 2.31967 1.86144 2.11238 1.74535 1.97274C1.62921 1.83317 1.42192 1.81414 1.28231 1.93024C0.859756 2.28178 0.541504 2.73985 0.541504 3.29383V15.6736C0.541504 17.8469 5.30156 18.9174 9.0485 18.2673V18.7147C9.0485 21.2844 15.7565 22.3345 19.5364 20.7548C20.7767 20.2365 21.4597 19.5119 21.4597 18.7147C21.4597 18.5208 21.4603 9.43345 21.4586 9.40748ZM11.2253 8.01525C13.4415 7.0891 17.0671 7.08922 19.2829 8.01525C23.009 9.57257 19.2946 11.752 14.692 11.5646C14.5108 11.5568 14.3575 11.6983 14.3501 11.8798C14.3427 12.0612 14.4838 12.2143 14.6653 12.2216C16.5855 12.2998 19.4207 11.9686 20.8022 10.7294V12.5261C20.8022 13.0335 20.2484 13.5559 19.2829 13.9595C18.2121 14.407 16.7814 14.6534 15.2541 14.6534C12.0533 14.6534 9.70609 13.5717 9.70609 12.5261V10.731C10.1737 11.1501 10.8792 11.5086 11.7872 11.7752C11.9614 11.8262 12.1441 11.7266 12.1953 11.5524C12.2464 11.3782 12.1467 11.1954 11.9724 11.1443C9.48281 10.4134 8.78548 9.03498 11.2253 8.01525ZM1.19905 15.6736V13.8601C2.79882 15.2951 6.46928 15.6205 9.0485 15.173V17.5997C5.31122 18.2877 1.19905 17.1157 1.19905 15.6736ZM19.2829 20.1482C17.0667 21.0743 13.4412 21.0742 11.2253 20.1482C10.2598 19.7446 9.70605 19.2222 9.70605 18.7148C9.70605 18.4981 9.70605 16.9063 9.70605 16.9012C11.6608 18.6546 17.0598 18.8989 19.8897 17.5C20.0524 17.4195 20.1192 17.2223 20.0387 17.0595C19.9583 16.8967 19.761 16.8301 19.5983 16.9105C18.5219 17.4426 16.9385 17.7478 15.254 17.7478C12.0532 17.7478 9.70601 16.6661 9.70601 15.6204C9.70601 15.4038 9.70601 13.812 9.70601 13.8069C11.935 15.8063 18.5731 15.8063 20.8021 13.8069V18.7148C20.8021 19.2221 20.2484 19.7446 19.2829 20.1482Z" fill="#2C2C3D"/>
</g>
<defs>
<clipPath id="clip0">
<rect width="21" height="21" fill="white" transform="translate(0.500488 0.499878)"/>
</clipPath>
</defs>
</svg>
