<svg width="22" height="22" viewBox="0 0 22 22" fill="none" xmlns="http://www.w3.org/2000/svg">
<path d="M20.7575 2.71186L16.4332 0.629786C15.9327 0.388843 15.3345 0.4905 14.9417 0.883272L0.785549 13.7904C0.404747 14.1376 0.405238 14.737 0.786451 15.0836L1.9428 16.1348C2.25449 16.4182 2.72391 16.439 3.05954 16.1845L20.1068 3.25204C20.6787 2.81819 21.5002 3.22605 21.5002 3.94396V3.8937C21.5002 3.38985 21.2115 2.93051 20.7575 2.71186Z" fill="#0065A9"/>
<path d="M20.757 19.1672L16.4327 21.2492C15.9322 21.4902 15.334 21.3885 14.9412 20.9958L0.785061 8.08863C0.404258 7.74152 0.40475 7.14199 0.785963 6.79538L1.94231 5.74421C2.254 5.4608 2.72342 5.43998 3.05906 5.69462L20.1063 18.627C20.6782 19.0608 21.4997 18.653 21.4997 17.9351V17.9853C21.4997 18.4892 21.211 18.9485 20.757 19.1672Z" fill="#007ACC"/>
<path d="M16.4326 21.2497C15.932 21.4905 15.3338 21.3887 14.9409 20.9959C15.4249 21.4799 16.2526 21.137 16.2526 20.4525V1.42645C16.2526 0.741909 15.4249 0.399063 14.9409 0.883081C15.3338 0.490227 15.932 0.388406 16.4326 0.629185L20.7562 2.70847C21.2105 2.92695 21.4994 3.38646 21.4994 3.89056V17.9885C21.4994 18.4926 21.2105 18.9521 20.7562 19.1705L16.4326 21.2497Z" fill="#1F9CF0"/>
<path fill-rule="evenodd" clip-rule="evenodd" d="M15.3826 21.2905C15.7132 21.4192 16.0901 21.411 16.4237 21.2505L20.7446 19.1713C21.1987 18.9528 21.4875 18.4933 21.4875 17.9892V3.8913C21.4875 3.3872 21.1987 2.92769 20.7447 2.70921L16.4237 0.630006C15.9859 0.419314 15.4735 0.47088 15.0891 0.750272C15.0343 0.790197 14.982 0.834713 14.9329 0.88382L6.66107 8.43044L3.058 5.69546C2.72261 5.44083 2.25343 5.46165 1.9419 5.74506L0.786297 6.79622C0.405249 7.14284 0.404839 7.74237 0.785396 8.08948L3.91003 10.9402L0.785396 13.7909C0.404839 14.1381 0.405249 14.7376 0.786297 15.0842L1.9419 16.1354C2.25343 16.4188 2.72261 16.4396 3.058 16.185L6.66107 13.45L14.9329 20.9966C15.0637 21.1275 15.2175 21.2261 15.3826 21.2905ZM16.2439 6.17587L9.96737 10.9402L16.2439 15.7045V6.17587Z" fill="url(#paint0_linear)"/>
<defs>
<linearGradient id="paint0_linear" x1="10.9939" y1="0.50072" x2="10.9939" y2="21.3797" gradientUnits="userSpaceOnUse">
<stop stop-color="white" stop-opacity="0.25"/>
<stop offset="1" stop-color="white" stop-opacity="0"/>
</linearGradient>
</defs>
</svg>
