<svg width="22" height="22" viewBox="0 0 22 22" fill="none" xmlns="http://www.w3.org/2000/svg">
<g clip-path="url(#clip0)">
<path d="M1.99268 10.9997C1.99268 14.5651 4.06474 17.6463 7.06939 19.1065L2.77255 7.33392C2.27274 8.45417 1.99268 9.69388 1.99268 10.9997Z" fill="#464342"/>
<path d="M17.0813 10.5452C17.0813 9.43201 16.6814 8.66107 16.3384 8.06101C15.8818 7.31904 15.4538 6.6907 15.4538 5.94872C15.4538 5.12071 16.0818 4.34994 16.9664 4.34994C17.0064 4.34994 17.0443 4.35491 17.0832 4.35714C15.4806 2.88896 13.3454 1.99255 11.0003 1.99255C7.85341 1.99255 5.08477 3.60711 3.47412 6.05259C3.68546 6.05893 3.88463 6.06339 4.0538 6.06339C4.99599 6.06339 6.45444 5.94907 6.45444 5.94907C6.94002 5.92044 6.99726 6.63362 6.5122 6.69104C6.5122 6.69104 6.02422 6.74846 5.48122 6.77691L8.76149 16.5336L10.7328 10.6217L9.32934 6.77657C8.84428 6.74812 8.38475 6.6907 8.38475 6.6907C7.89934 6.66225 7.95625 5.9201 8.44166 5.94872C8.44166 5.94872 9.92924 6.06305 10.8144 6.06305C11.7564 6.06305 13.215 5.94872 13.215 5.94872C13.7009 5.9201 13.758 6.63328 13.2728 6.6907C13.2728 6.6907 12.7838 6.74812 12.2418 6.77657L15.497 16.4594L16.3955 13.4571C16.7849 12.2112 17.0813 11.3163 17.0813 10.5452Z" fill="#464342"/>
<path d="M11.1582 11.7877L8.45557 19.6409C9.26252 19.8781 10.1159 20.0078 11.0002 20.0078C12.0491 20.0078 13.0551 19.8265 13.9915 19.4972C13.9673 19.4587 13.9454 19.4177 13.9274 19.3731L11.1582 11.7877Z" fill="#464342"/>
<path d="M18.9045 6.67816C18.9433 6.96508 18.9652 7.27308 18.9652 7.60439C18.9652 8.51844 18.7945 9.54596 18.2803 10.8308L15.5288 18.7858C18.2068 17.2242 20.008 14.323 20.008 10.9999C20.0082 9.43387 19.6081 7.96123 18.9045 6.67816Z" fill="#464342"/>
<path d="M11.0003 0.5C5.2106 0.5 0.5 5.21014 0.5 10.9997C0.5 16.79 5.2106 21.5 11.0003 21.5C16.7899 21.5 21.5012 16.79 21.5012 10.9997C21.501 5.21014 16.7899 0.5 11.0003 0.5ZM11.0003 21.0187C5.4761 21.0187 0.981464 16.5242 0.981464 10.9997C0.981464 5.47564 5.47593 0.981452 11.0003 0.981452C16.5244 0.981452 21.0187 5.47564 21.0187 10.9997C21.0187 16.5242 16.5244 21.0187 11.0003 21.0187Z" fill="#464342"/>
</g>
<defs>
<clipPath id="clip0">
<rect width="21" height="21" fill="white" transform="translate(0.5 0.5)"/>
</clipPath>
</defs>
</svg>
