<svg width="348" height="42" viewbox="0 0 348 42" fill="none" xmlns="http://www.w3.org/2000/svg"><g filter="url(#filter0_di)"><path d="M11.56 2c1.36 0 2.653.413 3.88 1.24 1.227.8 2.213 1.893 2.96 3.28.747 1.36 1.12 2.853 1.12 4.48 0 1.6-.373 3.093-1.12 4.48-.747 1.387-1.733 2.493-2.96 3.32-1.227.8-2.52 1.2-3.88 1.2H4.6v7.56c0 .72-.213 1.307-.64 1.76-.427.453-.987.68-1.68.68-.667 0-1.213-.227-1.64-.68-.427-.48-.64-1.067-.64-1.76V4.44c0-.693.227-1.267.68-1.72C1.16 2.24 1.747 2 2.44 2h9.12zm0 13.44c.507 0 1-.213 1.48-.64a4.44 4.44 0 001.2-1.64c.32-.693.48-1.413.48-2.16 0-.747-.16-1.453-.48-2.12-.293-.693-.693-1.24-1.2-1.64-.48-.427-.973-.64-1.48-.64H4.6v8.84h6.96zM44.826 8.2c.694 0 1.267.227 1.72.68.454.453.68 1.04.68 1.76v16.92c0 .693-.226 1.28-.68 1.76-.453.453-1.026.68-1.72.68-.693 0-1.266-.227-1.72-.68-.426-.453-.653-1.027-.68-1.72-.666.773-1.573 1.44-2.72 2-1.12.533-2.306.8-3.56.8-1.84 0-3.506-.467-5-1.4-1.493-.96-2.68-2.28-3.56-3.96-.853-1.68-1.28-3.587-1.28-5.72 0-2.133.427-4.04 1.28-5.72.854-1.707 2.014-3.027 3.48-3.96a8.915 8.915 0 014.92-1.44c1.28 0 2.48.24 3.6.72 1.12.453 2.067 1.04 2.84 1.76v-.04c0-.693.227-1.267.68-1.72.454-.48 1.027-.72 1.72-.72zM36.746 26c1.734 0 3.147-.627 4.24-1.88 1.094-1.28 1.64-2.88 1.64-4.8s-.546-3.52-1.64-4.8c-1.093-1.28-2.506-1.92-4.24-1.92-1.706 0-3.106.64-4.2 1.92-1.093 1.28-1.64 2.88-1.64 4.8s.534 3.52 1.6 4.8C33.6 25.373 35.013 26 36.746 26zM74.148 8.2c.694 0 1.267.227 1.72.68.454.453.68 1.04.68 1.76v17.8c0 3.253-1.013 5.653-3.04 7.2-2 1.573-4.546 2.36-7.64 2.36-.8 0-1.906-.133-3.32-.4-1.387-.267-2.373-.533-2.96-.8-1.306-.56-1.96-1.333-1.96-2.32 0-.187.04-.4.12-.64.16-.587.427-1.04.8-1.36.4-.293.827-.44 1.28-.44.267 0 .52.04.76.12.107.027.76.267 1.96.72 1.227.48 2.334.72 3.32.72 1.974 0 3.44-.4 4.4-1.2.987-.773 1.48-1.88 1.48-3.32v-1.92c-.587.827-1.48 1.573-2.68 2.24-1.173.667-2.44 1-3.8 1-1.867 0-3.573-.467-5.12-1.4-1.52-.96-2.72-2.28-3.6-3.96-.88-1.68-1.32-3.587-1.32-5.72 0-2.133.427-4.04 1.28-5.72.88-1.707 2.067-3.027 3.56-3.96 1.52-.96 3.2-1.44 5.04-1.44 1.36 0 2.627.28 3.8.84 1.174.56 2.12 1.24 2.84 2.04v-.44c0-.693.227-1.267.68-1.72.454-.48 1.027-.72 1.72-.72zM65.868 26c1.787 0 3.24-.627 4.36-1.88 1.147-1.28 1.72-2.88 1.72-4.8s-.573-3.52-1.72-4.8c-1.12-1.28-2.573-1.92-4.36-1.92-1.786 0-3.24.64-4.36 1.92-1.12 1.28-1.68 2.88-1.68 4.8s.56 3.52 1.68 4.8c1.12 1.253 2.574 1.88 4.36 1.88zm38.291-7.2c-.026.64-.28 1.16-.76 1.56-.48.4-1.04.6-1.68.6h-13.2c.32 1.573 1.054 2.813 2.2 3.72A6.21 6.21 0 0094.6 26c1.094 0 1.947-.093 2.56-.28.614-.213 1.094-.427 1.44-.64.374-.24.627-.4.76-.48.48-.24.934-.36 1.36-.36.56 0 1.04.2 1.44.6.4.4.6.867.6 1.4 0 .72-.373 1.373-1.12 1.96-.746.613-1.746 1.133-3 1.56a11.72 11.72 0 01-3.8.64c-2.24 0-4.2-.467-5.88-1.4-1.653-.933-2.933-2.213-3.84-3.84-.906-1.653-1.36-3.507-1.36-5.56 0-2.293.48-4.307 1.44-6.04.96-1.733 2.227-3.053 3.8-3.96 1.574-.933 3.254-1.4 5.04-1.4 1.76 0 3.414.48 4.96 1.44a10.703 10.703 0 013.76 3.88 10.424 10.424 0 011.4 5.28zm-10.12-6.2c-3.093 0-4.92 1.453-5.48 4.36h10.48v-.28c-.106-1.12-.653-2.08-1.64-2.88-.986-.8-2.106-1.2-3.36-1.2zm44.774-4.4c2.72 0 4.6.813 5.64 2.44 1.04 1.6 1.56 3.827 1.56 6.68v10.24c0 .693-.226 1.28-.68 1.76-.453.453-1.026.68-1.72.68-.693 0-1.266-.227-1.72-.68-.453-.48-.68-1.067-.68-1.76V17.32c0-1.467-.306-2.613-.92-3.44-.613-.853-1.666-1.28-3.16-1.28-1.546 0-2.76.453-3.64 1.36-.88.88-1.32 2-1.32 3.36v10.24c0 .693-.226 1.28-.68 1.76-.453.453-1.026.68-1.72.68-.693 0-1.266-.227-1.72-.68-.453-.48-.68-1.067-.68-1.76V11.04c0-.693.227-1.267.68-1.72.454-.48 1.027-.72 1.72-.72.694 0 1.267.24 1.72.72.454.453.68 1.027.68 1.72v.68c.72-.96 1.654-1.787 2.8-2.48a7.416 7.416 0 013.84-1.04zm36.949 11.12c0 2.133-.48 4.053-1.44 5.76a10.173 10.173 0 01-3.96 3.92c-1.654.933-3.48 1.4-5.48 1.4-2.027 0-3.867-.467-5.52-1.4-1.654-.933-2.96-2.24-3.92-3.92-.96-1.707-1.44-3.627-1.44-5.76s.48-4.04 1.44-5.72c.96-1.707 2.266-3.027 3.92-3.96 1.653-.96 3.493-1.44 5.52-1.44 2 0 3.826.48 5.48 1.44 1.68.933 3 2.253 3.96 3.96.96 1.68 1.44 3.587 1.44 5.72zm-4.8 0c0-1.307-.28-2.467-.84-3.48-.534-1.04-1.267-1.84-2.2-2.4-.907-.56-1.92-.84-3.04-.84s-2.147.28-3.08.84c-.907.56-1.64 1.36-2.2 2.4-.534 1.013-.8 2.173-.8 3.48s.266 2.467.8 3.48c.56 1.013 1.293 1.8 2.2 2.36.933.56 1.96.84 3.08.84s2.133-.28 3.04-.84c.933-.56 1.666-1.347 2.2-2.36.56-1.013.84-2.173.84-3.48zm23.13 6.16c.373 0 .707.187 1 .56.32.347.48.813.48 1.4 0 .72-.4 1.333-1.2 1.84-.773.48-1.653.72-2.64.72-1.653 0-3.053-.347-4.2-1.04-1.12-.72-1.68-2.227-1.68-4.52V13.4h-1.84c-.64 0-1.173-.213-1.6-.64-.427-.427-.64-.96-.64-1.6 0-.613.213-1.12.64-1.52.427-.427.96-.64 1.6-.64h1.84V6.44c0-.693.227-1.267.68-1.72.48-.48 1.067-.72 1.76-.72.667 0 1.227.24 1.68.72.453.453.68 1.027.68 1.72V9h2.84c.64 0 1.173.213 1.6.64.427.427.64.96.64 1.6 0 .613-.213 1.133-.64 1.56-.427.4-.96.6-1.6.6h-2.84v10.84c0 .56.147.973.44 1.24.293.24.693.36 1.2.36.213 0 .507-.053.88-.16.32-.133.627-.2.92-.2zM229.63 4.64c-.907 0-1.547.267-1.92.8a2.77 2.77 0 00-.56 1.68V9h3.64c.64 0 1.173.213 1.6.64.427.4.64.92.64 1.56s-.213 1.173-.64 1.6c-.427.4-.96.6-1.6.6h-3.64v14.16c0 .693-.227 1.28-.68 1.76-.453.453-1.027.68-1.72.68-.693 0-1.267-.227-1.72-.68-.453-.48-.68-1.067-.68-1.76V13.4h-2.16c-.64 0-1.173-.2-1.6-.6-.427-.427-.64-.96-.64-1.6 0-.64.213-1.16.64-1.56.427-.427.96-.64 1.6-.64h2.16V7.16c0-2 .68-3.627 2.04-4.88 1.387-1.253 3.373-1.88 5.96-1.88.987 0 1.84.2 2.56.6.747.4 1.12 1.013 1.12 1.84 0 .64-.187 1.16-.56 1.56-.373.4-.827.6-1.36.6-.133 0-.28-.013-.44-.04-.133-.027-.28-.053-.44-.08-.64-.16-1.173-.24-1.6-.24zm30.96 14.68c0 2.133-.48 4.053-1.44 5.76a10.173 10.173 0 01-3.96 3.92c-1.654.933-3.48 1.4-5.48 1.4-2.027 0-3.867-.467-5.52-1.4-1.654-.933-2.96-2.24-3.92-3.92-.96-1.707-1.44-3.627-1.44-5.76s.48-4.04 1.44-5.72c.96-1.707 2.266-3.027 3.92-3.96 1.653-.96 3.493-1.44 5.52-1.44 2 0 3.826.48 5.48 1.44 1.68.933 3 2.253 3.96 3.96.96 1.68 1.44 3.587 1.44 5.72zm-4.8 0c0-1.307-.28-2.467-.84-3.48-.534-1.04-1.267-1.84-2.2-2.4-.907-.56-1.92-.84-3.04-.84s-2.147.28-3.08.84c-.907.56-1.64 1.36-2.2 2.4-.534 1.013-.8 2.173-.8 3.48s.266 2.467.8 3.48c.56 1.013 1.293 1.8 2.2 2.36.933.56 1.96.84 3.08.84s2.133-.28 3.04-.84c.933-.56 1.666-1.347 2.2-2.36.56-1.013.84-2.173.84-3.48zM284.48 8.6c.693 0 1.267.24 1.72.72.453.453.68 1.027.68 1.72V21.2c0 2.88-.8 5.133-2.4 6.76-1.573 1.627-3.827 2.44-6.76 2.44s-5.187-.813-6.76-2.44c-1.573-1.627-2.36-3.88-2.36-6.76V11.04c0-.693.227-1.267.68-1.72.453-.48 1.027-.72 1.72-.72.693 0 1.267.24 1.72.72.453.453.68 1.027.68 1.72V21.2c0 1.627.36 2.84 1.08 3.64.72.773 1.8 1.16 3.24 1.16 1.467 0 2.56-.387 3.28-1.16.72-.8 1.08-2.013 1.08-3.64V11.04c0-.693.227-1.267.68-1.72.453-.48 1.027-.72 1.72-.72zm23.037-.4c2.72 0 4.6.813 5.64 2.44 1.04 1.6 1.56 3.827 1.56 6.68v10.24c0 .693-.227 1.28-.68 1.76-.454.453-1.027.68-1.72.68-.694 0-1.267-.227-1.72-.68-.454-.48-.68-1.067-.68-1.76V17.32c0-1.467-.307-2.613-.92-3.44-.614-.853-1.667-1.28-3.16-1.28-1.547 0-2.76.453-3.64 1.36-.88.88-1.32 2-1.32 3.36v10.24c0 .693-.227 1.28-.68 1.76-.454.453-1.027.68-1.72.68-.694 0-1.267-.227-1.72-.68-.454-.48-.68-1.067-.68-1.76V11.04c0-.693.226-1.267.68-1.72.453-.48 1.026-.72 1.72-.72.693 0 1.266.24 1.72.72.453.453.68 1.027.68 1.72v.68c.72-.96 1.653-1.787 2.8-2.48a7.411 7.411 0 013.84-1.04zM341.225.4c.693 0 1.266.227 1.72.68.453.453.68 1.04.68 1.76v24.72c0 .693-.227 1.28-.68 1.76-.454.453-1.027.68-1.72.68-.694 0-1.267-.227-1.72-.68-.427-.453-.654-1.027-.68-1.72-.667.773-1.574 1.44-2.72 2a8.18 8.18 0 01-3.56.8c-1.84 0-3.507-.467-5-1.4-1.494-.96-2.68-2.28-3.56-3.96-.854-1.68-1.28-3.587-1.28-5.72 0-2.133.426-4.04 1.28-5.72.853-1.707 2.013-3.027 3.48-3.96a8.914 8.914 0 014.92-1.44c1.28 0 2.48.24 3.6.72 1.12.453 2.066 1.04 2.84 1.76V2.84c0-.693.226-1.267.68-1.72.453-.48 1.026-.72 1.72-.72zm-8.08 25.6c1.733 0 3.146-.627 4.24-1.88 1.093-1.28 1.64-2.88 1.64-4.8s-.547-3.52-1.64-4.8c-1.094-1.28-2.507-1.92-4.24-1.92-1.707 0-3.107.64-4.2 1.92-1.094 1.28-1.64 2.88-1.64 4.8s.533 3.52 1.6 4.8c1.093 1.253 2.506 1.88 4.24 1.88z" fill="#fff"/></g><defs><filter id="filter0_di" x="-1" y="-.6" width="348.625" height="42.6" filterUnits="userSpaceOnUse" color-interpolation-filters="sRGB"><feFlood flood-opacity="0" result="BackgroundImageFix"/><feColorMatrix in="SourceAlpha" values="0 0 0 0 0 0 0 0 0 0 0 0 0 0 0 0 0 0 127 0"/><feOffset dx="2" dy="2"/><feGaussianBlur stdDeviation="1"/><feColorMatrix values="0 0 0 0 0 0 0 0 0 0 0 0 0 0 0 0 0 0 0.1 0"/><feBlend in2="BackgroundImageFix" result="effect1_dropShadow"/><feBlend in="SourceGraphic" in2="effect1_dropShadow" result="shape"/><feColorMatrix in="SourceAlpha" values="0 0 0 0 0 0 0 0 0 0 0 0 0 0 0 0 0 0 127 0" result="hardAlpha"/><feOffset dx="-1" dy="-1"/><feGaussianBlur stdDeviation="1"/><feComposite in2="hardAlpha" operator="arithmetic" k2="-1" k3="1"/><feColorMatrix values="0 0 0 0 0 0 0 0 0 0 0 0 0 0 0 0 0 0 0.1 0"/><feBlend in2="shape" result="effect2_innerShadow"/></filter></defs></svg>