<svg width="20" height="20" viewBox="0 0 20 20" fill="none" xmlns="http://www.w3.org/2000/svg"><path d="M20 10.06c0-5.522-4.477-10-10-10-5.522 0-10 4.478-10 10 0 4.992 3.657 9.13 8.438 9.88v-6.988h-2.54V10.06h2.54V7.858c0-2.505 1.493-3.89 3.777-3.89 1.093 0 2.238.195 2.238.195v2.461h-1.261c-1.243 0-1.63.771-1.63 1.562v1.875h2.773l-.443 2.892h-2.33v6.987C16.343 19.19 20 15.052 20 10.06z" fill="url(#paint0_linear)"/><defs><linearGradient id="paint0_linear" x1="0" y1=".061" x2="20.715" y2=".836" gradientUnits="userSpaceOnUse"><stop stop-color="#C8BDE7"/><stop offset="1" stop-color="#EBB0CC"/></linearGradient></defs></svg>