<svg xmlns="http://www.w3.org/2000/svg" viewBox="0 0 20 20" width="20" height="20" xmlns:v="https://vecta.io/nano"><path d="M4.501 15c-.017 0-.034-.001-.052-.003a.5.5 0 0 1-.447-.544c.239-2.52 1.062-4.786 2.449-6.734C7.589 6.12 9.1 4.737 10.944 3.609 14.134 1.657 17.468 1 18.5 1a.5.5 0 0 1 .5.5c0 .944-.877 1.821-1.252 2.196-.611.611-1.712.993-2.777 1.363l-.093.032 1.557-.039h.101a.5.5 0 0 1 .405.787c-.8 1.145-1.776 2.037-2.983 2.727-.579.331-1.217.485-2.009.485-.462 0-.926-.052-1.375-.102l-1.309-.098c-.774 0-1.363.162-1.909.526a.36.36 0 0 1-.054.031c-.725.362-1.352 1.351-1.815 2.859a14.12 14.12 0 0 0-.491 2.289.5.5 0 0 1-.496.445zM17.805 2.068c-1.305.2-3.851.872-6.338 2.394-1.376.842-2.917 2.068-4.157 3.794.576-.275 1.211-.405 1.956-.405.484 0 .96.053 1.42.104l1.265.096c.611 0 1.091-.112 1.513-.353.789-.451 1.45-.98 2.028-1.629-.928.029-2.277.11-3.125.336a.5.5 0 0 1-.545-.76c.477-.715 1.616-1.111 2.823-1.53.958-.333 1.949-.677 2.398-1.126.158-.158.532-.532.763-.921zM7.568 16.925C7.562 16.919 7 16.284 7 15.5c0-.36-.193-.701-.544-.961a.5.5 0 0 0-.699.105.5.5 0 0 0 .105.699c.114.084.139.146.139.157 0 .017-.054.132-.309.26-.305.153-.739.24-1.191.24s-.885-.088-1.191-.24c-.256-.128-.309-.243-.309-.26 0-.008.016-.054.095-.122a.5.5 0 0 0 .051-.705.5.5 0 0 0-.705-.051c-.364.315-.441.651-.441.878 0 .785-.564 1.42-.568 1.425-.543.593-.543 1.557 0 2.15.087.095.91.925 3.068.925s2.981-.83 3.068-.925c.543-.593.543-1.557 0-2.15zm-.737 1.474c-.006.006-.627.601-2.331.601-1.656 0-2.293-.566-2.336-.606a.62.62 0 0 1 .005-.793c.022-.024.366-.405.604-.993l.089.047c.446.223 1.027.346 1.638.346s1.192-.123 1.638-.346l.089-.047c.238.588.582.969.604.993a.62.62 0 0 1 0 .799z" fill="#292D3D"/></svg>