<svg width="20" height="18" viewBox="0 0 20 18" fill="none" xmlns="http://www.w3.org/2000/svg"><path d="M12.068 9.589c-.665-.743-1.589-1.158-2.772-1.246 1.056-.286 1.818-.704 2.302-1.269.484-.564.719-1.305.719-2.25a4.033 4.033 0 00-.484-1.987 3.578 3.578 0 00-1.408-1.364C9.89 1.18 9.252.967 8.505.843 7.756.718 6.444.667 4.566.667H0v16.657h4.707c1.891 0 3.255-.064 4.09-.191.836-.132 1.533-.352 2.098-.652a3.85 3.85 0 001.605-1.57c.374-.674.565-1.458.565-2.353 0-1.239-.33-2.229-.997-2.969zM4.223 4.354h.975c1.129 0 1.887.127 2.273.382.388.256.579.696.579 1.32 0 .622-.213 1.026-.623 1.275-.41.25-1.18.366-2.302.366h-.902V4.354zm3.87 9.553c-.446.271-1.209.403-2.28.403h-1.59v-3.629H5.88c1.1 0 1.862.14 2.265.418.403.279.616.763.616 1.466 0 .704-.22 1.078-.674 1.35l.007-.008z" fill="url(#paint0_linear)"/><path d="M17.89 13.108a2.112 2.112 0 100 4.223 2.112 2.112 0 000-4.223z" fill="url(#paint1_linear)"/><path d="M19.721.667h-3.665v11.108h3.665V.667z" fill="url(#paint2_linear)"/><defs><linearGradient id="paint0_linear" x1="0" y1=".667" x2="13.539" y2="1.062" gradientUnits="userSpaceOnUse"><stop stop-color="#C8BDE7"/><stop offset="1" stop-color="#EBB0CC"/></linearGradient><linearGradient id="paint1_linear" x1="15.777" y1="13.108" x2="20.152" y2="13.271" gradientUnits="userSpaceOnUse"><stop stop-color="#C8BDE7"/><stop offset="1" stop-color="#EBB0CC"/></linearGradient><linearGradient id="paint2_linear" x1="16.056" y1=".667" x2="19.857" y2=".713" gradientUnits="userSpaceOnUse"><stop stop-color="#C8BDE7"/><stop offset="1" stop-color="#EBB0CC"/></linearGradient></defs></svg>