<svg width="20" height="20" viewBox="0 0 20 20" fill="none" xmlns="http://www.w3.org/2000/svg"><path d="M16.137 8.22a.526.526 0 010 1.05h-1.462v.938h1.462a.525.525 0 110 1.049H14.15a.526.526 0 01-.522-.524V6.756c0-.288.235-.525.525-.525h1.988a.525.525 0 01-.003 1.05h-1.462v.937h1.462zm-3.212 2.512a.525.525 0 01-.526.523.515.515 0 01-.425-.208L9.938 8.283v2.45a.525.525 0 01-1.047 0V6.756a.522.522 0 01.52-.524c.162 0 .312.087.412.212l2.052 2.775V6.757c0-.288.235-.525.525-.525.287 0 .525.237.525.525v3.976zm-4.784 0a.527.527 0 01-.526.525.526.526 0 01-.522-.524V6.756c0-.288.234-.525.524-.525.289 0 .524.237.524.525v3.976zm-2.055.525H4.097a.528.528 0 01-.525-.524V6.756a.527.527 0 011.05 0v3.45h1.464a.525.525 0 010 1.05zM20 8.595C20 4.119 15.512.477 10 .477 4.487.477 0 4.119 0 8.595c0 4.01 3.558 7.368 8.363 8.007.325.068.769.215.881.491.1.251.066.639.032.9l-.137.85c-.037.251-.2.989.874.538 1.076-.45 5.764-3.399 7.864-5.813C19.313 11.994 20 10.382 20 8.595z" fill="url(#paint0_linear)"/><defs><linearGradient id="paint0_linear" x1="0" y1=".477" x2="20.712" y2="1.286" gradientUnits="userSpaceOnUse"><stop stop-color="#C8BDE7"/><stop offset="1" stop-color="#EBB0CC"/></linearGradient></defs></svg>