<svg width="20" height="18" viewBox="0 0 20 18" fill="none" xmlns="http://www.w3.org/2000/svg"><path d="M15.678 7.55l-4.706 4.515a1.374 1.374 0 01-1.901 0L4.366 7.549a1.37 1.37 0 011.897-1.98l3.759 3.602 3.764-3.602a1.37 1.37 0 011.938.041 1.366 1.366 0 01-.037 1.938l-.01.001zm4.235-6.29a1.802 1.802 0 00-1.7-1.196H1.816c-.75 0-1.431.47-1.698 1.171A1.83 1.83 0 000 1.88v6.037l.07 1.201c.29 2.731 1.706 5.119 3.902 6.783.037.03.078.058.119.087l.025.02a9.915 9.915 0 003.912 1.726 9.966 9.966 0 003.832.03c.072-.024.146-.037.22-.05.018 0 .04-.012.06-.024 1.362-.3 2.624-.863 3.758-1.688l.024-.025.112-.088c2.19-1.662 3.604-4.051 3.905-6.79L20 7.9V1.87c0-.21-.026-.417-.1-.619l.013.009z" fill="url(#paint0_linear)"/><defs><linearGradient id="paint0_linear" x1="0" y1=".064" x2="20.708" y2=".926" gradientUnits="userSpaceOnUse"><stop stop-color="#C8BDE7"/><stop offset="1" stop-color="#EBB0CC"/></linearGradient></defs></svg>