<svg width="133" height="124" viewBox="0 0 133 124" fill="none" xmlns="http://www.w3.org/2000/svg"><g filter="url(#filter0_ddii)"><path fill-rule="evenodd" clip-rule="evenodd" d="M64.613 3.191C50.033 5.523 49.315 27.598 38.58 37.756c-8.54 8.08-23.373 7.756-29.383 17.868-6.513 10.959-8.33 25.448-3.335 37.18 4.872 11.445 17.467 17.011 28.678 22.355 9.442 4.501 19.653 6.494 30.074 5.652 9.752-.787 17.739-6.417 26.748-10.24 12.475-5.295 29.651-4.491 36.099-16.433 6.394-11.842-.637-26.661-6.218-38.909-5.088-11.166-14.74-18.595-23.767-26.89C87.062 18.768 78.564.96 64.613 3.19z" fill="url(#paint0_linear)"/></g><defs><linearGradient id="paint0_linear" x1="130" y1="3" x2="-1.514" y2="8.266" gradientUnits="userSpaceOnUse"><stop stop-color="#C8BDE7"/><stop offset="1" stop-color="#EBB0CC"/></linearGradient><filter id="filter0_ddii" x="0" y="0" width="133" height="124" filterUnits="userSpaceOnUse" color-interpolation-filters="sRGB"><feFlood flood-opacity="0" result="BackgroundImageFix"/><feColorMatrix in="SourceAlpha" values="0 0 0 0 0 0 0 0 0 0 0 0 0 0 0 0 0 0 127 0"/><feOffset dx="-1" dy="-1"/><feGaussianBlur stdDeviation="1"/><feColorMatrix values="0 0 0 0 0 0 0 0 0 0 0 0 0 0 0 0 0 0 0.1 0"/><feBlend in2="BackgroundImageFix" result="effect1_dropShadow"/><feColorMatrix in="SourceAlpha" values="0 0 0 0 0 0 0 0 0 0 0 0 0 0 0 0 0 0 127 0"/><feOffset dx="1" dy="1"/><feGaussianBlur stdDeviation="1"/><feColorMatrix values="0 0 0 0 1 0 0 0 0 1 0 0 0 0 1 0 0 0 0.9 0"/><feBlend in2="effect1_dropShadow" result="effect2_dropShadow"/><feBlend in="SourceGraphic" in2="effect2_dropShadow" result="shape"/><feColorMatrix in="SourceAlpha" values="0 0 0 0 0 0 0 0 0 0 0 0 0 0 0 0 0 0 127 0" result="hardAlpha"/><feOffset dx="2" dy="2"/><feGaussianBlur stdDeviation="1.5"/><feComposite in2="hardAlpha" operator="arithmetic" k2="-1" k3="1"/><feColorMatrix values="0 0 0 0 0 0 0 0 0 0 0 0 0 0 0 0 0 0 0.12 0"/><feBlend in2="shape" result="effect3_innerShadow"/><feColorMatrix in="SourceAlpha" values="0 0 0 0 0 0 0 0 0 0 0 0 0 0 0 0 0 0 127 0" result="hardAlpha"/><feOffset dx="-2" dy="-2"/><feGaussianBlur stdDeviation="1.5"/><feComposite in2="hardAlpha" operator="arithmetic" k2="-1" k3="1"/><feColorMatrix values="0 0 0 0 1 0 0 0 0 1 0 0 0 0 1 0 0 0 0.3 0"/><feBlend in2="effect3_innerShadow" result="effect4_innerShadow"/></filter></defs></svg>