<svg width="20" height="14" viewBox="0 0 20 14" fill="none" xmlns="http://www.w3.org/2000/svg"><path d="M.477 1.992c-.05.186-.077.38-.077.582 0 9.064-.003 8.481.007 8.617l5.805-5.393L.477 1.992zM9.866 7.742c-.887 0-1.303-.384-2.463-1.154L.99 12.546c.403.44.977.715 1.614.715h14.524c.637 0 1.21-.276 1.614-.715l-6.413-5.958c-1.16.77-1.577 1.154-2.463 1.154zM10.44 6.171L18.497.825a2.174 2.174 0 00-1.369-.486H2.605c-.517 0-.993.182-1.37.486L9.293 6.17c.348.231.798.231 1.147 0zM19.256 1.992L13.52 5.798l5.805 5.393c.003-.046.058-8.722-.07-9.199z" fill="gray"/></svg>