<svg xmlns="http://www.w3.org/2000/svg" width="22" height="22" fill="none" xmlns:v="https://vecta.io/nano"><g clip-path="url(#A)"><path d="M20.091 5.987c-.939-1.609-2.213-2.882-3.821-3.821S12.905.758 11 .758a10.27 10.27 0 0 0-5.27 1.408 10.45 10.45 0 0 0-3.821 3.821A10.27 10.27 0 0 0 .5 11.257c0 2.288.668 4.345 2.003 6.173s3.06 3.092 5.175 3.794c.246.046.428.014.547-.096s.178-.246.178-.41l-.007-.738-.007-1.216-.314.054c-.2.037-.453.052-.759.048s-.622-.036-.95-.096-.633-.196-.916-.41-.483-.495-.601-.841l-.137-.315a3.42 3.42 0 0 0-.431-.697c-.196-.255-.394-.428-.595-.519l-.096-.068c-.064-.046-.123-.101-.178-.164s-.096-.128-.123-.191-.005-.116.068-.158.205-.061.396-.061l.273.041c.182.037.408.146.677.328s.49.419.663.711c.21.374.462.659.759.855s.595.294.895.294.56-.023.779-.068a2.72 2.72 0 0 0 .615-.205c.082-.611.305-1.08.67-1.408-.519-.055-.986-.137-1.401-.246s-.843-.287-1.285-.534a3.68 3.68 0 0 1-1.101-.916c-.292-.365-.531-.843-.718-1.436s-.28-1.276-.28-2.051c0-1.103.36-2.042 1.08-2.816-.337-.829-.305-1.759.096-2.789.264-.082.656-.02 1.176.184s.9.381 1.142.526l.581.369c.848-.237 1.723-.355 2.625-.355a9.71 9.71 0 0 1 2.625.355l.52-.328c.355-.219.775-.419 1.257-.602s.853-.232 1.108-.15c.41 1.03.447 1.96.109 2.789.72.775 1.08 1.714 1.08 2.816 0 .775-.094 1.46-.28 2.057s-.428 1.075-.724 1.436a3.82 3.82 0 0 1-1.108.909c-.442.246-.871.424-1.285.533s-.882.192-1.401.246c.474.41.711 1.057.711 1.941v2.884c0 .164.057.301.171.41s.294.141.54.095a10.28 10.28 0 0 0 5.175-3.794c1.335-1.827 2.003-3.885 2.003-6.173 0-1.904-.47-3.661-1.408-5.27z" fill="#fff"/></g><defs><clipPath id="A"><path fill="#fff" transform="translate(.5 .5)" d="M0 0h21v21H0z"/></clipPath></defs></svg>