<svg width="16" height="14" viewBox="0 0 16 14" fill="none" xmlns="http://www.w3.org/2000/svg"><path d="M15.969 1.847a6.666 6.666 0 01-1.884.516A3.305 3.305 0 0015.527.548c-.634.37-1.336.64-2.084.79a3.28 3.28 0 00-5.59 2.987A9.292 9.292 0 011.093.908c-.294.5-.447 1.07-.444 1.65 0 1.14.58 2.142 1.459 2.73a3.27 3.27 0 01-1.485-.41v.04a3.282 3.282 0 002.63 3.218 3.33 3.33 0 01-1.474.057 3.29 3.29 0 003.069 2.278A6.578 6.578 0 010 11.829a9.33 9.33 0 005.038 1.473c6.035 0 9.332-4.997 9.332-9.323 0-.14 0-.28-.01-.42A6.623 6.623 0 0016 1.86l-.031-.013z" fill="#1DA1F2"/></svg>