<svg xmlns="http://www.w3.org/2000/svg" width="22" height="22" fill="none" xmlns:v="https://vecta.io/nano"><style><![CDATA[.B{fill-rule:evenodd}]]></style><mask id="A" mask-type="alpha" maskUnits="userSpaceOnUse" x="0" y="0" width="22" height="22"><path d="M21.5 1.13a.63.63 0 0 0-.63-.63H1.13a.63.63 0 0 0-.63.63v19.74a.63.63 0 0 0 .63.63h19.74a.63.63 0 0 0 .63-.63V1.13z" fill="#144e8c" class="B"/></mask><g mask="url(#A)" class="B"><path d="M21.5 1.13a.63.63 0 0 0-.63-.63H1.13a.63.63 0 0 0-.63.63v19.74a.63.63 0 0 0 .63.63h19.74a.63.63 0 0 0 .63-.63V1.13z" fill="#1b72be"/><path d="M21.5 1.13a.63.63 0 0 0-.63-.63H9.11L.5 15.413v5.457a.63.63 0 0 0 .63.63h19.74a.63.63 0 0 0 .63-.63V1.13z" fill="#0568aa"/><path d="M10.209 21.5H8.745l-3.783-7.605L12.334.5h1.186L5.803 13.867l4.407 7.633h0zm3.967 0h-3.652l-4.304-7.454h15.281l-.002 1.392-7.323 6.062zm-3.63-21H9.32L.5 15.777v2.124L10.547.5zm2.131 13.271H8.523c-.485 0-.936-.254-1.178-.674-.119-.206-.182-.44-.182-.678s.063-.472.182-.678l2.08-3.602 3.252 5.633zm8.823 0h-8.508l-3.41-5.906L13.835.5l1.541.001-2.238 7.613 1.039 2.134 7.323 2.88v.643z" fill="#074f7f"/><path d="M21.5 21.5H10.839l-4.146-7.181H21.5V21.5zm-11.606 0H.5v-5.178L9.635.5h3.57L5.487 13.867 9.894 21.5zm2.311-8H8.596c-.403 0-.775-.211-.977-.561-.099-.171-.151-.366-.151-.564a1.13 1.13 0 0 1 .151-.564l1.806-3.128 2.78 4.816zm9.295 0h-8.349L9.897 7.866 14.15.5h7.35v13z" fill="url(#B)"/><path d="M21.987 21.886H11.062l-4.369-7.567h15.286l.008 7.567zm-16.5-8.019l4.63 8.019H-.145l-.034-4.388L9.888.06h3.57L5.487 13.867zm1.642.704l4.078 7.063h10.527l-.007-7.063H7.129zM10.034.312L.073 17.564l.032 4.07h9.575l-4.484-7.767L13.022.312h-2.988zm2.171 13.187H8.586h-.005-.009-.005-.005-.005-.005-.005-.005-.005-.005-.005-.005-.005-.005-.005-.005-.005-.005-.005-.005-.005-.005-.005-.005-.005-.005-.005l-.005-.001-.005-.001h-.005l-.005-.001h-.005l-.005-.001-.005-.001h-.005l-.005-.001-.005-.001-.005-.001-.005-.001h-.005l-.005-.001-.005-.001-.005-.001-.005-.001-.005-.001h-.005l-.005-.001-.005-.001-.005-.001-.004-.001-.005-.001-.004-.001-.004-.001-.004-.001-.004-.001-.004-.001-.004-.001-.004-.001-.004-.001-.004-.001-.004-.001-.004-.001-.004-.001-.004-.001-.004-.001-.004-.001-.004-.001-.004-.001-.004-.002-.004-.001-.004-.001-.004-.002-.004-.001-.004-.001-.004-.002-.004-.001-.004-.001-.004-.002-.004-.001-.004-.001-.004-.002-.004-.002-.004-.002-.004-.001-.004-.002-.004-.002-.004-.002-.004-.002-.004-.002-.004-.002-.004-.002-.004-.002-.004-.002-.004-.002-.004-.002-.004-.002-.004-.002-.004-.002-.004-.002-.004-.002-.004-.002-.004-.002-.004-.002-.004-.002-.004-.002-.004-.002-.004-.002-.004-.002-.004-.002-.004-.002-.004-.002-.004-.002-.004-.002-.004-.002-.004-.002-.004-.002-.004-.002-.004-.002-.004-.002-.004-.002-.004-.002-.004-.002-.004-.002-.004-.002-.004-.002-.004-.002-.004-.002-.004-.002-.004-.002-.004-.002-.004-.002-.004-.002L8 13.331l-.004-.003-.004-.002-.004-.002-.004-.002-.004-.002-.004-.002-.004-.002-.004-.003-.004-.002-.004-.002-.004-.003-.004-.002-.004-.003-.004-.003-.004-.002-.004-.003-.004-.003-.004-.003-.004-.003-.004-.003-.004-.003-.004-.003-.004-.003-.004-.003-.004-.003-.004-.003-.004-.003-.004-.003-.004-.003-.004-.003-.004-.003-.004-.003-.004-.003-.004-.003-.004-.003-.003-.003-.003-.003-.003-.003-.003-.003-.003-.003-.003-.003-.003-.003-.003-.003-.003-.003-.003-.003-.003-.003-.003-.003-.003-.003-.003-.003-.003-.003-.003-.003-.003-.003-.003-.003-.003-.003-.003-.003-.003-.003-.003-.003-.003-.003-.003-.003-.003-.003-.003-.003-.003-.003-.003-.003-.003-.003-.003-.003-.003-.003-.003-.003-.003-.003-.003-.004-.003-.003-.003-.003-.003-.003-.003-.004-.003-.004-.003-.003-.003-.004-.003-.003-.003-.004-.003-.003-.003-.004-.003-.004-.003-.004-.003-.003-.003-.004-.003-.004-.003-.004-.003-.004-.003-.004-.003-.004-.003-.004-.003-.004-.003-.004-.003-.004-.003-.004-.003-.004-.003-.004-.003-.004-.003-.004-.003-.004-.003-.004-.003-.004-.003-.004-.003-.004-.003-.004-.003-.004-.003-.004-.003-.004-.003-.004-.003-.004-.003-.004-.003-.004-.002-.004-.002-.004-.002-.004-.002-.004-.002-.004-.002-.004-.002-.004-.002-.004-.002-.004-.002-.004-.002-.004-.002-.004-.002-.004-.002-.004-.002-.004-.002-.004-.002-.004-.002-.004-.002-.004-.002-.004-.002-.004-.002-.004-.002-.004-.002-.004-.002-.004-.002-.004-.002-.004-.002-.004-.002-.004-.002-.004-.002-.004-.002-.004-.002-.004-.002-.004-.002-.004-.002-.004-.002-.004-.002-.004-.002-.004-.002-.004-.002-.004-.002-.004-.002-.004-.002-.004-.002-.004-.002-.004-.002-.004-.002-.004-.002-.004-.002-.005-.002-.004-.002-.004-.002-.004-.002-.004-.002-.005-.001-.004-.001-.004-.001-.004-.001-.004-.001-.005-.001-.004-.001-.004-.001-.005-.001-.004-.001-.005-.001-.005-.001-.004-.001-.005-.001-.004-.001-.005-.001-.004-.001-.005-.001-.005-.001-.004-.001-.005-.001-.005-.001-.005-.001-.004-.001-.005-.001-.005-.001-.005-.001-.004-.001-.005-.001-.005-.001-.004-.001-.005-.001-.004-.001-.005-.001-.005-.001-.005-.001-.005-.001-.004v-.005l-.001-.005-.001-.005-.001-.005v-.004l-.001-.005-.001-.004-.001-.005v-.005l-.001-.005-.001-.005v-.005l-.001-.005v-.005l-.001-.005v-.005l-.001-.005-.001-.005v-.005-.005-.005-.005-.005-.005-.004-.005-.005-.005-.004-.005-.005-.005-.005-.005-.005-.005-.005-.005-.005-.005-.005-.005-.005-.005-.009-.005-.005-.005-.005-.005-.005-.005-.005-.005-.005-.005-.005-.005-.005-.005-.005-.005-.005-.005-.005-.005-.005-.005-.005-.004-.005l.001-.005.001-.005v-.004l.001-.005v-.005l.001-.005v-.005l.001-.005.001-.005v-.005l.001-.005.001-.005.001-.005v-.005l.001-.005.001-.005.001-.005v-.004l.001-.005.001-.005.001-.005.001-.005.001-.004.001-.005.001-.005.001-.005.001-.005.001-.004.001-.005.001-.004.001-.005.001-.005.001-.005.001-.004.001-.005.001-.005.001-.005.001-.004.001-.005.001-.005.001-.004.001-.005.001-.004.001-.005.001-.004.001-.005.001-.004.001-.005.001-.004.001-.005.001-.004.001-.005.001-.004.001-.004.001-.004.002-.005.002-.004.002-.004.002-.004.002-.005.002-.004.002-.004.002-.004.002-.004.002-.004.002-.004.002-.004.002-.004.002-.004.002-.004.002-.004.002-.004.002-.004.002-.004.002-.004.002-.004.002-.004.002-.004.002-.004.002-.004.002-.004.002-.004.002-.004.002-.004.002-.004.002-.004.002-.004.002-.004.002-.004.002-.004.002-.004.002-.004.002-.004.002-.004.002-.004.002-.004.002-.004.002-.004.002-.004.002-.004.002-.004 1.806-3.128 2.78 4.816zm9.769 0H13.15L9.897 7.865 14.403.06h7.48l.091 13.439zM7.837 11.937l-.002.004-.002.003-.002.003-.002.003-.002.003-.002.003-.002.003-.002.003-.002.003-.002.003-.002.003-.002.003-.002.003-.002.003-.002.003-.002.003-.002.003-.002.003-.002.003-.002.003-.002.003-.002.003-.002.003-.002.003-.001.004-.001.003-.001.003-.001.003-.001.003-.001.003-.001.003-.001.003-.001.003-.001.003-.001.003-.001.003-.001.003-.001.004-.001.003-.001.003-.001.003-.001.003-.001.004-.001.003-.001.003-.001.003-.001.003-.001.004-.001.003-.001.004-.001.003-.001.004-.001.003-.001.003-.001.003-.001.004-.001.003-.001.004-.001.003-.001.004-.001.003-.001.003-.001.003-.001.003-.001.003-.001.004-.001.003v.004l-.001.003-.001.004-.001.003-.001.003-.001.004v.003l-.001.004-.001.004-.001.003v.004l-.001.003-.001.004v.003l-.001.004-.001.004v.003l-.001.004-.001.003v.004l-.001.003v.004l-.001.004v.003l-.001.004v.004l-.001.003v.004.003.004.004.003.004.003.004.004.003.004.004.003.004.003.004.004.003.004.004.004.003.003.004.004.004.003.004.004.003.003.004.003.007.003.004.003.004.003.003.004.004.003.004.004.003.003.004.003.004.003.004.004.003.003.004.003.004.004.003.004.004.003.004.003.004.004l.001.003v.004l.001.003v.003l.001.004v.003l.001.004v.004l.001.003.001.004v.003l.001.004.001.003v.004l.001.004.001.003v.004l.001.003.001.003.001.003v.004l.001.004.001.003.001.004.001.003.001.003v.003l.001.004.001.003.001.004.001.004.001.003.001.003.001.004.001.004.001.003.001.003.001.004.001.003.001.003.001.003.001.004.001.003.001.004.001.004.001.003.001.003.001.003.001.003.001.003.001.003.001.003.001.004.001.003.001.003.001.003.001.003.001.003.001.003.001.003.001.003.001.003.001.003.001.003.001.004.001.003.001.003.001.003.001.003.001.003.002.003.002.003.002.003.002.003.002.003.002.003.002.003.002.003.002.003.002.003.002.003.002.003.002.003.002.003.002.003.002.003.002.003.002.003.002.003.002.003.002.003.002.003.002.003.002.003.002.003.002.003.002.003.002.003.002.003.002.003.002.003.002.003.002.003.002.003.002.003.002.003.002.003.002.003.002.003.002.003.002.003.002.003.002.003.002.003.002.003.002.003.002.003.002.003.002.003.002.003.002.003.002.003.002.003.002.003.002.003.002.003.002.003.002.003.002.003.002.003.002.003.002.003.002.003.002.003.002.003.002.003.002.003.002.003.002.003.002.003.002.003.002.003.002.003.002.003.002.003.002.003.002.003.002.003.002.003.002.003.002.003.002.002.002.003.002.003.002.002.002.003.003.003.003.002.003.002.003.002.003.003.003.002.003.002.003.002.003.002.003.002.003.002.003.002.003.002.003.002.003.002.003.002.003.003.003.002.003.002.003.002.003.002.003.002.003.002.003.002.003.002.003.002.003.002.003.002.003.002.003.002.003.002.003.002.003.002.003.002.003.002.003.002.003.002.003.002.003.002.003.002.003.002.003.002.003.002.003.002.003.002.003.002.003.002.003.002.003.002.003.002.003.002.003.002.003.002.003.002.003.002.003.002.003.002.003.002.003.002.003.002.003.002.003.002.003.002.003.002.003.002.003.002.003.002.003.002.003.002.003.002.003.002.003.002.003.002.003.002.003.002.003.002.003.001.003.002.003.002.003.002.003.001.003.002.003.002.003.002.003.002.003.001.003.002.003.001.003.002.003.001.003.001.003.002.003.001.003.001.003.001.003.001.003.001.003.001.003.001.003.001.003.002.003.001.003.001.003.001.003.001.003.001.003.001.003.001.003.001.003.001.003.001.003.001.003.001.003.001.003.001.003.001.003.001.003.001.003.001.003.001.003.001.003.001.003.001.003.001h.003l.003.001.003.001.003.001.003.001.003.001.003.001.003.001.003.001.003.001.004.001.003.001h.003l.004.001.003.001.003.001.004.001h.004l.004.001.004.001.004.001h.004l.004.001.004.001h.004l.004.001.004.001h.004l.004.001h.004l.004.001.004.001h.004.004.004.004.004.004.004.004l.004.001.004.001h.004.004.004.004.004.004.004.004.004.004.004.004.004.004.004.004.004.004.004.004.004.004.007.004 3.184l-2.344-4.06-1.587 2.75zM14.549.312l-4.361 7.553 3.108 5.382h8.425L21.633.312h-7.084z" fill="url(#C)"/></g><defs><radialGradient id="B" cx="0" cy="0" r="1" gradientUnits="userSpaceOnUse" gradientTransform="translate(16.551 -3.44665) scale(24.9466)"><stop stop-color="#6be1fb"/><stop offset="1" stop-color="#38bdfa"/></radialGradient><linearGradient id="C" x1="17.062" y1="21.5" x2="17.062" y2=".5" gradientUnits="userSpaceOnUse"><stop stop-color="#4ac5fa"/><stop offset="1" stop-color="#97e8fc"/></linearGradient></defs></svg>