<svg xmlns="http://www.w3.org/2000/svg" width="22" height="22" fill="none" xmlns:v="https://vecta.io/nano"><style><![CDATA[.B{fill-rule:evenodd}]]></style><mask id="A" mask-type="alpha" maskUnits="userSpaceOnUse" x="0" y="0" width="22" height="22"><path d="M21.5 1.129a.63.63 0 0 0-.63-.63H1.13a.63.63 0 0 0-.63.63v19.74a.63.63 0 0 0 .63.63h19.74a.63.63 0 0 0 .63-.63V1.129z" fill="#000" class="B"/></mask><g mask="url(#A)"><path d="M21.5 1.129a.63.63 0 0 0-.63-.63H1.13a.63.63 0 0 0-.63.63v19.74a.63.63 0 0 0 .63.63h19.74a.63.63 0 0 0 .63-.63V1.129z" fill="#7e4dd2" class="B"/><path d="M21.5 1.129a.63.63 0 0 0-.63-.63H9.11L.5 15.412v5.457a.63.63 0 0 0 .63.63h19.74a.63.63 0 0 0 .63-.63V1.129z" fill="#7140c2" class="B"/><path d="M21.763 21.77l-7.72.002-4.461-7.726h12.192l-.011 7.724zm-8.038.002H1.548L7.64 11.232l6.085 10.539zm-12.487 0H.231l-.003-5.522L4.91 8.138h4.2L1.237 21.771h0zM11.91 8.139a1.19 1.19 0 0 1 .996.575l.958 1.659c.194.34.208.777.018 1.133a.91.91 0 0 1-.014.026l-.958 1.659c-.199.341-.575.566-.972.579h-.029-1.812c-.396-.002-.78-.209-.99-.546l-.015-.025-.958-1.659a1.19 1.19 0 0 1-.019-1.133l.014-.025.958-1.659a1.19 1.19 0 0 1 .972-.582l.029-.001h1.82zM21.771.228v13.543h-8.877L20.713.228h1.058zM14.36 10.682L8.901 1.227l.577-.999h10.917L14.36 10.682zm-1.943-2.816l-7.348-.001 3.673-6.362 3.675 6.363z" fill="#58328a"/><path d="M1.08 21.499H.503L.5 16.321 5.067 8.41h3.57L1.08 21.499zm20.42-7.182v7.182h-7.301l-4.146-7.182H21.5zm-8.246 7.182H2.019l5.621-9.724 5.614 9.724zm8.246-8.001h-8.135L20.87.499h.63v12.999zm-9.598-5.103c.311.001.609.184.769.455l.949 1.643a.91.91 0 0 1 .014.898l-.957 1.657c-.157.269-.453.444-.768.448l-1.808.001c-.311-.001-.613-.167-.774-.438l-.011-.018-.946-1.639a.92.92 0 0 1 0-.893l.007-.012.948-1.645c.157-.269.454-.453.769-.457h1.797.011zM9.635.499h10.29l-5.565 9.639-5.145-8.911.42-.727zm2.31 7.093H5.54l3.203-5.547 3.202 5.547z" fill="url(#B)" class="B"/><path d="M.577 22.369l-.567-.018.007-5.195 5.05-8.747h3.57l-8.06 13.96zm13.149-.052L1.584 22.25l6.055-10.476 6.087 10.543zm8.22-.031l-7.322-.05-4.572-7.919h11.922l-.028 7.969zM5.212 8.661L.268 17.224.262 22.107l.172.006L8.2 8.661H5.212zM2.019 22l11.269.062-5.649-9.785L2.019 22zm8.469-7.432l4.282 7.417 6.925.047.026-7.463H10.488zm1.402-6.174h.011.004.004.004.004.004.004.004.004.004.004.004.004.004.004.004.004.004.004.004.004.004.004.004.004.003.004.004.004.003.004l.004.001h.003l.007.001.007.001.007.001.007.001.007.001.007.001.007.001.007.002.007.002.007.002.007.002.007.002.007.002.007.002.007.002.007.002.007.002.007.002.007.002.007.002.007.002.007.002.007.002.007.002.007.002.007.003.007.003.007.003.007.003.007.003.007.003.007.003.007.003.007.003.007.003.006.003.007.003.006.003.007.003.006.003.007.003.006.003.007.003.006.004.006.004.006.004.006.004.006.004.006.004.006.004.006.004.006.004.006.004.006.004.006.004.006.004.006.004.006.004.006.004.006.004.006.004.006.004.006.004.006.004.006.005.006.005.006.005.006.005.006.005.005.005.006.005.005.005.005.005.005.005.005.005.005.005.005.005.005.005.005.005.005.005.005.005.005.005.005.005.005.005.005.005.005.005.005.005.005.005.005.006.005.006.005.006.005.006.005.006.005.006.005.006.004.006.005.006.004.006.004.006.004.006.005.006.004.006.004.006.004.006.004.006.004.006.004.006.004.006.004.006.004.006.004.006.004.006.005.008.944 1.635.008.014.004.006.004.006.003.006.003.006.004.006.003.007.003.006.003.007.003.006.003.007.003.006.003.007.003.007.003.007.003.007.003.007.003.007.003.007.002.007.003.007.003.007.002.007.002.007.002.007.002.007.002.007.002.007.002.007.002.007.002.007.002.007.002.007.002.007.002.007.002.007.002.007.002.007.002.007.002.007.001.007.002.007.001.007.001.007.001.007.001.007.001.007.001.007.001.007.001.007.001.007v.007l.001.007.001.007.001.007v.007l.001.007v.007.007.007.007.007.007.007.029.007.007l-.001.007v.007.007.007.007.007l-.001.007-.001.007v.007l-.001.007-.001.007-.001.007-.001.007-.001.007-.001.007-.001.007-.001.007-.001.007-.001.007-.002.007-.001.007-.002.007-.002.007-.002.007-.001.007-.002.007-.002.007-.002.007-.002.007-.002.007-.002.007-.002.007-.002.007-.002.007-.002.007-.002.007-.002.007-.002.007-.002.007-.002.007-.003.007-.003.007-.003.007-.003.007-.003.007-.003.007-.003.007-.003.007-.003.007-.003.007-.003.007-.003.007-.003.007-.003.006-.003.007-.004.007-.003.006-.004.007-.004.006-.03.052-.03.052-.03.052-.03.052-.03.052-.03.052-.03.052-.03.052-.03.052-.03.052-.06.104-.06.104-.06.104-.06.104-.06.103-.12.207-.06.104-.06.103-.06.104-.06.104-.004.006-.004.006-.004.006-.004.006-.004.006-.004.006-.004.006-.004.006-.004.006-.004.006-.004.006-.004.006-.004.006-.004.006-.004.006-.004.006-.004.006-.005.006-.004.006-.005.006-.005.005-.005.005-.005.006-.005.005-.005.005-.005.005-.005.005-.005.005-.005.005-.005.005-.005.005-.005.005-.005.005-.005.005-.005.005-.005.005-.005.005-.005.005-.005.005-.005.005-.006.005-.005.005-.005.005-.006.005-.005.005-.006.005-.006.005-.006.004-.006.004-.006.004-.006.004-.006.004-.006.004-.006.004-.006.004-.006.004-.006.004-.006.004-.006.004-.006.004-.006.004-.006.004-.006.004-.006.004-.006.004-.006.003-.006.004-.006.004-.006.003-.007.003-.006.003-.006.003-.007.003-.006.003-.007.003-.007.003-.006.003-.007.003-.007.003-.007.003-.007.003-.007.003-.007.003-.007.003-.007.003-.007.002-.007.003-.007.002-.007.002-.007.002-.007.002-.007.002-.007.002-.007.002-.007.002-.007.002-.007.002-.007.002-.007.002-.007.002-.007.002-.007.002-.007.002-.007.002-.007.002-.007.002-.007.001-.007.001-.007.001-.007.001-.007.001-.007.001-.007.001-.007.001-.007.001h-.007l-.007.001-.007.001-.007.001h-.007l-.007.001h-.007-.007-.007-.007-.007-.007-.007-.058-.061-.064-.067-.069-.071-.072-.074-.15-.15-.149-.144-.137-.128-.115-.1-.145-.053-.007-.007-.007-.007-.007-.007-.007-.007-.007-.007l-.007-.001-.007-.001h-.007l-.007-.001-.007-.001-.007-.001-.007-.001-.007-.001-.007-.001-.007-.001-.007-.001-.007-.001-.007-.001-.007-.001-.007-.001-.007-.002-.007-.002-.007-.002-.007-.002-.007-.002-.007-.002-.007-.002-.007-.002-.007-.002-.007-.002-.007-.002-.007-.002-.007-.002-.007-.002-.007-.002-.007-.002-.007-.002-.007-.002-.007-.002-.007-.002-.007-.003-.007-.003-.007-.003-.007-.003-.007-.003-.007-.003-.007-.003-.007-.003-.007-.003-.007-.003-.007-.003-.007-.003-.007-.003-.007-.003-.006-.003-.007-.003-.006-.003-.006-.003-.006-.004-.006-.004-.006-.004-.006-.004-.006-.004-.006-.004-.006-.004-.006-.004-.006-.004-.006-.004-.006-.004-.006-.004-.006-.004-.006-.004-.006-.004-.006-.004-.006-.004-.006-.004-.006-.004-.006-.004-.006-.005-.006-.005-.006-.005-.005-.005-.006-.005-.005-.005-.005-.005-.005-.005-.005-.005-.005-.005-.005-.005-.005-.005-.005-.005-.005-.005-.005-.005-.005-.005-.005-.005-.005-.005-.005-.005-.005-.005-.005-.005-.005-.005-.005-.005-.005-.005-.005-.005-.005-.006-.005-.006-.005-.006-.005-.006-.004-.006-.005-.006-.004-.006-.004-.006-.004-.006-.004-.006-.004-.006-.004-.006-.004-.006-.002-.003-.002-.003-.002-.003-.002-.003-.002-.003-.002-.003-.002-.003-.002-.003-.002-.003-.002-.003-.002-.003-.002-.003-.002-.003-.002-.003-.011-.018-.946-1.639-.002-.003-.002-.003-.002-.003-.002-.003-.002-.003-.002-.003-.004-.006-.003-.006-.003-.006-.003-.007-.003-.007-.003-.007-.003-.007-.003-.007-.003-.007-.003-.007-.003-.007-.003-.007-.003-.007-.003-.007-.003-.007-.003-.007-.003-.007-.002-.007-.003-.007-.002-.007-.002-.007-.002-.007-.002-.007-.002-.007-.002-.007-.002-.007-.002-.007-.002-.007-.002-.007-.002-.007-.002-.007-.002-.007-.001-.007-.002-.007-.001-.007-.001-.007-.001-.007-.001-.007-.001-.007-.001-.007-.001-.007-.001-.007-.001-.007-.001-.007-.001-.007-.001-.007-.001-.007v-.007l-.001-.007-.001-.007v-.007l-.001-.007v-.007-.007-.007-.007-.007-.007-.007-.007-.007-.007-.007-.007-.007-.007-.007-.007-.007-.007l.001-.007v-.007l.001-.007.001-.007v-.007l.001-.007.001-.007.001-.007.001-.007.001-.007.001-.007.001-.007.001-.007.001-.007.001-.007.001-.007.001-.007.002-.007.001-.007.002-.007.002-.007.002-.007.002-.007.002-.007.002-.007.002-.007.002-.007.002-.007.002-.007.002-.007.002-.007.002-.007.002-.007.002-.007.003-.007.003-.007.003-.007.003-.007.003-.007.003-.007.003-.007.003-.007.003-.007.003-.007.003-.007.003-.007.003-.007.003-.007.003-.007.003-.007.003-.007.003-.007.003-.007.004-.006.004-.006.007-.012.104-.18.113-.196.139-.241.154-.267.157-.273.15-.26.069-.119.063-.109.004-.006.004-.006.004-.006.004-.006.004-.006.004-.006.004-.006.004-.006.004-.006.004-.006.004-.006.004-.006.004-.006.004-.006.004-.006.004-.006.005-.006.004-.006.005-.006.005-.006.005-.006.005-.006.005-.006.005-.005.005-.005.005-.005.005-.005.005-.005.005-.005.005-.005.005-.005.005-.005.005-.005.005-.005.005-.005.005-.005.005-.005.005-.005.005-.005.005-.005.006-.005.005-.005.005-.005.006-.005.005-.005.006-.005.006-.005.006-.005.006-.004.006-.004.006-.004.006-.004.006-.004.006-.004.006-.004.006-.004.006-.004.006-.004.006-.004.006-.004.006-.004.006-.004.006-.004.006-.004.006-.004.006-.004.006-.004.006-.004.007-.004.006-.003.007-.003.006-.003.006-.003.007-.003.007-.003.007-.003.007-.003.007-.003.007-.003.007-.003.007-.003.007-.003.007-.003.007-.003.007-.003.007-.003.007-.003.007-.003.007-.002.007-.002.007-.002.007-.002.007-.002.007-.002.007-.002.007-.002.007-.002.007-.002.007-.002.007-.002.007-.002.007-.002.007-.002.007-.002.007-.002.007-.002.007-.001.007-.001.007-.001.007-.001.007-.001.007-.001.004-.001h.004l.004-.001h.004.004.004.004.004.004.004.004.004.004.004.004.004.004.004.004.004.004.004.004.004.004.004.004.004.004.004.004.004.005.005.006 1.781zm10.042 5.103h-8.568L21.302-.251l.653-.04-.022 13.788zM10.108 8.646h-.007-.005-.003-.003-.003-.002-.002-.002-.003-.002-.003-.002-.003-.003-.003-.002-.003-.003-.002-.003-.003-.003-.002-.002-.003-.002-.003-.003-.003-.002-.003-.003-.002-.002l-.006.001-.005.001-.005.001h-.005l-.005.001-.005.001-.005.001-.005.001-.005.001-.005.001-.005.001-.005.001-.005.001-.005.001-.005.001-.005.001-.005.002-.005.002-.005.002-.005.002-.005.002-.005.002-.005.002-.005.002-.005.002-.005.002-.005.002-.005.002-.005.002-.005.002-.005.002-.005.002-.005.002-.005.002-.005.002-.005.002-.005.002-.005.002-.005.002-.005.002-.005.002-.005.002-.005.003-.005.003-.005.003-.005.003-.005.003-.004.003-.005.003-.005.003-.004.003-.005.003-.004.003-.004.003-.004.003-.004.003-.004.003-.004.003-.004.003-.004.003-.004.003-.004.003-.004.003-.004.003-.004.003-.004.003-.004.003-.004.003-.004.003-.004.003-.004.004-.004.004-.004.004-.004.004-.004.004-.004.004-.004.004-.004.004-.004.004-.004.004-.004.004-.004.004-.004.004-.004.004-.004.004-.004.004-.004.004-.004.004-.004.004-.003.004-.003.004-.004.004-.003.004-.003.004-.003.004-.003.004-.003.004-.003.004-.003.004-.003.004-.003.004-.003.004-.003.004-.003.004-.003.004-.003.004-.003.004-.003.004-.003.004-.003.004-.003.004-.003.004-.062.108-.069.119-.15.26-.157.273-.154.267-.139.241-.113.196-.104.18-.006.01-.002.004-.003.005-.003.005-.002.005-.003.005-.002.005-.002.005-.002.005-.002.005-.002.005-.002.005-.002.005-.002.005-.002.005-.002.005-.002.005-.002.005-.002.005-.002.005-.002.005-.002.005-.002.005-.002.005-.002.005-.001.005-.002.005-.001.005-.001.005-.001.005-.001.005-.001.005-.001.005-.001.005-.001.005-.001.005-.001.005-.001.005-.001.005-.001.005-.001.005-.001.005-.001.005-.001.005-.001.005-.001.005-.001.005v.005l-.001.005v.005l-.001.005-.001.005v.005l-.001.005v.005.005.005.005.005.005.005.005.011.005.005.011.005.005.005.005V11v.005.005.005.005.005l.001.005v.005l.001.005.001.005v.005l.001.005.001.005.001.005.001.005.001.005.001.005.001.005.001.005.001.005.001.005.001.005.001.005.001.005.001.005.001.005.001.005.001.005.001.005.001.005.002.005.001.005.002.005.001.005.002.005.002.005.002.005.002.005.002.005.002.005.002.005.002.005.002.005.002.005.002.005.002.005.002.005.002.005.002.005.002.005.002.005.002.005.002.005.003.005.001.002.001.002.001.002.001.002.001.002.001.002.946 1.638.009.016.001.002.001.002.001.002.001.002.001.002.001.002.001.002.001.002.001.002.001.002.001.002.001.002.001.002.001.002.003.005.003.004.003.004.003.004.003.004.003.004.003.004.003.004.003.004.003.004.003.004.003.004.003.004.004.004.003.004.003.004.004.004.004.004.004.004.004.004.004.004.004.004.004.004.004.004.004.004.004.004.004.004.004.003.004.004.004.004.004.003.004.003.004.003.004.003.004.003.004.003.004.003.004.003.004.003.004.003.004.003.004.003.004.003.004.003.004.003.004.003.004.003.004.003.004.003.004.003.004.003.004.003.005.003.004.003.005.003.005.003.005.003.004.002.005.003.005.002.005.002.005.002.005.002.005.002.005.002.005.002.005.002.005.002.005.002.005.002.005.002.005.002.005.002.005.002.005.002.005.002.005.002.005.002.005.002.005.002.005.002.005.002.005.002.005.002.005.002.005.002.005.002.005.001.005.001.005.001.005.001.005.001.005.001.005.001.005.001.005.001.005.001.005.001.005.001.005.001.005.001.005.001.005.001.005.001h.005l.005.001.005.001h.005l.005.001h.005.005.005.005.005.005.005.005.005.005.005.005.053.145.1.115.128.137.144.149.15.15.073.072.071.069.067.064.061.056.005.005.005.005.005.005.005.005.005l.005-.001h.005l.005-.001.005-.001h.005l.005-.001.005-.001.005-.001h.005l.005-.001.005-.001.005-.001.005-.001.005-.001.005-.001.005-.001.005-.001.005-.001.005-.001.005-.001.005-.001.005-.001.005-.001.005-.001.005-.002.005-.002.005-.002.005-.002.005-.002.005-.002.005-.002.005-.002.005-.002.005-.002.005-.002.005-.002.005-.002.005-.002.005-.002.005-.002.005-.002.005-.002.005-.002.005-.002.005-.002.005-.002.005-.002.005-.002.005-.002.005-.002.005-.003.005-.002.004-.003.005-.003.005-.003.005-.003.005-.003.004-.003.004-.003.005-.003.004-.003.004-.003.004-.003.004-.003.004-.003.004-.003.004-.003.004-.003.004-.003.004-.003.004-.003.004-.003.004-.003.004-.003.004-.003.004-.003.004-.003.004-.003.004-.003.004-.003.004-.004.004-.003.004-.004.004-.004.004-.004.004-.004.004-.004.004-.004.004-.004.004-.004.004-.004.004-.004.004-.004.004-.004.003-.004.004-.004.003-.004.003-.004.003-.004.003-.004.003-.004.003-.004.003-.004.003-.004.003-.004.003-.004.003-.004.003-.004.003-.004.003-.004.003-.004.003-.004.003-.004.003-.004.003-.004.003-.004.003-.004.003-.005.002-.005.059-.103.06-.104.06-.104.06-.104.12-.207.06-.104.06-.103.06-.104.06-.103.06-.104.03-.052.03-.052.03-.052.03-.052.03-.052.03-.052.03-.052.03-.052.03-.052.029-.05.002-.004.003-.005.002-.005.002-.005.002-.005.002-.005.002-.005.002-.005.002-.005.002-.005.002-.005.002-.005.002-.005.002-.005.002-.005.002-.005.002-.005.002-.005.002-.005.002-.005.002-.005.002-.005.002-.005.002-.005.002-.005.002-.005.001-.005.002-.005.002-.005.001-.005.001-.005.001-.005.001-.005.001-.005.001-.005.001-.005.001-.005.001-.005.001-.005.001-.005v-.005l.001-.005.001-.005.001-.005.001-.005v-.005l.001-.005.001-.005v-.005l.001-.005v-.005-.005-.005-.005-.005-.005-.005-.005-.005-.005-.026-.005-.005-.005-.005-.005-.005-.005-.005-.005l-.001-.005v-.005-.005-.005l-.001-.005-.001-.005-.001-.005v-.005l-.001-.005-.001-.005-.001-.005-.001-.005-.001-.005-.001-.005-.001-.005-.001-.005-.001-.005-.001-.005-.001-.005-.001-.005-.001-.005-.002-.005-.001-.005-.001-.005-.002-.005-.002-.005-.001-.005-.002-.005-.002-.005-.002-.005-.002-.005-.002-.005-.002-.005-.002-.005-.002-.005-.002-.005-.002-.005-.002-.005-.002-.005-.002-.005-.002-.005-.002-.005-.002-.005-.002-.005-.002-.005-.002-.005-.002-.005-.003-.005-.002-.005-.002-.005-.002-.005-.003-.005-.003-.005-.002-.005-.007-.013-.944-1.635-.004-.006-.002-.004-.003-.005-.003-.005-.003-.005-.003-.005-.003-.004-.003-.004-.003-.004-.003-.004-.003-.004-.003-.004-.003-.004-.003-.004-.003-.004-.003-.004-.003-.004-.003-.004-.003-.004-.003-.004-.004-.004-.003-.004-.004-.004-.004-.004-.004-.004-.004-.004-.004-.004-.004-.004-.004-.004-.004-.004-.004-.004-.004-.004-.004-.004-.004-.004-.004-.004-.004-.004-.004-.004-.004-.004-.004-.004-.004-.004-.004-.004-.004-.004-.004-.004-.004-.004-.004-.003-.004-.003-.004-.003-.004-.003-.004-.003-.004-.003-.004-.003-.004-.003-.004-.003-.004-.003-.004-.003-.004-.003-.004-.003-.004-.003-.004-.003-.005-.003-.004-.003-.005-.003-.004-.003-.005-.003-.005-.003-.004-.003-.005-.003-.005-.003-.005-.003-.005-.003-.005-.003-.005-.002-.005-.002-.005-.002-.005-.002-.005-.002-.005-.002-.005-.002-.005-.002-.005-.002-.005-.002-.005-.002-.005-.002-.005-.002-.005-.002-.005-.002-.005-.002-.005-.002-.005-.002-.005-.002-.005-.002-.005-.002-.005-.002-.005-.002-.005-.002-.005-.001-.005-.001-.005-.001-.005-.001-.005-.001-.005-.001-.005-.001-.005-.001-.005-.001-.005-.001-.005-.001-.005-.001-.005-.001L12 8.656l-.005-.001-.005-.001-.005-.001-.005-.001h-.002-.003-.002-.002-.003-.002-.003-.002-.002-.003-.002-.002-.003-.002-.002-.003-.002-.002-.002-.003-.002-.002-.003-.002-.002-.003-.002-.003-.003-.002-.003-.002-.01-1.779-.004zM21.452-.008l-7.652 13.253h7.88l.022-13.268-.25.015zm-7.093 10.145L9.214 1.225l.82-1.42L20.35-.24l-5.991 10.377zM10.18.057l-.675 1.169 4.854 8.407L19.913.014 10.18.057zm1.764 7.534H5.539l3.203-5.547 3.203 5.547zm-5.968-.252h5.532L8.741 2.548 5.975 7.339z" fill="url(#C)" class="B"/></g><defs><radialGradient id="B" cx="0" cy="0" r="1" gradientUnits="userSpaceOnUse" gradientTransform="translate(16.5507 -3.44768) scale(24.9467)"><stop stop-color="#f9a6ff"/><stop offset="1" stop-color="#ea73ff"/></radialGradient><linearGradient id="C" x1="15.042" y1=".498" x2="15.042" y2="21.498" gradientUnits="userSpaceOnUse"><stop stop-color="#f7b3ff"/><stop offset="1" stop-color="#ee8aff"/></linearGradient></defs></svg>