<svg xmlns="http://www.w3.org/2000/svg" width="22" height="13" fill="none" xmlns:v="https://vecta.io/nano"><g clip-path="url(#A)"><path d="M6.47 4.491c0 .25.028.453.076.602.055.149.124.311.221.487a.29.29 0 0 1 .048.156c0 .068-.041.135-.131.203l-.435.284c-.062.041-.124.061-.18.061-.069 0-.138-.034-.207-.095a2.1 2.1 0 0 1-.249-.318l-.214-.399a2.57 2.57 0 0 1-2.031.933c-.58 0-1.043-.162-1.382-.487s-.511-.758-.511-1.299c0-.575.207-1.042.629-1.393s.981-.528 1.692-.528c.235 0 .477.02.732.054s.518.088.794.149v-.494c0-.514-.111-.873-.325-1.082-.221-.21-.594-.311-1.126-.311-.242 0-.49.027-.746.088a5.59 5.59 0 0 0-.746.23 2.01 2.01 0 0 1-.242.088.43.43 0 0 1-.111.02c-.097 0-.145-.068-.145-.21V.899c0-.108.014-.189.048-.237s.097-.095.193-.142c.242-.122.532-.223.87-.304.338-.088.698-.129 1.078-.129.822 0 1.423.183 1.81.548.38.365.573.92.573 1.664v2.192h.014zM3.665 5.519c.228 0 .463-.041.712-.122a1.54 1.54 0 0 0 .656-.433c.111-.129.193-.271.235-.433a2.38 2.38 0 0 0 .069-.588v-.284a5.88 5.88 0 0 0-.636-.115c-.221-.027-.435-.041-.649-.041-.463 0-.801.088-1.029.271s-.338.44-.338.778c0 .318.083.555.256.717.166.169.408.25.725.25zm5.547.731c-.124 0-.207-.02-.262-.068-.055-.041-.104-.135-.145-.264L7.182.69C7.14.554 7.119.466 7.119.419c0-.108.055-.169.166-.169h.677c.131 0 .221.02.269.068.055.041.097.135.138.264L9.53 5.059 10.608.581c.035-.135.076-.223.131-.264s.152-.068.276-.068h.553c.131 0 .221.02.276.068.055.041.104.135.131.264l1.091 4.532L14.262.581c.041-.135.09-.223.138-.264.055-.041.145-.068.269-.068h.642a.15.15 0 0 1 .173.169c0 .034-.007.068-.014.108a.94.94 0 0 1-.048.169l-1.665 5.229c-.041.135-.09.223-.145.264s-.145.068-.262.068h-.594c-.131 0-.221-.02-.276-.068s-.104-.135-.131-.271l-1.071-4.363-1.064 4.356c-.035.135-.076.223-.131.271s-.152.068-.276.068h-.594zm8.877.183c-.359 0-.718-.041-1.064-.122s-.615-.169-.794-.271c-.111-.061-.187-.129-.214-.189a.47.47 0 0 1-.041-.189v-.345c0-.142.055-.21.159-.21a.4.4 0 0 1 .124.02c.041.014.104.041.173.068.235.101.49.183.76.237.276.054.546.081.822.081.435 0 .774-.074 1.008-.223s.359-.365.359-.643a.65.65 0 0 0-.187-.473c-.124-.129-.359-.244-.698-.352l-1.002-.304c-.504-.156-.877-.386-1.105-.69a1.59 1.59 0 0 1-.345-.981 1.48 1.48 0 0 1 .187-.751 1.75 1.75 0 0 1 .497-.555 2.21 2.21 0 0 1 .718-.352 3.07 3.07 0 0 1 .87-.115 3.54 3.54 0 0 1 .463.027l.449.074.394.108c.124.041.221.081.29.122.097.054.166.108.207.169.041.054.062.129.062.223v.318c0 .142-.055.216-.159.216-.055 0-.145-.027-.262-.081-.394-.176-.836-.264-1.326-.264-.394 0-.705.061-.919.189s-.325.325-.325.602a.63.63 0 0 0 .207.48c.138.129.394.257.76.372l.981.304c.497.156.857.372 1.071.649a1.51 1.51 0 0 1 .318.947 1.71 1.71 0 0 1-.18.785 1.83 1.83 0 0 1-.504.595c-.214.169-.47.291-.767.379a3.35 3.35 0 0 1-.988.142z" fill="#252f3e"/><g fill-rule="evenodd" fill="#f90"><path d="M19.393 9.72c-2.273 1.644-5.575 2.516-8.414 2.516C7 12.236 3.415 10.795.707 8.401c-.214-.189-.021-.446.235-.298 2.929 1.664 6.542 2.672 10.279 2.672a20.89 20.89 0 0 0 7.84-1.569c.38-.169.705.244.332.514zm.947-1.055c-.29-.365-1.92-.176-2.66-.088-.221.027-.256-.162-.055-.304 1.299-.893 3.433-.636 3.682-.338.249.304-.069 2.394-1.285 3.395-.186.156-.366.074-.283-.128.276-.67.891-2.178.601-2.536z"/></g></g><defs><clipPath id="A"><path fill="#fff" transform="translate(.5)" d="M0 0h21v12.31H0z"/></clipPath></defs></svg>