<svg xmlns="http://www.w3.org/2000/svg" width="22" height="22" fill="none" xmlns:v="https://vecta.io/nano"><circle cx="11" cy="11" r="10.5" fill="#000"/><path fill-rule="evenodd" d="M10.6 3.902a.72.72 0 0 1 .801 0l6.497 4.331a.72.72 0 0 1 .322.601v4.331a.72.72 0 0 1-.322.601L11.4 18.098a.72.72 0 0 1-.801 0l-6.497-4.331a.72.72 0 0 1-.321-.601V8.834a.72.72 0 0 1 .321-.601L10.6 3.902zm-5.375 6.281L6.45 11l-1.225.817v-1.634zm.58 2.982l4.474 2.982v-2.596l-2.527-1.684-1.947 1.298zM9.053 11L11 12.298 12.947 11 11 9.702 9.053 11zm2.669-2.552l2.527 1.684 1.947-1.298-4.474-2.982v2.596zm-1.444-2.596v2.596l-2.527 1.684-1.947-1.298 4.474-2.982zm6.497 4.331L15.55 11l1.225.817v-1.634zm-.579 2.982l-1.947-1.298-2.527 1.684v2.596l4.474-2.982z" fill="#fff"/></svg>