<svg xmlns="http://www.w3.org/2000/svg" width="19" height="22" fill="none" xmlns:v="https://vecta.io/nano"><path d="M18.517.5L16.83 19.398 9.247 21.5l-7.562-2.099L0 .5h18.517z" fill="#264de4"/><path d="M15.386 18.195l1.442-16.149H9.258v17.848l6.127-1.699z" fill="#2965f1"/><path d="M3.863 9.055l.208 2.318h5.187V9.055H3.863zm5.395-4.691H9.25 3.446l.211 2.318h5.602V4.364zm0 13.124v-2.412l-.01.003-2.582-.697-.165-1.849H5.247 4.175l.325 3.64 4.748 1.318.011-.003z" fill="#ebebeb"/><path d="M12.105 11.374l-.269 3.006-2.585.698v2.412l4.752-1.317.035-.392.545-6.103.056-.622.418-4.692H9.25v2.318h3.266l-.211 2.374H9.25v2.318h2.854z" fill="#fff"/></svg>