<svg xmlns="http://www.w3.org/2000/svg" width="22" height="16" fill="none" xmlns:v="https://vecta.io/nano"><g clip-path="url(#A)"><path d="M21.044 6.172c-.058-.048-.584-.446-1.714-.446-.292 0-.595.029-.887.078-.214-1.483-1.451-2.201-1.501-2.239l-.302-.175-.195.281c-.243.378-.429.805-.535 1.24-.205.844-.079 1.638.35 2.317-.516.291-1.354.359-1.53.369H.901a.65.65 0 0 0-.653.65c-.019 1.203.185 2.404.603 3.539.477 1.24 1.188 2.162 2.104 2.724 1.032.629 2.717.988 4.616.988.856 0 1.714-.078 2.562-.233 1.179-.213 2.309-.621 3.35-1.211a9.17 9.17 0 0 0 2.28-1.861c1.101-1.232 1.753-2.608 2.23-3.83h.195c1.198 0 1.938-.475 2.346-.883.273-.252.477-.563.624-.912l.087-.252-.2-.145zM12.484 7.2h1.851c.087 0 .166-.068.166-.165V5.386c0-.087-.068-.165-.166-.165h-1.851c-.087 0-.166.068-.166.165v1.649c.01.097.079.165.166.165zM9.904 2.479h1.851c.087 0 .166-.068.166-.165V.665c0-.087-.079-.165-.166-.165H9.904c-.087 0-.166.068-.166.165v1.649a.17.17 0 0 0 .166.165zm0 2.365h1.851c.087 0 .166-.078.166-.165V3.03c0-.087-.079-.165-.166-.165H9.904c-.087 0-.166.068-.166.165v1.649a.17.17 0 0 0 .166.165zm-2.562 0h1.851c.087 0 .166-.078.166-.165V3.03c0-.087-.068-.165-.166-.165H7.342c-.087 0-.166.068-.166.165v1.649c0 .088.068.165.166.165zm-2.601 0h1.851c.087 0 .166-.078.166-.165V3.03c0-.087-.068-.165-.166-.165H4.741c-.087 0-.166.068-.166.165v1.649c.01.088.079.165.166.165zM9.904 7.2h1.851c.087 0 .166-.068.166-.165V5.386c0-.087-.068-.165-.166-.165H9.904c-.087 0-.166.068-.166.165v1.649c0 .097.077.165.166.165zm-2.562 0h1.851c.087 0 .166-.068.166-.165V5.386c0-.087-.068-.165-.166-.165H7.342c-.087 0-.166.068-.166.165v1.649c0 .097.068.165.166.165zm-2.601 0h1.851c.087 0 .166-.068.166-.165V5.386c0-.087-.068-.165-.166-.165H4.741c-.087 0-.166.068-.166.165v1.649c.01.097.079.165.166.165zm-2.552 0H4.04c.087 0 .166-.068.166-.165V5.386c0-.087-.068-.165-.166-.165H2.189c-.087 0-.166.068-.166.165v1.649c.01.097.079.165.166.165z" fill="#0091e2"/></g><defs><clipPath id="A"><path fill="#fff" transform="translate(.25 .5)" d="M0 0h21v15H0z"/></clipPath></defs></svg>