<svg xmlns="http://www.w3.org/2000/svg" width="15" height="22" fill="none" fill-rule="evenodd" xmlns:v="https://vecta.io/nano"><path d="M7.25 10.75a3.5 3.5 0 1 1 7 0 3.5 3.5 0 1 1-7 0z" fill="#1abcfe"/><path d="M.25 17.75a3.5 3.5 0 0 1 3.5-3.5h3.5v3.5a3.5 3.5 0 1 1-7 0z" fill="#0acf83"/><path d="M7.25.25v7h3.5a3.5 3.5 0 1 0 0-7h-3.5z" fill="#ff7262"/><path d="M.25 3.75a3.5 3.5 0 0 0 3.5 3.5h3.5v-7h-3.5a3.5 3.5 0 0 0-3.5 3.5z" fill="#f24e1e"/><path d="M.25 10.75a3.5 3.5 0 0 0 3.5 3.5h3.5v-7h-3.5a3.5 3.5 0 0 0-3.5 3.5z" fill="#a259ff"/></svg>