<svg xmlns="http://www.w3.org/2000/svg" width="22" height="22" fill="none" xmlns:v="https://vecta.io/nano"><g clip-path="url(#A)"><path d="M21.104 10.064L11.935.896c-.528-.528-1.384-.528-1.913 0L8.119 2.8l2.415 2.415c.561-.19 1.205-.062 1.652.385s.576 1.099.382 1.663l2.328 2.328c.563-.194 1.213-.069 1.663.382a1.61 1.61 0 0 1 0 2.276 1.61 1.61 0 0 1-2.626-1.75l-2.171-2.171v5.713c.153.076.298.177.425.304a1.61 1.61 0 0 1 0 2.276 1.61 1.61 0 0 1-2.276 0 1.61 1.61 0 0 1 0-2.276c.155-.155.335-.273.527-.351V8.227c-.192-.079-.371-.195-.527-.351a1.61 1.61 0 0 1-.346-1.759L7.183 3.735.896 10.022c-.528.529-.528 1.385 0 1.913l9.169 9.169c.528.528 1.384.528 1.913 0l9.126-9.126c.528-.528.528-1.385 0-1.913z" fill="#f05133"/></g><defs><clipPath id="A"><path fill="#fff" transform="translate(.5 .5)" d="M0 0h21v21H0z"/></clipPath></defs></svg>