<svg xmlns="http://www.w3.org/2000/svg" width="22" height="22" fill="none" xmlns:v="https://vecta.io/nano"><g clip-path="url(#A)"><path d="M1.906 5.556C.049 8.227.279 11.702 1.699 14.547l.104.202.066.128.041.073.074.133.136.232.077.127.157.246.067.104.228.328.045.06.207.276.079.1.192.236.073.088.267.305.016.017.272.286.087.088.217.213.089.085.297.27.325.276.112.089.225.176.12.092.253.181.118.083.245.162.106.071.384.235.106.066.289.162.159.082.206.107.048.023.085.041.327.151.069.031.381.158.092.037.36.133.046.016.4.131.097.029.413.117c8.987 1.639 11.596-5.401 11.596-5.401-2.192 2.856-6.084 3.609-9.778 2.771-.14-.031-.276-.075-.412-.115l-.102-.031c-.133-.041-.265-.084-.396-.129l-.054-.02-.349-.129-.098-.039a9.89 9.89 0 0 1-.377-.157l-.075-.033-.318-.148L9 17.316a3.32 3.32 0 0 1-.246-.131l-.164-.085c-.1-.052-.197-.109-.295-.165l-.1-.056c-.129-.076-.257-.155-.384-.235-.035-.022-.069-.046-.104-.069l-.273-.182c-.03-.02-.066-.042-.088-.062l-.259-.187-.115-.087-.233-.182-.104-.083-.29-.245c-.011-.009-.021-.018-.033-.026l-.305-.278-.085-.083-.218-.216-.085-.085a5.31 5.31 0 0 1-.263-.285 11.67 11.67 0 0 1-.286-.325l-.066-.085-.197-.243-.066-.09-.227-.302C2.456 10.738 1.72 6.88 3.357 3.717l-1.45 1.839zm5.768-2.25c-1.344 1.934-1.271 4.528-.223 6.568a8.57 8.57 0 0 0 .595.992c.201.289.425.632.692.864.097.107.198.21.302.313l.079.079c.1.098.203.193.308.286.133.116.253.208.376.312l.081.064a8.82 8.82 0 0 0 .377.275l.011.008c.056.039.114.075.172.114.027.018.054.037.081.054.092.059.185.116.279.171l.039.023.247.131c.029.016.066.03.088.046l.173.089c.009.005.018.008.026.012.118.059.238.115.36.167l.079.033c.098.042.196.081.295.12l.126.046.271.094.123.039c.129.039.262.092.392.114 6.938 1.15 8.54-4.2 8.54-4.2-1.444 2.08-4.239 3.071-7.224 2.297a8.52 8.52 0 0 1-.393-.114 4.25 4.25 0 0 1-.118-.038l-.276-.095-.131-.046a9.9 9.9 0 0 1-.295-.119l-.08-.033a8.31 8.31 0 0 1-.362-.168l-.182-.092-.105-.054c-.077-.042-.154-.085-.23-.129l-.055-.031c-.094-.055-.187-.112-.278-.171-.028-.018-.056-.037-.084-.056l-.181-.119a8.79 8.79 0 0 1-.374-.274l-.085-.066C9.797 9.779 8.768 8.37 8.275 6.772c-.516-1.657-.405-3.517.489-5.027L7.675 3.307zm4.851-1.681c-.791 1.171-.87 2.614-.32 3.901.579 1.367 1.767 2.439 3.154 2.953l.172.066.076.024.247.066c3.831.74 4.869-1.966 5.147-2.364-.91 1.311-2.44 1.625-4.317 1.169a4.91 4.91 0 0 1-.454-.14 5.55 5.55 0 0 1-.54-.224c-.334-.16-.65-.354-.946-.577-1.679-1.274-2.723-3.711-1.627-5.69" fill="#0868ac"/></g><defs><clipPath id="A"><path fill="#fff" transform="translate(.5 .5)" d="M0 0h21v21H0z"/></clipPath></defs></svg>