<svg xmlns="http://www.w3.org/2000/svg" width="22" height="22" fill="none" xmlns:v="https://vecta.io/nano"><g clip-path="url(#A)"><path fill="#ffca28" d="M.5.5h21v21H.5z"/><g fill="#3e3e3e"><path d="M13.348 18.18l1.566-1.01c.123.376.9 1.268 1.882 1.268s1.438-.522 1.438-.869c0-.944-1.003-1.277-1.484-1.436l-.187-.066-.101-.039c-.536-.199-2.512-.935-2.512-3.066 0-2.348 2.326-2.618 2.853-2.618.344 0 1.999.041 2.823 1.55l-1.52 1.033c-.333-.657-.887-.875-1.227-.875-.842 0-1.017.601-1.017.875 0 .768.915 1.112 1.687 1.402l.558.224c.842.387 2.081 1.021 2.081 3.017 0 1-.861 2.618-3.028 2.618-2.911 0-3.682-1.702-3.811-2.008zm-7.598.201l1.633-1.009c.128.375.625 1.068 1.346 1.068s1.091-.722 1.091-1.068v-6.806h2.008v6.806c.033.939-.502 2.816-2.861 2.816-2.169 0-3.07-1.256-3.217-1.807z"/></g></g><defs><clipPath id="A"><path fill="#fff" transform="translate(.5 .5)" d="M0 0h21v21H0z"/></clipPath></defs></svg>