<svg xmlns="http://www.w3.org/2000/svg" width="22" height="22" fill="none" xmlns:v="https://vecta.io/nano"><g clip-path="url(#A)"><path d="M1.85 11.015V6.003c-.005-.088.016-.176.061-.252s.112-.137.191-.175L10.748.583c.156-.097.33-.117.486-.02l8.683 5.012c.074.043.136.105.177.181s.061.161.056.246v10.005c.004.086-.015.171-.056.246s-.102.138-.177.181l-7.46 4.312-1.185.68a.51.51 0 0 1-.525 0l-8.664-4.993c-.156-.097-.233-.214-.233-.408v-5.012.002z" fill="#009438"/><path d="M7.969 9.149v5.841c0 .66-.525 1.243-1.224 1.224a1.14 1.14 0 0 1-.984-.563c-.117-.175-.156-.369-.156-.583V6.955c0-.545.33-.932.757-1.107s.854-.136 1.282 0c.408.117.719.369.984.68l5.167 6.197c.02.02.039.059.077.097V6.915c0-.621.427-1.107 1.03-1.166.757-.097 1.263.446 1.34 1.011v8.269a1.09 1.09 0 0 1-.602 1.011c-.291.155-.603.194-.932.175a2.12 2.12 0 0 1-1.282-.544c-.194-.175-.33-.389-.505-.583L8.007 9.201c0-.02-.02-.039-.039-.059l.001.007z" fill="#fefefe"/></g><defs><clipPath id="A"><path fill="#fff" transform="translate(.5 .5)" d="M0 0h21v21H0z"/></clipPath></defs></svg>