<svg xmlns="http://www.w3.org/2000/svg" width="22" height="21" fill="none" xmlns:v="https://vecta.io/nano"><g clip-path="url(#A)"><path d="M4.219.25h13.562c2.056 0 3.719 1.644 3.719 3.678v12.894c0 2.034-1.663 3.678-3.719 3.678H4.219C2.163 20.5.5 18.856.5 16.822V3.928C.5 1.894 2.163.25 4.219.25z" fill="#001e36"/><g fill="#31a8ff"><path d="M5.225 14.451V5.546c0-.061.026-.095.087-.095l.49-.009.665-.017.761-.017.796-.009c.717 0 1.313.087 1.803.268a3.13 3.13 0 0 1 1.172.71 2.75 2.75 0 0 1 .639.987 3.28 3.28 0 0 1 .201 1.125c0 .744-.175 1.359-.525 1.843a3 3 0 0 1-1.409 1.056c-.595.216-1.251.294-1.969.294-.21 0-.35 0-.437-.009s-.21-.009-.376-.009v2.778c.009.061-.035.113-.096.121h-.035H5.33c-.07 0-.105-.035-.105-.112zm1.907-7.33v2.908l.341.017h.464a3.3 3.3 0 0 0 1.006-.156c.28-.078.525-.242.718-.459.184-.216.271-.511.271-.891a1.41 1.41 0 0 0-.201-.77c-.149-.225-.359-.398-.613-.493-.324-.13-.674-.182-1.033-.173l-.595.009c-.175-.009-.297 0-.359.009zM17.3 9.501a3.12 3.12 0 0 0-.84-.294 4.66 4.66 0 0 0-.98-.113 1.78 1.78 0 0 0-.525.061.45.45 0 0 0-.271.173c-.044.069-.07.156-.07.234s.035.156.087.225a1 1 0 0 0 .298.234l.621.285a6.37 6.37 0 0 1 1.348.632 2.02 2.02 0 0 1 .691.718 1.85 1.85 0 0 1 .201.891 2 2 0 0 1-.341 1.151 2.19 2.19 0 0 1-.98.77c-.429.182-.954.277-1.584.277a6.09 6.09 0 0 1-1.19-.113 3.56 3.56 0 0 1-.893-.277c-.061-.035-.105-.095-.096-.164v-1.506c0-.026.009-.061.035-.078s.053-.009.079.009a3.77 3.77 0 0 0 1.085.424 4.12 4.12 0 0 0 1.032.13c.332 0 .569-.043.726-.121.14-.061.236-.208.236-.363 0-.121-.07-.234-.21-.346s-.429-.242-.858-.407a5.41 5.41 0 0 1-1.242-.623 2.25 2.25 0 0 1-.665-.736 1.84 1.84 0 0 1-.201-.883 2.02 2.02 0 0 1 .297-1.047 2.15 2.15 0 0 1 .919-.796c.411-.208.927-.303 1.549-.303.359 0 .726.026 1.085.078a3.14 3.14 0 0 1 .753.199c.035.009.07.043.088.078a.42.42 0 0 1 .017.104v1.411c0 .035-.017.069-.044.087-.079.017-.122.017-.157 0z"/></g></g><defs><clipPath id="A"><path fill="#fff" transform="translate(.5 .25)" d="M0 0h21v20.25H0z"/></clipPath></defs></svg>