<svg xmlns="http://www.w3.org/2000/svg" width="22" height="12" fill="none" xmlns:v="https://vecta.io/nano"><path d="M.5 6.236c0 3.03 4.701 5.486 10.5 5.486s10.5-2.456 10.5-5.486S16.799.75 11 .75.5 3.206.5 6.236z" fill="url(#A)"/><path d="M11 11.315c5.572 0 10.09-2.274 10.09-5.079S16.572 1.157 11 1.157.91 3.431.91 6.236 5.428 11.315 11 11.315z" fill="#777bb3"/><path d="M6.204 6.866c.458 0 .8-.084 1.017-.249s.362-.447.44-.843c.072-.37.045-.628-.082-.768s-.409-.215-.831-.215h-.732l-.406 2.075h.595zM3.809 9.422c-.034 0-.066-.015-.088-.041s-.03-.06-.024-.094l1.076-5.498c.01-.053.057-.092.112-.092h2.319c.729 0 1.271.197 1.612.584s.449.934.315 1.619c-.055.279-.148.538-.279.77a2.58 2.58 0 0 1-.513.639c-.251.234-.536.403-.844.503s-.694.148-1.16.148h-.939l-.268 1.37c-.01.053-.057.092-.112.092H3.809z" fill="#000"/><path d="M6.109 4.904h.638c.51 0 .687.111.747.177.1.11.119.342.054.67-.072.368-.206.629-.397.775s-.515.226-.947.226h-.457l.362-1.848zm1.095-1.32H4.885c-.109 0-.203.077-.224.183L3.586 9.265c-.013.066.005.135.048.187s.108.082.176.082h1.206c.109 0 .203-.077.224-.183l.25-1.279h.845c.478 0 .88-.052 1.195-.154.324-.105.623-.282.887-.527.218-.2.398-.424.535-.666s.234-.513.291-.804c.141-.721.026-1.298-.341-1.715s-.935-.623-1.698-.623zM5.471 6.979h.733c.486 0 .848-.091 1.086-.273s.398-.486.482-.911c.08-.409.043-.697-.109-.865s-.458-.252-.916-.252h-.826l-.45 2.301zM7.204 3.81c.698 0 1.206.182 1.526.545s.416.871.289 1.523a2.45 2.45 0 0 1-.266.736 2.46 2.46 0 0 1-.491.61c-.241.224-.508.383-.803.478s-.669.143-1.125.143H5.301l-.286 1.462H3.809L4.885 3.81h2.319z" fill="#fff"/><path d="M11.895 7.96c-.034 0-.066-.015-.088-.041s-.03-.06-.024-.094l.476-2.433c.045-.231.034-.397-.031-.468-.04-.043-.161-.115-.517-.115h-.862l-.598 3.058c-.01.053-.057.092-.112.092H8.943c-.034 0-.066-.015-.088-.041s-.03-.06-.024-.094l1.076-5.498c.01-.053.057-.092.112-.092h1.196c.034 0 .066.015.088.041s.03.06.024.094l-.26 1.327h.928c.707 0 1.186.124 1.465.378.285.26.373.675.264 1.234l-.5 2.558c-.01.053-.057.092-.112.092h-1.215z" fill="#000"/><path d="M11.215 2.122h-1.196c-.109 0-.203.077-.224.183L8.719 7.803c-.013.066.005.135.048.187s.108.082.176.082h1.196c.109 0 .203-.077.224-.183l.58-2.967h.768c.356 0 .43.075.433.079.021.023.05.13.003.369l-.476 2.433c-.013.066.005.135.048.187s.108.082.176.082h1.215c.109 0 .203-.077.224-.183l.5-2.558c.118-.601.017-1.051-.298-1.339-.301-.275-.805-.408-1.542-.408h-.789l.233-1.192c.013-.066-.005-.135-.048-.187s-.108-.082-.176-.082zm0 .226l-.286 1.462h1.066c.671 0 1.133.116 1.388.348s.331.609.229 1.129l-.501 2.558h-1.215l.476-2.432c.054-.277.034-.465-.06-.566s-.294-.151-.6-.151h-.956l-.616 3.15H8.943l1.076-5.498h1.196z" fill="#fff"/><path d="M15.616 6.866c.458 0 .8-.084 1.017-.249s.362-.447.439-.843c.072-.37.045-.628-.082-.768s-.409-.215-.831-.215h-.732l-.406 2.075h.595zm-2.395 2.556c-.034 0-.066-.015-.088-.041s-.03-.06-.024-.094l1.076-5.498c.011-.053.057-.092.112-.092h2.319c.729 0 1.271.197 1.612.584s.449.934.315 1.619c-.055.279-.148.538-.279.77a2.58 2.58 0 0 1-.513.639c-.251.234-.536.403-.844.503s-.694.148-1.16.148h-.939l-.268 1.37c-.01.053-.057.092-.112.092h-1.206z" fill="#000"/><path d="M15.521 4.904h.638c.51 0 .687.111.747.177.1.11.119.342.055.67-.072.368-.206.629-.397.775s-.515.226-.947.226h-.457l.362-1.848zm1.095-1.32h-2.319c-.109 0-.203.077-.224.183l-1.076 5.498c-.013.066.004.135.048.187s.108.082.176.082h1.206c.109 0 .203-.077.224-.183l.25-1.279h.845c.478 0 .88-.052 1.195-.154a2.37 2.37 0 0 0 .887-.528c.218-.2.398-.424.535-.666s.234-.513.291-.804c.141-.721.026-1.298-.341-1.715s-.935-.623-1.698-.623zm-1.733 3.395h.733c.486 0 .848-.091 1.086-.273s.398-.486.482-.911c.08-.409.043-.697-.109-.865s-.458-.252-.916-.252h-.826l-.45 2.301zm1.733-3.168c.697 0 1.206.182 1.526.545s.416.871.288 1.523a2.45 2.45 0 0 1-.266.736 2.46 2.46 0 0 1-.491.61c-.241.224-.508.383-.803.478s-.669.143-1.125.143h-1.033l-.286 1.462h-1.206l1.076-5.498h2.319z" fill="#fff"/><defs><radialGradient id="A" cx="0" cy="0" r="1" gradientUnits="userSpaceOnUse" gradientTransform="translate(6.80424 2.67864) scale(13.788 13.6946)"><stop stop-color="#aeb2d5"/><stop offset=".3" stop-color="#aeb2d5"/><stop offset=".75" stop-color="#484c89"/></radialGradient></defs></svg>