<svg xmlns="http://www.w3.org/2000/svg" width="22" height="17" fill="none" xmlns:v="https://vecta.io/nano"><g clip-path="url(#A)"><path d="M18.571 9.547c-.734.004-1.37.18-1.903.443-.197-.39-.394-.73-.426-.984-.037-.295-.082-.476-.037-.829s.25-.853.25-.894-.045-.217-.468-.221-.787.082-.828.193-.123.365-.176.628c-.074.386-.845 1.751-1.284 2.469-.144-.279-.267-.525-.291-.722-.037-.295-.082-.476-.037-.828s.25-.853.25-.894-.045-.217-.468-.221-.787.082-.828.193-.086.373-.176.628-1.112 2.535-1.378 3.129l-.34.71c-.086.164-.004.012-.012.029l-.115.217v.004c-.057.103-.119.201-.148.201-.021 0-.061-.275.008-.652.152-.792.521-2.026.517-2.071 0-.021.07-.238-.238-.349-.299-.111-.406.074-.431.074s-.045.066-.045.066.332-1.39-.636-1.39c-.607 0-1.444.66-1.858 1.263l-1.411.771-.681.373-.045-.049C4.163 9.58 1.993 8.694 2.083 7.012c.033-.611.246-2.223 4.167-4.175 3.212-1.6 5.783-1.161 6.23-.185.636 1.395-1.374 3.987-4.713 4.36-1.271.144-1.94-.349-2.108-.533-.176-.193-.201-.201-.267-.164-.107.057-.041.23 0 .332.098.258.509.718 1.206.947.611.201 2.104.312 3.909-.386 2.022-.783 3.601-2.957 3.138-4.774-.472-1.85-3.54-2.457-6.439-1.427-1.727.615-3.597 1.575-4.942 2.834C.664 5.335.41 6.639.516 7.18c.373 1.932 3.035 3.191 4.102 4.122l-.148.082c-.533.263-2.563 1.325-3.072 2.449-.574 1.271.09 2.186.533 2.309 1.37.382 2.773-.303 3.531-1.431s.664-2.592.316-3.261l-.012-.025.418-.246.771-.435c-.131.357-.226.779-.275 1.395-.057.722.238 1.657.628 2.026.172.16.377.164.504.164.451 0 .656-.373.882-.82.279-.546.525-1.177.525-1.177s-.308 1.71.533 1.71c.308 0 .615-.398.755-.603v.004l.025-.041.049-.078v-.008l.808-1.509c.529-1.042 1.038-2.346 1.038-2.346s.049.32.201.845c.09.312.287.652.439.984l-.197.271.004.004-.324.41-.984 1.235c-.078.193-.061.336.09.451.111.082.308.098.517.082.377-.025.64-.119.771-.176a2.67 2.67 0 0 0 .664-.349c.41-.303.66-.734.636-1.308-.012-.316-.115-.627-.242-.923l.111-.164c.648-.948 1.148-1.989 1.148-1.989s.049.32.201.845c.078.267.234.558.373.845-.607.496-.989 1.071-1.12 1.448-.242.697-.053 1.013.303 1.087.16.033.39-.041.562-.115.213-.07.472-.189.71-.365.41-.303.804-.726.783-1.296-.012-.262-.082-.521-.176-.767.517-.213 1.185-.336 2.034-.234 1.825.213 2.186 1.354 2.116 1.829s-.451.738-.578.82-.168.107-.156.164c.016.086.074.082.185.066.152-.025.96-.39.993-1.267.049-1.128-1.021-2.359-2.92-2.346zM4.495 14.292c-.603.66-1.452.911-1.813.697-.39-.226-.238-1.198.504-1.899.451-.427 1.038-.82 1.423-1.062l.373-.226.041-.025.094-.057c.275 1.001.012 1.879-.623 2.572zm4.409-2.998c-.209.513-.652 1.829-.919 1.755-.23-.062-.369-1.058-.045-2.043.164-.496.513-1.087.718-1.317.332-.369.693-.492.783-.34.107.197-.406 1.624-.537 1.944zm3.638 1.739c-.09.045-.172.078-.209.053-.029-.016.037-.078.037-.078l.636-.714.357-.455v.049c0 .591-.566.984-.82 1.144zm2.805-.64c-.066-.049-.057-.201.164-.677.086-.189.283-.505.623-.804.041.123.066.242.061.353-.004.738-.529 1.013-.849 1.128z" fill="#cf649a"/></g><defs><clipPath id="A"><path fill="#fff" transform="translate(.5 .5)" d="M0 0h21v15.75H0z"/></clipPath></defs></svg>