<svg xmlns="http://www.w3.org/2000/svg" width="22" height="22" fill="none" xmlns:v="https://vecta.io/nano"><g clip-path="url(#A)"><path d="M21.13 9.448v9.266c0 1.356-2.631 2.456-5.877 2.456s-5.877-1.1-5.877-2.456v-.844C5.595 18.664.87 17.548.87 15.673V3.283C.87 1.927 3.501.828 6.746.828s5.877 1.1 5.877 2.456v3.968c3.789-.795 8.507.326 8.507 2.197z" fill="#8ab2ff"/><g fill="#a6c4ff"><path d="M15.254 6.992c3.246 0 5.877 1.1 5.877 2.456s-2.631 2.456-5.877 2.456c-4.18 0-7.087-1.799-5.397-3.43 1.18-1.141 3.748-1.482 5.397-1.482zm-2.631-3.709v.01C12.611 4.645 9.984 5.74 6.746 5.74S.882 4.645.87 3.293C.87 1.927 3.501.828 6.746.828s5.877 1.1 5.877 2.456z"/></g><g fill="#7da7fa"><path d="M12.624 3.294v3.958c-1.209.253-3.247.964-3.247 2.197v8.422c-2.228.468-5.205.32-7.092-.598C5.65 14.37 7.529 10.164 7.422 5.724c2.92-.139 5.19-1.173 5.202-2.43zm8.506 6.154v9.267c0 1.913-4.953 3.05-8.791 2.133 2.628-2.343 4.24-5.46 4.097-8.993 2.679-.229 4.694-1.219 4.694-2.407z"/></g><g fill="#2c2c3d"><path d="M2.769 1.805c.237 0 .412-.228.327-.452a.33.33 0 0 0-.424-.192.33.33 0 0 0 .096.644zm10.524 10.292a.33.33 0 0 0 .39-.275.33.33 0 0 0-.277-.373c-.217-.031-.365.111-.389.275a.33.33 0 0 0 .277.373zm8.166-2.69c-.023-.781-.703-1.489-1.922-1.999C15.771 5.835 9.125 6.869 9.05 9.407c-.002.026-.001 1.083-.001 5.098-3.737.688-7.849-.484-7.849-1.926v-1.813c1.549 1.389 4.884 1.645 6.97 1.433a.33.33 0 0 0 .294-.36.33.33 0 0 0-.36-.294c-3.54.358-6.904-.765-6.904-2.06V7.671C2.748 9.06 6.083 9.316 8.17 9.104a.33.33 0 0 0 .294-.36.33.33 0 0 0-.36-.294C4.564 8.808 1.2 7.684 1.2 6.39V4.565c2.224 1.995 8.854 2.011 11.096 0v1.34a.33.33 0 0 0 .329.329.33.33 0 0 0 .329-.329V3.291C12.963 1.03 7.742-.09 3.833.813a.33.33 0 0 0-.246.394.33.33 0 0 0 .394.246C9.222.242 15.16 2.885 10.776 4.718c-2.216.926-5.842.926-8.057 0C1.433 4.181.626 3.332 1.703 2.436a.33.33 0 0 0 .043-.463.33.33 0 0 0-.463-.042c-.423.352-.741.81-.741 1.364v12.38c0 2.173 4.76 3.244 8.507 2.594v.447c0 2.57 6.708 3.62 10.488 2.04 1.24-.518 1.923-1.243 1.923-2.04l-.001-9.307zM11.225 8.015c2.216-.926 5.842-.926 8.058 0 3.726 1.557.012 3.737-4.591 3.549a.33.33 0 0 0-.342.315.33.33 0 0 0 .315.342c1.92.078 4.755-.253 6.137-1.492v1.797c0 .507-.554 1.03-1.519 1.433-1.071.447-2.501.694-4.029.694-3.201 0-5.548-1.082-5.548-2.127v-1.795c.468.419 1.173.778 2.081 1.044a.33.33 0 0 0 .408-.223.33.33 0 0 0-.223-.408c-2.49-.731-3.187-2.109-.747-3.129zM1.199 15.674V13.86c1.6 1.435 5.27 1.76 7.849 1.313V17.6c-3.737.688-7.849-.484-7.849-1.926zm18.084 4.475c-2.216.926-5.842.926-8.058 0-.966-.404-1.519-.926-1.519-1.433v-1.814c1.955 1.753 7.354 1.998 10.184.599a.33.33 0 0 0 .149-.441.33.33 0 0 0-.44-.149c-1.076.532-2.66.837-4.344.837-3.201 0-5.548-1.082-5.548-2.127v-1.813c2.229 1.999 8.867 1.999 11.096 0v4.908c0 .507-.554 1.03-1.519 1.433z"/></g></g><defs><clipPath id="A"><path fill="#fff" transform="translate(.5 .5)" d="M0 0h21v21H0z"/></clipPath></defs></svg>