<svg xmlns="http://www.w3.org/2000/svg" width="22" height="22" fill="none" xmlns:v="https://vecta.io/nano"><path d="M20.758 2.712L16.433.63a1.31 1.31 0 0 0-1.491.253L.786 13.79c-.381.347-.38.947.001 1.293l1.156 1.051c.312.283.781.304 1.117.05L20.107 3.252a.87.87 0 0 1 1.393.692v-.05a1.31 1.31 0 0 0-.743-1.182z" fill="#0065a9"/><path d="M20.757 19.167l-4.324 2.082a1.31 1.31 0 0 1-1.492-.253L.785 8.089c-.381-.347-.38-.947.001-1.293l1.156-1.051c.312-.283.781-.304 1.117-.05l17.047 12.932a.87.87 0 0 0 1.393-.692v.05a1.31 1.31 0 0 1-.743 1.182z" fill="#007acc"/><path d="M16.433 21.25a1.31 1.31 0 0 1-1.492-.254.77.77 0 0 0 1.312-.543V1.426a.77.77 0 0 0-1.312-.543 1.31 1.31 0 0 1 1.492-.254l4.324 2.079a1.31 1.31 0 0 1 .743 1.182v14.098a1.31 1.31 0 0 1-.743 1.182l-4.324 2.079z" fill="#1f9cf0"/><path fill-rule="evenodd" d="M15.383 21.291c.331.129.707.12 1.041-.04l4.321-2.079a1.31 1.31 0 0 0 .743-1.182V3.891a1.31 1.31 0 0 0-.743-1.182L16.424.63c-.438-.211-.95-.159-1.335.12a1.32 1.32 0 0 0-.156.134L6.661 8.43 3.058 5.695c-.335-.255-.805-.234-1.116.05L.786 6.796c-.381.347-.381.946-.001 1.293L3.91 10.94.785 13.791c-.381.347-.38.947.001 1.293l1.156 1.051c.312.283.781.304 1.116.05l3.603-2.735 8.272 7.547c.131.131.285.229.45.294zm.861-15.115L9.967 10.94l6.277 4.764V6.176z" fill="url(#A)"/><defs><linearGradient id="A" x1="10.994" y1=".501" x2="10.994" y2="21.38" gradientUnits="userSpaceOnUse"><stop stop-color="#fff" stop-opacity=".25"/><stop offset="1" stop-color="#fff" stop-opacity="0"/></linearGradient></defs></svg>