<svg xmlns="http://www.w3.org/2000/svg" width="22" height="22" fill="none" xmlns:v="https://vecta.io/nano"><g clip-path="url(#A)" fill="#464342"><path d="M1.993 11a9.01 9.01 0 0 0 5.077 8.107L2.773 7.334A8.97 8.97 0 0 0 1.993 11zm15.088-.455c0-1.113-.4-1.884-.743-2.484-.457-.742-.885-1.37-.885-2.112 0-.828.628-1.599 1.513-1.599.04 0 .078.005.117.007C15.481 2.889 13.345 1.993 11 1.993c-3.147 0-5.916 1.615-7.526 4.06l.58.011 2.401-.114c.486-.029.543.685.058.742l-1.031.086 3.28 9.757 1.971-5.912L9.33 6.778l-.945-.086c-.485-.028-.429-.771.057-.742l2.373.114 2.401-.114c.486-.029.543.685.058.742l-1.031.086 3.255 9.683.898-3.002c.389-1.246.686-2.141.686-2.912zm-5.923 1.243l-2.703 7.853a9.01 9.01 0 0 0 2.545.367 9 9 0 0 0 2.991-.511.76.76 0 0 1-.064-.124l-2.769-7.585zm7.747-5.11a6.9 6.9 0 0 1 .061.926c0 .914-.171 1.942-.685 3.226l-2.751 7.955c2.678-1.562 4.479-4.463 4.479-7.786a8.96 8.96 0 0 0-1.104-4.322zM11 .5C5.211.5.5 5.21.5 11S5.211 21.5 11 21.5 21.501 16.79 21.501 11 16.79.5 11 .5zm0 20.519C5.476 21.019.981 16.524.981 11S5.476.981 11 .981 21.019 5.476 21.019 11 16.524 21.019 11 21.019z"/></g><defs><clipPath id="A"><path fill="#fff" transform="translate(.5 .5)" d="M0 0h21v21H0z"/></clipPath></defs></svg>